<?xml version="1.0" standalone="no"?>
<!DOCTYPE svg PUBLIC "-//W3C//DTD SVG 1.1//EN" "http://www.w3.org/Graphics/SVG/1.1/DTD/svg11.dtd" >
<svg xmlns="http://www.w3.org/2000/svg">
<metadata></metadata>
<defs>
<font id="mirum_sansbold_oblique" horiz-adv-x="1484" >
<font-face units-per-em="2048" ascent="1638" descent="-410" />
<missing-glyph horiz-adv-x="530" />
<glyph unicode="&#xfb01;" horiz-adv-x="1150" d="M203 0l196 797h-133l49 196h134l36 146q81 317 455 317q188 0 288.5 -89t63.5 -241h-237q17 60 -24 95.5t-116 35.5q-78 0 -131.5 -41.5t-72.5 -113.5l-27 -109h184l-49 -196h-184l-197 -797h-235zM776 0l246 993h235l-245 -993h-236z" />
<glyph unicode="&#xfb02;" horiz-adv-x="1181" d="M203 0l196 797h-133l49 196h134l45 160q26 104 94 172.5t161.5 98.5t213.5 30q139 0 247.5 -20t149.5 -43l-281 -1096q-13 -57 9 -86t104 -29l-76 -192q-177 0 -243 77t-33 203l245 963q-63 14 -163 14q-73 0 -131 -35t-76 -104l-31 -113h182l-49 -196h-182l-197 -797 h-235z" />
<glyph horiz-adv-x="0" />
<glyph horiz-adv-x="682" />
<glyph unicode=" "  horiz-adv-x="530" />
<glyph unicode="&#x09;" horiz-adv-x="530" />
<glyph unicode="&#xa0;" horiz-adv-x="530" />
<glyph unicode="!" horiz-adv-x="466" d="M123 0l61 248h262l-61 -248h-262zM248 391l211 975h266l-279 -975h-198z" />
<glyph unicode="&#x22;" horiz-adv-x="739" d="M354 891l74 475h223l-162 -475h-135zM694 891l74 475h223l-162 -475h-135z" />
<glyph unicode="#" horiz-adv-x="1150" d="M147 436l70 164h189l118 287h-188l70 160h190l135 319h168l-139 -319h207l135 319h168l-142 -319h199l-70 -160h-192l-123 -287h197l-72 -164h-199l-131 -315h-170l140 315h-205l-137 -315h-168l139 315h-189zM573 600h201l123 287h-205z" />
<glyph unicode="$" horiz-adv-x="1173" d="M96 172l187 170q30 -73 92 -105.5t160 -46.5l102 420q-126 34 -210.5 121t-84.5 215q0 192 136.5 311.5t352.5 131.5l43 176h191l-45 -179q235 -23 336 -172l-178 -167q-9 17 -18.5 31t-22 25.5t-21 20t-25 16t-23.5 11.5t-26 9t-24 6.5t-26 6t-23 5.5l-97 -387 q138 -37 220 -123.5t82 -218.5q0 -68 -17 -130t-55.5 -120t-96 -103t-143.5 -76.5t-192 -42.5l-43 -174h-191l43 174q-289 29 -383 195zM592 1028q-12 -61 13.5 -103t90.5 -73l82 324q-76 -4 -125 -44.5t-61 -103.5zM723 193q172 12 199 165q22 127 -109 193z" />
<glyph unicode="%" horiz-adv-x="1810" d="M358 1051q41 163 148 246t270 83q157 0 227.5 -104.5t28.5 -269.5q-40 -161 -151.5 -243.5t-270.5 -82.5q-153 0 -223 103t-29 268zM406 0l1169 1366h174l-1171 -1366h-172zM541 1030q-24 -91 2.5 -142.5t101.5 -51.5t129 51.5t78 142.5q22 91 -6 143t-103 52t-127.5 -52 t-74.5 -143zM1116 354q40 160 148.5 246t269.5 86q156 0 227 -106t29 -271q-40 -160 -151.5 -242.5t-268.5 -82.5q-154 0 -224.5 103t-29.5 267zM1296 334q-22 -91 5 -143t102 -52q74 0 128.5 52.5t76.5 142.5q23 90 -5 142t-102 52q-75 0 -128 -51.5t-77 -142.5z" />
<glyph unicode="&#x26;" horiz-adv-x="1232" d="M158 295q0 73 19.5 136.5t51 110t81.5 90t99.5 74t116.5 64.5q-51 119 -51 203q0 190 114 303t312 113q72 0 128 -15t90.5 -39.5t57 -58t31.5 -68t9 -73.5q0 -73 -28 -135t-83 -113t-118.5 -90.5t-151.5 -81.5l143 -277q55 71 93 156t38 111l188 -91q-51 -112 -102 -193 t-127 -159l143 -262h-280l-49 96q-163 -121 -381 -121q-164 0 -254 87.5t-90 232.5zM403 317q0 -145 166 -145q99 0 217 86l-178 348q-46 -26 -79.5 -52t-64 -61t-46 -79.5t-15.5 -96.5zM729 1001q0 -51 29 -122q49 22 81.5 40.5t65.5 45t49.5 59.5t16.5 72q0 35 -25 62.5 t-65 27.5q-71 0 -111.5 -51t-40.5 -134z" />
<glyph unicode="'" horiz-adv-x="399" d="M354 891l74 475h223l-162 -475h-135z" />
<glyph unicode="(" horiz-adv-x="534" d="M199 510q61 244 192 479.5t324 440.5l106 -74q-151 -208 -252.5 -410t-158.5 -436q-108 -424 -11 -844l-131 -69q-182 470 -69 913z" />
<glyph unicode=")" horiz-adv-x="534" d="M-31 -332q152 208 253.5 410.5t158.5 435.5q40 156 52 305.5t0.5 276.5t-42.5 262l129 69q184 -475 72 -913q-61 -244 -192 -479.5t-324 -440.5z" />
<glyph unicode="*" horiz-adv-x="784" d="M330 973l209 94l-205 94l74 133l176 -137l-29 232h158l-29 -234l182 139l72 -133l-207 -94l207 -98l-70 -129l-182 137l29 -234h-160l29 232l-178 -135z" />
<glyph unicode="+" horiz-adv-x="1239" d="M229 406l43 169h398l98 402h190l-98 -402h397l-43 -169h-397l-100 -406h-191l101 406h-398z" />
<glyph unicode="," horiz-adv-x="442" d="M96 0l62 248h250l-54 -211l-129 -268h-129l105 231h-105z" />
<glyph unicode="-" horiz-adv-x="673" d="M205 510l45 186h518l-45 -186h-518z" />
<glyph unicode="." horiz-adv-x="477" d="M113 0l61 248h252l-61 -248h-252z" />
<glyph unicode="/" horiz-adv-x="751" d="M18 -59l861 1482h192l-860 -1482h-193z" />
<glyph unicode="0" horiz-adv-x="1226" d="M233 341q-4 81 6 165t33 178q29 115 66.5 213t95.5 191t129 157.5t169.5 104t213.5 39.5q117 0 199 -39t124 -104.5t57 -157.5t5.5 -191t-37.5 -213q-175 -704 -673 -704q-98 0 -172 26.5t-118 76t-69 113.5t-29 145zM516 684q-124 -500 141 -500q270 0 394 500 q121 498 -146 498q-268 0 -389 -498z" />
<glyph unicode="1" horiz-adv-x="630" d="M252 0l293 1165h-213l51 201h451l-340 -1366h-242z" />
<glyph unicode="2" horiz-adv-x="1097" d="M96 0l43 174q123 91 201.5 149.5t170 129.5t146.5 119t114.5 104t92.5 98.5t61.5 89.5t40 89.5t11.5 86.5q0 68 -42.5 104t-115.5 36q-94 0 -170.5 -36t-144.5 -120l-129 158q124 118 242.5 162.5t267.5 44.5q164 0 253 -85t89 -233q0 -108 -43 -210.5t-136.5 -209.5 t-216.5 -212t-307 -238h500l-49 -201h-879z" />
<glyph unicode="3" horiz-adv-x="1091" d="M102 201l199 159q38 -92 97.5 -135t158.5 -43q112 0 187 58.5t100 160.5q26 103 -17 152t-161 49h-138l50 199h137q94 0 164.5 50.5t93.5 139.5q21 84 -21 139.5t-143 55.5q-96 0 -179.5 -32t-162.5 -114l-107 158q194 191 502 191q70 0 128 -15t99 -41t71.5 -62.5 t43.5 -79t16 -90.5t-10 -97q-26 -104 -88.5 -183t-146.5 -114q75 -35 106.5 -114.5t1.5 -203.5q-47 -186 -186 -297.5t-369 -111.5q-169 0 -277 61.5t-149 159.5z" />
<glyph unicode="4" horiz-adv-x="1118" d="M164 336l43 172l760 858h260l-207 -829h141l-51 -201h-141l-82 -336h-234l82 336h-571zM473 537h313l123 489z" />
<glyph unicode="5" horiz-adv-x="1165" d="M170 180l190 158q42 -93 100 -126.5t167 -33.5q103 0 180.5 71.5t107.5 188.5q29 117 -16.5 185.5t-155.5 68.5q-78 0 -144 -23.5t-128 -88.5l-152 63l224 723h768l-51 -201h-551l-99 -309q90 35 213 35q186 0 279.5 -127.5t48.5 -337.5q-45 -214 -195.5 -330 t-373.5 -116q-162 0 -259 48t-153 152z" />
<glyph unicode="6" horiz-adv-x="1191" d="M276 635q186 749 717 749q132 0 215 -38.5t142 -131.5l-185 -151q-35 69 -88 97t-135 28q-249 0 -387 -400q135 93 299 93q196 0 289.5 -128.5t40.5 -340.5q-46 -190 -193.5 -311t-363.5 -121q-250 0 -338.5 174t-12.5 481zM485 449q-28 -116 17.5 -193.5t148.5 -77.5 q106 0 187.5 71t109.5 185q30 114 -16.5 182t-157.5 68q-105 0 -182.5 -62t-106.5 -173z" />
<glyph unicode="7" horiz-adv-x="976" d="M256 0l688 1165h-606l51 201h860l-39 -154l-700 -1212h-254z" />
<glyph unicode="8" horiz-adv-x="1216" d="M211 289q0 136 81.5 248t219.5 161q-123 70 -123 222q0 111 45.5 201.5t123 148t176 88.5t208.5 31q171 0 281 -79t110 -220q0 -129 -79 -230.5t-197 -159.5q65 -32 101 -102t36 -149q0 -108 -48 -198t-129 -148.5t-185 -90.5t-218 -32q-187 0 -295 84t-108 225zM457 332 q0 -74 53.5 -114t142.5 -40q75 0 142.5 30.5t113 93.5t45.5 144q0 75 -55.5 113.5t-140.5 38.5q-38 0 -78 -9t-80 -30t-71.5 -51t-51.5 -75.5t-20 -100.5zM625 938q0 -69 52.5 -103t131.5 -34q44 0 89.5 14t88.5 41t70.5 76t27.5 112q0 68 -49.5 105t-130.5 37 q-108 0 -194 -66.5t-86 -181.5z" />
<glyph unicode="9" horiz-adv-x="1191" d="M186 160l191 153q37 -71 88.5 -104t130.5 -33q130 0 224.5 104.5t154.5 292.5q-74 -45 -141 -68.5t-152 -23.5q-148 0 -251 94.5t-103 249.5q0 111 39 212.5t109.5 180t179.5 125t239 46.5q387 0 387 -392q0 -128 -39 -307q-33 -158 -90.5 -285.5t-140 -223.5 t-195.5 -148.5t-248 -52.5q-144 0 -232.5 43.5t-150.5 136.5zM584 932q-27 -111 20.5 -179.5t147.5 -68.5q104 0 182 67.5t106 180.5q28 114 -15 184t-146 70q-108 0 -187 -68t-108 -186z" />
<glyph unicode=":" horiz-adv-x="448" d="M125 0l61 248h252l-61 -248h-252zM289 664l61 247h252l-61 -247h-252z" />
<glyph unicode=";" horiz-adv-x="448" d="M125 0l61 248h252l-53 -211l-129 -268h-129l104 231h-106zM289 664l61 247h252l-61 -247h-252z" />
<glyph unicode="&#x3c;" horiz-adv-x="1236" d="M227 420l39 151l1092 437l-53 -211l-791 -314l633 -315l-45 -191z" />
<glyph unicode="=" horiz-adv-x="1239" d="M176 201l41 166h985l-41 -166h-985zM281 616l41 172h985l-41 -172h-985z" />
<glyph unicode="&#x3e;" horiz-adv-x="1236" d="M123 -20l53 210l791 314l-633 315l45 191l874 -443l-39 -151z" />
<glyph unicode="?" horiz-adv-x="923" d="M319 0l62 248h262l-61 -248h-263zM336 1174q68 112 168.5 163.5t255.5 51.5q96 0 168.5 -27.5t113.5 -75t60.5 -103t19.5 -118.5q0 -114 -47 -212.5t-140.5 -165.5t-217.5 -79l-74 -217h-197l74 400h74q118 0 197 65t79 182q0 63 -38 103.5t-113 40.5q-67 0 -118.5 -28.5 t-92.5 -106.5z" />
<glyph unicode="@" horiz-adv-x="1613" d="M240 625q21 216 142.5 391t310 272.5t405.5 97.5q312 0 470 -167t130 -443q-12 -117 -55.5 -215t-104.5 -160.5t-131.5 -96.5t-140.5 -34q-62 0 -105 29.5t-59 77.5q-56 -51 -131.5 -79t-151.5 -28q-131 0 -201 95t-55 243q14 143 86 258.5t176.5 177.5t218.5 62 q148 0 216 -86l28 53h148l-154 -526q-2 -6 -4.5 -16.5t-4.5 -20.5t-3 -12q-3 -46 10.5 -66t50.5 -20q24 0 58 23.5t70.5 66.5t65.5 117t38 161q23 227 -104.5 356.5t-371.5 129.5q-123 0 -239.5 -48t-208 -132.5t-152.5 -207t-75 -262.5q-24 -235 106 -378.5t350 -143.5 q198 0 367 111l49 -94q-104 -65 -220.5 -99.5t-221.5 -34.5q-195 0 -339 83t-213 230.5t-50 334.5zM764 612q-8 -85 22.5 -132.5t98.5 -47.5q71 0 118.5 34.5t92.5 102.5l88 297q-26 90 -137 90q-113 0 -191 -100t-92 -244z" />
<glyph unicode="A" horiz-adv-x="1267" d="M18 0l824 1366h262l145 -1366h-250l-28 297h-498l-176 -297h-279zM606 522h342l-47 504z" />
<glyph unicode="B" horiz-adv-x="1241" d="M147 0l338 1366h557q79 0 141.5 -21t100.5 -58q40 -37 62 -87q23 -52 23 -114q0 -57 -15 -121q-48 -189 -226 -275q78 -39 102 -130q13 -48 13 -103q0 -49 -10 -103q-32 -169 -158.5 -261.5t-314.5 -92.5h-613zM457 217h276q90 0 155.5 43.5t86.5 130.5q7 28 7 54 q0 49 -26 85q-40 56 -133 56h-272zM604 801h260q89 0 151 46.5t81 123.5q9 33 9 61q1 40 -17 68q-30 50 -123 49h-273z" />
<glyph unicode="C" horiz-adv-x="1255" d="M270 741q52 205 168.5 353.5t269.5 221.5t328 73q189 0 295.5 -41t190.5 -129l-176 -179q-95 129 -314 129q-180 0 -314.5 -126.5t-191.5 -350.5q-26 -95 -26 -177v-19q4 -90 32 -157t93 -104.5t159 -37.5q92 0 169 30.5t182 112.5l122 -190q-124 -84 -247 -128.5 t-273 -44.5q-121 0 -216.5 37.5t-157.5 105.5q-63 70 -95 164q-32 93 -32 207q0 118 34 250z" />
<glyph unicode="D" horiz-adv-x="1374" d="M147 0l340 1366h476q104 0 187.5 -26.5t140.5 -75t95 -114.5t54 -148q15 -75 15 -157q-1 -8 -1 -15q-2 -90 -20 -189q-21 -108 -58 -200t-97.5 -174.5t-139.5 -140.5t-190 -92t-244 -34h-558zM457 217h250q183 0 305 126t168 339q20 80 20 151q0 17 -2 33 q-6 86 -35 148.5t-95 98.5t-163 36h-213z" />
<glyph unicode="E" horiz-adv-x="1128" d="M147 0l340 1366h879l-53 -217h-621l-86 -344h572l-54 -223h-573l-92 -365h620l-53 -217h-879z" />
<glyph unicode="F" horiz-adv-x="1091" d="M147 0l336 1366h879l-53 -217h-617l-88 -350h570l-56 -219h-567l-143 -580h-261z" />
<glyph unicode="G" horiz-adv-x="1417" d="M235 501q1 119 33 257q39 158 115.5 279.5t180 198t227 115t262.5 38.5q343 0 475 -175l-182 -178q-28 42 -66.5 70t-83 40.5t-80.5 16.5t-82 4q-191 0 -318.5 -118.5t-185.5 -352.5q-29 -114 -29 -203q0 -96 35 -163q66 -129 263 -129q180 0 288 78l64 256h-254l55 221 h518l-155 -615q-140 -83 -262 -122t-293 -39q-126 0 -225.5 37t-164 105t-100.5 164q-35 93 -35 209v6z" />
<glyph unicode="H" horiz-adv-x="1392" d="M145 0l342 1366h258l-137 -557h582l139 557h254l-340 -1366h-254l144 578h-582l-143 -578h-263z" />
<glyph unicode="I" horiz-adv-x="546" d="M147 0l338 1366h260l-337 -1366h-261z" />
<glyph unicode="J" horiz-adv-x="1009" d="M57 100l152 209q83 -100 237 -100q115 0 182 61.5t91 159.5l233 936h258l-245 -977q-103 -412 -516 -412q-269 0 -392 123z" />
<glyph unicode="K" horiz-adv-x="1239" d="M147 0l340 1366h258l-129 -524l596 524h338l-792 -696l469 -670h-305l-377 551l-139 -551h-259z" />
<glyph unicode="L" horiz-adv-x="1026" d="M147 0l340 1366h258l-286 -1149h563l-53 -217h-822z" />
<glyph unicode="M" horiz-adv-x="1605" d="M147 0l340 1366h308l125 -840l555 840h331l-340 -1366h-247l241 958l-524 -796h-180l-119 796l-242 -958h-248z" />
<glyph unicode="N" horiz-adv-x="1376" d="M147 0l340 1366h232l373 -932l229 932h248l-340 -1366h-217l-381 946l-238 -946h-246z" />
<glyph unicode="O" d="M246 526q2 96 26 199q75 315 277 489.5t508 174.5q110 0 198 -26t149.5 -74t102.5 -114.5t58 -150.5q14 -71 14 -150v-28q-3 -95 -27 -201q-73 -321 -272.5 -494.5t-509.5 -173.5q-106 0 -193 26.5t-149 75.5t-104.5 117t-61.5 151q-17 73 -17 157q1 11 1 22zM502 495 q3 -89 32.5 -153.5t98 -100.5t170.5 -36q374 0 493 481q25 100 25 181q0 97 -36 167q-66 127 -263 127q-192 0 -315.5 -124.5t-178.5 -346.5q-26 -96 -26 -178v-17z" />
<glyph unicode="P" horiz-adv-x="1228" d="M147 0l340 1366h521q82 0 146.5 -27.5t103.5 -74.5q38 -48 61 -110q23 -61 22 -130q0 -71 -14 -147q-38 -173 -164 -273t-325 -100h-306l-126 -504h-259zM590 731h241q192 0 242 191q9 37 9 69q0 53 -24 93q-39 65 -132 65h-234z" />
<glyph unicode="Q" d="M246 526q2 96 26 199q75 315 277 489.5t508 174.5q110 0 198 -26t149.5 -74t102.5 -114.5t58 -150.5q14 -70 14 -150v-28q-3 -95 -27 -201q-59 -259 -202.5 -423.5t-362.5 -219.5l37 -238h-215l-33 213h-6q-106 0 -193 26.5t-149 75.5t-104.5 117t-61.5 151 q-17 73 -17 157q0 11 1 22zM504 454q6 -102 66.5 -168.5t170.5 -80.5l-28 198h217l24 -178q250 85 342 461q25 100 25 181q0 98 -36 167q-66 127 -263 127q-192 0 -315.5 -124.5t-178.5 -346.5q-26 -110 -26 -199q0 -19 2 -37z" />
<glyph unicode="R" horiz-adv-x="1232" d="M147 0l340 1366h521q185 0 278 -132q60 -86 61 -202q0 -62 -18 -133q-22 -88 -60.5 -156t-87.5 -110t-100.5 -66t-109.5 -35l155 -532h-274l-131 500h-189l-126 -500h-259zM590 729h231q90 0 157.5 49.5t92.5 149.5q10 39 10 72q0 54 -26 90q-42 60 -129 59h-234z" />
<glyph unicode="S" horiz-adv-x="1155" d="M111 176l168 193q53 -65 144.5 -112.5t221.5 -47.5q140 0 206.5 58t66.5 136q0 75 -41.5 114.5t-139.5 72.5l-82 26q-160 54 -234.5 131t-74.5 199q0 196 138 319.5t390 123.5q161 0 277.5 -42t208.5 -126l-174 -189q-98 129 -303 129q-121 0 -191.5 -41t-70.5 -121 q0 -59 48.5 -94t157.5 -71l64 -21q143 -48 218 -129.5t75 -222.5q0 -101 -32 -186.5t-96 -153t-169.5 -106t-241.5 -38.5q-104 0 -192 18t-152.5 50.5t-106 62t-83.5 68.5z" />
<glyph unicode="T" horiz-adv-x="1103" d="M340 1149l55 217h994l-56 -217h-368l-285 -1149h-260l285 1149h-365z" />
<glyph unicode="U" horiz-adv-x="1357" d="M274 510l213 856h258l-210 -854q-19 -78 -19 -135q0 -61 22 -99q44 -72 187 -73q142 0 227 74t125 233l213 854h262l-219 -885q-65 -261 -217 -382.5t-416 -121.5q-266 0 -378 139q-71 88 -71 223q0 78 23 171z" />
<glyph unicode="V" horiz-adv-x="1294" d="M375 1366h250l96 -1006l592 1006h286l-831 -1366h-246z" />
<glyph unicode="W" horiz-adv-x="1742" d="M375 1366h250l-4 -969l423 815l230 2l33 -817l469 969h272l-678 -1366h-272l-29 795l-410 -795h-258z" />
<glyph unicode="X" horiz-adv-x="1333" d="M20 0l670 705l-287 661h297l179 -461l409 461h342l-639 -690l314 -676h-299l-207 467l-430 -467h-349z" />
<glyph unicode="Y" horiz-adv-x="1275" d="M369 1366h264l184 -551l467 551h303l-680 -786l-143 -580h-254l143 582z" />
<glyph unicode="Z" horiz-adv-x="1146" d="M92 0l43 176l848 973h-604l53 217h952l-45 -178l-850 -971h623l-53 -217h-967z" />
<glyph unicode="[" horiz-adv-x="561" d="M-8 -408l446 1797h408l-41 -162h-209l-367 -1471h209l-41 -164h-405z" />
<glyph unicode="\" horiz-adv-x="751" d="M389 1425h193l118 -1486h-192z" />
<glyph unicode="]" horiz-adv-x="559" d="M-39 -410l39 164h207l366 1473h-206l41 162h405l-448 -1799h-404z" />
<glyph unicode="^" horiz-adv-x="1218" d="M246 553l620 813h172l209 -813h-213l-131 557l-405 -557h-252z" />
<glyph unicode="_" horiz-adv-x="1155" d="M-68 -287l35 144h1192l-35 -144h-1192z" />
<glyph unicode="`" horiz-adv-x="655" d="M414 1409h223l209 -274h-162z" />
<glyph unicode="a" horiz-adv-x="1056" d="M147 242q0 85 24 151t64.5 108.5t97 70t117 38.5t130.5 11h262l8 30q6 24 6 47q0 60 -48 91.5t-132 31.5q-182 0 -268 -71l-82 170q130 94 395 94q164 -2 269.5 -76.5t105.5 -214.5q0 -29 -25 -137l-145 -586h-201l2 74q-121 -97 -281 -97q-132 0 -215.5 73t-83.5 192z M395 285q0 -51 37 -80t103 -29q84 0 147.5 34t83.5 112l29 114h-197q-87 0 -145 -35.5t-58 -115.5z" />
<glyph unicode="b" horiz-adv-x="1159" d="M139 0l357 1432h237l-112 -453q119 35 215 35q181 0 272.5 -104t91.5 -283q0 -128 -31.5 -235t-85.5 -182t-127 -127.5t-156 -77.5t-173 -25q-72 0 -148.5 23.5t-111.5 68.5l-37 -72h-191zM473 385q-8 -31 -8 -58q0 -49 25 -83q39 -54 133 -54q118 0 201.5 75.5 t119.5 223.5q18 72 18 128q0 67 -25 113q-46 85 -173 85q-97 0 -199 -51z" />
<glyph unicode="c" horiz-adv-x="1050" d="M204 329q-5 33 -5 67q0 73 22 151q57 222 211.5 344.5t378.5 122.5q288 0 383 -178l-180 -146q-17 38 -43 62.5t-57.5 35t-57 14t-59.5 3.5q-119 0 -214 -85t-124 -220q-13 -61 -14 -110q0 -72 29 -120q48 -80 173 -80q66 0 130.5 25t142.5 90l114 -190 q-97 -70 -196.5 -102.5t-225.5 -32.5q-118 0 -208 45.5t-137.5 123t-62.5 180.5z" />
<glyph unicode="d" horiz-adv-x="1155" d="M227 547q56 227 212 347t376 120q107 0 211 -31l113 449h237l-356 -1432h-195l2 76q-143 -96 -272 -96q-215 0 -303 156q-51 92 -51 217q0 89 26 194zM461 506q-16 -70 -16 -124q0 -187 184 -187q94 0 159.5 54t88.5 140l96 373q-85 43 -182 43q-123 0 -211.5 -82 t-118.5 -217z" />
<glyph unicode="e" horiz-adv-x="1144" d="M220 255q-16 63 -16 133q0 71 17 151q45 221 193.5 349t380.5 128q99 0 176.5 -26t124.5 -72q48 -46 74 -112q26 -63 26 -139v-6q-1 -79 -22 -169l-17 -76h-713q-5 -28 -5 -54q-1 -71 39 -118q54 -64 173 -64q66 0 143.5 21t135.5 67l104 -184q-110 -57 -201.5 -82 t-209.5 -25q-162 0 -266.5 76t-136.5 202zM483 610h475q5 28 5 53q0 62 -34 101q-48 55 -157 55q-112 0 -185.5 -56t-103.5 -153z" />
<glyph unicode="f" horiz-adv-x="749" d="M203 0l196 797h-133l49 196h134l43 162q34 133 130 212t232 79q189 0 256 -86l-125 -176q-32 61 -127 61q-108 0 -137 -117l-35 -135h238l-50 -196h-237l-197 -797h-237z" />
<glyph unicode="g" horiz-adv-x="1153" d="M76 -285l147 170q29 -45 74 -71t82.5 -33t85.5 -8q56 0 103.5 13.5t77.5 35.5t54 48t36 52.5t20 48.5t10 35l2 14q-98 -36 -207 -36q-95 0 -166.5 30.5t-113 83.5t-61.5 124q-20 67 -20 142v10q2 81 23 169q58 229 200 351t365 122q70 0 139 -23t105 -75l31 75h201 l-258 -1034q-41 -174 -174.5 -277.5t-364.5 -103.5q-270 0 -391 137zM461 514q-19 -77 -19 -137q0 -63 22 -107q41 -84 167 -84q88 0 203 45l100 387q9 34 9 64q0 50 -26 85q-41 56 -139 56q-118 0 -199 -80.5t-118 -228.5z" />
<glyph unicode="h" horiz-adv-x="1107" d="M139 0l357 1432h237l-112 -451q124 33 225 33q164 0 246 -103q55 -69 55 -165q0 -48 -14 -103l-156 -643h-236l154 627q10 38 10 67q1 46 -23 72q-38 43 -122 43q-122 0 -199 -64l-184 -745h-238z" />
<glyph unicode="i" horiz-adv-x="516" d="M139 0l248 993h238l-248 -993h-238zM424 1143l55 223h238l-55 -223h-238z" />
<glyph unicode="j" horiz-adv-x="542" d="M-184 -350l116 194q47 -53 121 -53q32 0 64.5 20.5t44.5 67.5l276 1114h236l-279 -1118q-74 -297 -348 -297q-146 0 -231 72zM475 1141l57 225h236l-57 -225h-236z" />
<glyph unicode="k" horiz-adv-x="1030" d="M139 0l357 1432h237l-182 -742l401 303h312l-590 -465l350 -528h-276l-265 416l-106 -416h-238z" />
<glyph unicode="l" horiz-adv-x="540" d="M197 276l290 1156h238l-287 -1137q-5 -17 -5 -31q1 -26 17 -46q24 -30 109 -30l-86 -200q-74 0 -129.5 15t-87.5 41q-34 26 -52 62t-18 77q0 43 11 93z" />
<glyph unicode="m" horiz-adv-x="1673" d="M139 0l246 993h199l-4 -84q119 107 272 107q179 0 235 -127q148 122 334 125h6q88 0 151 -30q65 -30 95 -82q31 -53 39 -123q2 -20 2 -40q0 -52 -16 -108l-156 -631h-237l155 625q7 27 7 51q-1 44 -25 75q-38 48 -119 48q-75 0 -129 -39t-72 -113l-161 -647h-238l154 633 q6 25 6 46q0 44 -26 75q-39 45 -118 45q-73 0 -127.5 -40.5t-74.5 -115.5l-160 -643h-238z" />
<glyph unicode="n" horiz-adv-x="1114" d="M139 0l246 993h201l-8 -78q67 55 131.5 77t154.5 22q167 0 242 -114q48 -73 48 -170q0 -54 -15 -114l-156 -616h-235l145 600q9 37 9 68q0 50 -26 82q-42 50 -126 51q-81 0 -137.5 -39t-77.5 -121l-160 -641h-236z" />
<glyph unicode="o" horiz-adv-x="1185" d="M219 543q52 228 205.5 350.5t380.5 122.5q101 0 180.5 -27.5t130 -78t80 -120.5t31.5 -156q0 -8 1 -16q0 -78 -18 -167q-49 -231 -204 -352.5t-385 -121.5q-234 1 -347 157q-75 103 -75 248q0 75 20 161zM461 512q-14 -63 -14 -115q-1 -71 25 -122q44 -89 169 -89 q126 0 209 75.5t119 217.5q16 63 16 115q1 68 -27 120q-48 90 -172 91q-131 0 -212 -77t-113 -216z" />
<glyph unicode="p" horiz-adv-x="1157" d="M37 -408l348 1401h199l-6 -80q130 103 274 103q111 0 188.5 -44.5t113.5 -121.5t45 -181q2 -27 2 -54q0 -81 -19 -169q-42 -218 -187.5 -342t-351.5 -124q-166 0 -252 40l-117 -428h-237zM436 233q75 -45 180 -45q120 0 206 78.5t114 204.5q16 71 16 129q0 67 -22 116 q-41 89 -158 89q-96 0 -157.5 -52t-84.5 -139z" />
<glyph unicode="q" horiz-adv-x="1155" d="M202 320q-2 27 -2 56q0 78 21 165q51 232 199 352.5t356 120.5q76 0 148.5 -22t109.5 -74l33 75h199l-348 -1401h-238l108 422q-130 -37 -208 -37q-118 0 -202 44t-124.5 120t-51.5 179zM461 502q-15 -71 -15 -127q0 -69 23 -114q41 -81 166 -81q101 0 205 56l92 372 q8 29 8 55q0 49 -28 86q-41 56 -136 56q-126 0 -205.5 -79t-109.5 -224z" />
<glyph unicode="r" horiz-adv-x="821" d="M139 0l246 993h199l-6 -86q107 107 243 107q131 0 207 -76l-125 -205q-51 60 -151 60q-81 0 -143 -46t-85 -141l-149 -606h-236z" />
<glyph unicode="s" horiz-adv-x="952" d="M84 102l135 185q42 -46 120.5 -74.5t154.5 -28.5q88 0 146 26t58 85q0 17 -5 30.5t-20 25t-24.5 18.5t-36 15.5t-36 11.5t-41.5 12q-50 13 -86.5 26t-76 35t-64.5 48.5t-41.5 65.5t-16.5 87q0 165 121 255.5t327 90.5q238 0 371 -113l-125 -180q-38 45 -109 66.5 t-141 21.5q-194 0 -194 -100q0 -27 21 -45.5t41.5 -25.5t72.5 -21l6 -1.5t5.5 -1.5t6.5 -2q62 -16 108.5 -36.5t91 -53t68 -82t23.5 -114.5q0 -91 -36 -160.5t-99 -110t-140.5 -60.5t-168.5 -20q-264 0 -416 125z" />
<glyph unicode="t" horiz-adv-x="749" d="M248 797l49 196h152l59 236h237l-59 -236h221l-49 -196h-221l-121 -516q-5 -18 -5 -33q1 -20 9 -34q14 -26 49 -26q61 3 133 43l5 -206q-111 -48 -234 -48q-129 0 -184 81q-36 52 -36 122q0 38 11 82l135 535h-151z" />
<glyph unicode="u" horiz-adv-x="1110" d="M219 352l158 641h237l-153 -616q-9 -35 -9 -64q0 -118 152 -118q82 0 142 42t81 125l156 631h238l-246 -993h-199l4 78q-138 -101 -284 -101h-3q-167 1 -241 103q-48 66 -48 159q0 52 15 113z" />
<glyph unicode="v" horiz-adv-x="1056" d="M274 993h236l82 -684l418 684h264l-631 -993h-223z" />
<glyph unicode="w" horiz-adv-x="1521" d="M276 993h236l39 -671l344 671h211l31 -674l354 674h246l-555 -993h-250l-17 596l-303 -596h-260z" />
<glyph unicode="x" horiz-adv-x="1062" d="M29 0l501 508l-237 485h264l139 -299l273 299h297l-473 -487l245 -506h-274l-143 311l-289 -311h-303z" />
<glyph unicode="y" horiz-adv-x="1048" d="M10 -399l80 215q40 -27 115 -27q74 0 135 96l90 154l-158 954h238l96 -690l393 690h265l-725 -1202q-70 -112 -153 -162.5t-206 -50.5q-30 0 -85.5 6.5t-84.5 16.5z" />
<glyph unicode="z" horiz-adv-x="974" d="M82 0l37 154l622 643h-454l49 196h790l-36 -153l-627 -643h477l-47 -197h-811z" />
<glyph unicode="{" horiz-adv-x="630" d="M168 -115l104 422q12 48 -10 77.5t-88 29.5l39 157q66 0 103 30t49 77l114 446q66 265 342 265h105l-41 -162h-92q-39 0 -69.5 -24.5t-43.5 -76.5l-117 -467q-15 -57 -54 -106t-99 -72q51 -22 67 -75t-2 -109l-110 -430q-13 -53 0.5 -81t48.5 -28h104l-41 -164h-96 q-135 0 -191 78t-22 213z" />
<glyph unicode="|" horiz-adv-x="495" d="M86 -266l442 1773h189l-443 -1773h-188z" />
<glyph unicode="}" horiz-adv-x="630" d="M-51 -406l41 162h92q39 0 69.5 24.5t43.5 76.5l116 467q15 57 54.5 106t99.5 72q-51 22 -67.5 75t1.5 109l111 430q13 53 -0.5 81t-48.5 28h-105l41 164h97q135 0 191 -78t22 -213l-105 -422q-12 -48 10 -77.5t88 -29.5l-38 -157q-66 0 -103 -30t-49 -77l-115 -446 q-66 -265 -342 -265h-104z" />
<glyph unicode="~" horiz-adv-x="1265" d="M260 580q53 146 150.5 221.5t226.5 75.5q146 0 258 -121q57 -64 104 -64q119 0 179 185l155 -86q-50 -149 -146 -224t-222 -75q-141 0 -244 116q-63 70 -115 70q-57 0 -103 -51t-75 -138z" />
<glyph unicode="&#xa1;" horiz-adv-x="466" d="M82 0l276 975h199l-209 -975h-266zM360 1118l62 248h262l-61 -248h-263z" />
<glyph unicode="&#xa2;" horiz-adv-x="1042" d="M235 540q-7 94 21 197q52 206 190.5 333t350.5 147l37 149h174l-37 -147q184 -19 264 -177l-184 -129q-40 87 -129 113l-156 -633q90 27 190 117l115 -145q-101 -84 -182.5 -122.5t-173.5 -49.5l-39 -152h-174l39 154q-96 9 -165 56.5t-101.5 121t-39.5 167.5zM471 564 q1 -65 32.5 -112.5t88.5 -58.5l156 631q-90 -16 -160.5 -108t-100.5 -211q-17 -76 -16 -141z" />
<glyph unicode="&#xa3;" horiz-adv-x="1089" d="M158 154q292 132 297 370h-238l43 170h148q-11 32 -17.5 89t-5.5 100q7 243 141.5 373t370.5 130q72 0 130 -11t110.5 -36t91.5 -71.5t61 -112.5l-211 -125q-26 83 -71.5 117.5t-128.5 34.5q-108 0 -177 -76.5t-69 -222.5q0 -87 39 -189h307l-43 -170h-236v-8 q0 -58 -36.5 -138.5t-92.5 -139.5q53 -2 126 -31t112 -29q41 0 100 37.5t105 85.5l59 -205q-139 -114 -309 -114q-56 0 -151.5 35.5t-153.5 35.5q-79 0 -250 -82z" />
<glyph unicode="&#xa4;" horiz-adv-x="970" d="M246 424l143 143q-39 70 -39 154q0 83 39 156l-143 143l114 123l148 -148q70 37 156 37q64 0 151 -37l148 148l118 -121l-143 -143q41 -64 41 -158q0 -92 -41 -156l143 -143l-118 -119l-146 146q-70 -37 -153 -37q-88 0 -156 39l-148 -148zM514 721q0 -63 43.5 -106.5 t106.5 -43.5t105 43.5t42 106.5t-42 107t-105 44t-106.5 -44t-43.5 -107z" />
<glyph unicode="&#xa5;" horiz-adv-x="1249" d="M238 291l43 170h331l31 125h-332l43 172h252l-250 608h269l200 -528l463 528h285l-559 -608h256l-43 -172h-334l-31 -125h334l-43 -170h-334l-71 -291h-250l71 291h-331z" />
<glyph unicode="&#xa6;" horiz-adv-x="491" d="M137 -63l160 643h184l-159 -643h-185zM348 784l160 643h184l-160 -643h-184z" />
<glyph unicode="&#xa7;" horiz-adv-x="972" d="M76 0l166 172q76 -135 258 -135q81 0 131.5 32t50.5 95q0 31 -25 55t-65 40.5t-88.5 32.5t-97.5 37t-89 48.5t-65 72t-25 101.5q0 119 70.5 191.5t185.5 115.5q-47 34 -74.5 86t-27.5 109q0 155 120 244t314 89q141 0 232 -31.5t147 -103.5l-158 -161q-42 60 -100.5 79 t-132.5 19q-36 0 -72 -9t-67 -34.5t-31 -63.5q0 -33 32 -58t80.5 -38.5t104.5 -34t104.5 -44t80.5 -69.5t32 -108q0 -43 -10 -82q-18 -74 -76 -140t-139 -110q94 -73 94 -188q0 -39 -8 -72q-76 -301 -457 -301q-131 0 -236.5 44t-158.5 120zM481 604q0 -93 185 -133 q123 53 149 156q2 8 2 22t-5 26.5t-10.5 21t-18 18t-19.5 14t-23.5 11.5t-22 9t-22.5 7l-18 6q-95 -11 -146 -55.5t-51 -102.5z" />
<glyph unicode="&#xa8;" horiz-adv-x="657" d="M346 1159l49 197h201l-49 -197h-201zM707 1159l49 197h200l-49 -197h-200z" />
<glyph unicode="&#xa9;" horiz-adv-x="1605" d="M256 684q0 143 56.5 273t151.5 224t226.5 149.5t276.5 55.5q203 0 365 -91.5t252.5 -252t90.5 -358.5q0 -193 -91.5 -354t-254.5 -255.5t-362 -94.5q-150 0 -282 53t-226 145.5t-148.5 223.5t-54.5 282zM397 684q0 -124 45 -232.5t121.5 -184.5t181.5 -119.5t222 -43.5 q155 0 286 78t207 211.5t76 290.5q0 156 -76 289.5t-207 212t-286 78.5t-286.5 -78.5t-207.5 -212t-76 -289.5zM553 684q0 199 117.5 324t302.5 125q206 0 332 -154l-111 -121q-86 125 -219 125q-111 0 -179.5 -80t-68.5 -217q0 -143 64.5 -218t181.5 -75q56 0 118 33 t105 94l115 -121q-168 -161 -338 -161q-187 0 -303.5 121.5t-116.5 324.5z" />
<glyph unicode="&#xaa;" horiz-adv-x="710" d="M297 940q25 96 103 140t186 44h164l6 25q14 56 -12 87.5t-93 31.5q-105 0 -188 -74l-53 104q61 47 126 64.5t154 17.5q113 0 169 -57.5t28 -171.5l-109 -432h-106l2 47q-96 -61 -201 -61q-95 0 -149 64.5t-27 170.5zM426 920q-12 -48 16.5 -74.5t85.5 -26.5q62 0 111 29 t63 88l21 76h-148q-56 0 -97 -23.5t-52 -68.5z" />
<glyph unicode="&#xab;" horiz-adv-x="942" d="M141 485l359 375h196l-336 -377l146 -379h-195zM549 485l358 375h197l-336 -377l145 -379h-194z" />
<glyph unicode="&#xac;" horiz-adv-x="1232" d="M311 741l41 170h979l-145 -587h-191l105 417h-789z" />
<glyph unicode="&#xad;" horiz-adv-x="673" d="M205 510l45 186h518l-45 -186h-518z" />
<glyph unicode="&#xae;" horiz-adv-x="917" d="M322 1034q0 150 103 253.5t253 103.5q152 0 255 -103t103 -254q0 -149 -103.5 -251.5t-254.5 -102.5t-253.5 102.5t-102.5 251.5zM375 1034q0 -128 87.5 -215.5t215.5 -87.5t215.5 87.5t87.5 215.5t-87.5 215.5t-215.5 87.5t-215.5 -87.5t-87.5 -215.5zM537 821v428h180 q59 0 95 -36t36 -97q0 -57 -26.5 -88t-59.5 -39l76 -168h-86l-70 158h-66v-158h-79zM616 1053h93q25 0 41 17.5t16 45.5q0 26 -16 44t-41 18h-93v-125z" />
<glyph unicode="&#xaf;" horiz-adv-x="655" d="M360 1184l35 143h531l-35 -143h-531z" />
<glyph unicode="&#xb0;" horiz-adv-x="557" d="M322 1171q0 91 62.5 154.5t152.5 63.5q91 0 154 -63.5t63 -154.5t-63 -153t-154 -62t-153 62t-62 153zM430 1171q0 -44 31.5 -75t75.5 -31t76 31t32 75q0 46 -30 77.5t-78 31.5q-44 0 -75.5 -32.5t-31.5 -76.5z" />
<glyph unicode="&#xb1;" horiz-adv-x="1243" d="M129 0l41 168h985l-41 -168h-985zM287 635l41 168h397l84 338h188l-84 -338h398l-41 -168h-398l-86 -344h-188l86 344h-397z" />
<glyph unicode="&#xb2;" horiz-adv-x="737" d="M229 551l29 123q275 191 379.5 279t124.5 167q13 55 -12.5 83t-85.5 28q-101 0 -168 -70l-93 107q77 66 151 88t163 22q126 0 182 -73.5t29 -180.5t-121.5 -201.5t-278.5 -226.5h297l-34 -145h-562z" />
<glyph unicode="&#xb3;" horiz-adv-x="724" d="M225 664l129 98q8 -24 22.5 -40.5t28.5 -25t36 -12.5t37.5 -5t41.5 -1q69 0 112 32.5t56 86.5q13 51 -16.5 75.5t-98.5 24.5h-86l37 141h94q56 0 94 23t50 69q11 46 -16 75.5t-91 29.5q-118 0 -200 -82l-80 111q62 62 141.5 87t183.5 25q121 0 186 -68t38 -175 q-28 -113 -133 -164q39 -24 56.5 -70.5t0.5 -112.5q-27 -110 -124.5 -180.5t-236.5 -70.5q-74 0 -127.5 19.5t-81 44.5t-53.5 65z" />
<glyph unicode="&#xb4;" horiz-adv-x="655" d="M387 1135l258 276h244l-324 -276h-178z" />
<glyph unicode="&#xb5;" horiz-adv-x="1122" d="M61 -305l324 1298h236l-158 -633q-24 -98 15 -138t124 -40q82 0 147 44.5t85 123.5l159 643h236l-246 -993h-207l10 96q-122 -116 -266 -116q-106 0 -153 38l-64 -323h-242z" />
<glyph unicode="&#xb6;" horiz-adv-x="1062" d="M288 865q-10 74 13 155q39 160 159 253t277 93h547l-391 -1571h-174l352 1419h-125l-352 -1419h-176l203 817h-68q-76 0 -134.5 33t-89.5 89.5t-41 130.5z" />
<glyph unicode="&#xb7;" horiz-adv-x="518" d="M262 524l62 248h251l-61 -248h-252z" />
<glyph unicode="&#xb8;" horiz-adv-x="655" d="M0 -385l78 102q41 -41 127 -41q42 0 82 19t47 51q8 29 -7.5 52.5t-45.5 23.5q-55 0 -91 -31l-79 59l145 177h135l-86 -107q14 2 45 2q81 0 123.5 -55.5t24.5 -128.5q-20 -83 -93 -130.5t-182 -47.5q-156 0 -223 55z" />
<glyph unicode="&#xb9;" horiz-adv-x="450" d="M313 551l166 672h-129l37 143h295l-203 -815h-166z" />
<glyph unicode="&#xba;" horiz-adv-x="829" d="M332 971q0 183 110.5 298t282.5 115q129 0 196.5 -73t67.5 -187q0 -110 -45 -203.5t-135.5 -152.5t-210.5 -59q-129 0 -197.5 74t-68.5 188zM465 969q0 -65 37.5 -104.5t107.5 -39.5q106 0 178 84t72 215q0 67 -38.5 105.5t-108.5 38.5q-110 0 -179 -83.5t-69 -215.5z " />
<glyph unicode="&#xbb;" horiz-adv-x="942" d="M76 104l336 377l-146 379h195l170 -381l-359 -375h-196zM483 104l336 377l-145 379h194l170 -381l-358 -375h-197z" />
<glyph unicode="&#xbc;" horiz-adv-x="1378" d="M133 0l1167 1366h168l-1169 -1366h-166zM313 551l166 672h-129l37 143h295l-203 -815h-166zM745 203l31 125l471 487h172l-119 -471h93l-35 -141h-92l-49 -203h-156l49 203h-365zM954 344h191l69 272z" />
<glyph unicode="&#xbd;" horiz-adv-x="1515" d="M133 0l1167 1366h168l-1169 -1366h-166zM313 551l166 672h-129l37 143h295l-203 -815h-166zM870 0l29 123q275 191 379.5 279t124.5 167q13 55 -13 83t-85 28q-101 0 -168 -70l-93 107q77 66 151 88t163 22q126 0 182 -73.5t29 -180.5q-14 -56 -47 -108.5t-91 -107 t-116 -100.5t-150 -112h301l-34 -145h-562z" />
<glyph unicode="&#xbe;" horiz-adv-x="1619" d="M233 678l129 98q8 -24 22.5 -40.5t28.5 -25t36 -12.5t37.5 -5t41.5 -1q69 0 112 32.5t56 86.5q13 51 -16 75.5t-98 24.5h-86l36 142h95q57 0 96.5 26.5t46.5 75.5q6 46 -18 70t-88 24q-119 0 -201 -82l-80 111q113 113 326 113q121 0 185.5 -68.5t37.5 -175.5 q-28 -113 -133 -164q39 -24 56.5 -70t0.5 -112q-27 -110 -124 -181t-236 -71q-106 0 -164.5 34t-98.5 95zM375 0l1167 1366h168l-1169 -1366h-166zM987 203l31 125l471 487h172l-119 -471h92l-35 -141h-92l-49 -203h-155l49 203h-365zM1196 344h190l70 272z" />
<glyph unicode="&#xbf;" horiz-adv-x="923" d="M141 301q0 114 47 212.5t141 165.5t218 79l74 217h196l-74 -400h-73q-118 0 -197.5 -65t-79.5 -182q0 -63 38.5 -103.5t113.5 -40.5q67 0 118.5 28.5t92.5 106.5l172 -126q-68 -112 -168.5 -164t-255.5 -52q-96 0 -169 27.5t-114 75t-60.5 103t-19.5 118.5zM621 1120 l61 248h262l-61 -248h-262z" />
<glyph unicode="&#xc0;" horiz-adv-x="1267" d="M18 0l824 1366h262l145 -1366h-250l-28 297h-498l-176 -297h-279zM606 522h342l-47 504zM742 1763h223l209 -274h-162z" />
<glyph unicode="&#xc1;" horiz-adv-x="1267" d="M18 0l824 1366h262l145 -1366h-250l-28 297h-498l-176 -297h-279zM606 522h342l-47 504zM780 1489l258 276h244l-324 -276h-178z" />
<glyph unicode="&#xc2;" horiz-adv-x="1267" d="M18 0l824 1366h262l145 -1366h-250l-28 297h-498l-176 -297h-279zM606 522h342l-47 504zM661 1489l293 325h182l148 -325h-158l-104 174l-179 -174h-182z" />
<glyph unicode="&#xc3;" horiz-adv-x="1267" d="M18 0l824 1366h262l145 -1366h-250l-28 297h-498l-176 -297h-279zM606 522h342l-47 504zM651 1569q37 99 101.5 154t148.5 55q57 0 89 -17.5t65 -52.5q2 -2 7.5 -8t7.5 -8l7 -7l7 -7t7 -5.5t8 -5t8 -3.5t9.5 -2.5t9.5 -0.5q66 0 103 115l119 -70q-36 -98 -100 -152.5 t-146 -54.5q-35 0 -65 13.5t-44 26t-35 36.5q-16 17 -24.5 25t-22.5 15t-30 7q-34 0 -62.5 -34t-48.5 -91z" />
<glyph unicode="&#xc4;" horiz-adv-x="1267" d="M18 0l824 1366h262l145 -1366h-250l-28 297h-498l-176 -297h-279zM606 522h342l-47 504zM715 1511l49 197h201l-49 -197h-201zM1076 1511l49 197h200l-49 -197h-200z" />
<glyph unicode="&#xc5;" horiz-adv-x="1267" d="M18 0l824 1366h262l145 -1366h-250l-28 297h-498l-176 -297h-279zM606 522h342l-47 504zM844 1681q0 88 59.5 148.5t147.5 60.5t149.5 -60.5t61.5 -148.5q0 -86 -61.5 -145t-149.5 -59t-147.5 59t-59.5 145zM965 1681q0 -37 25.5 -62.5t60.5 -25.5q38 0 63 25.5t25 62.5 q0 39 -25 66t-63 27q-35 0 -60.5 -27.5t-25.5 -65.5z" />
<glyph unicode="&#xc6;" horiz-adv-x="1906" d="M29 0l1179 1366h936l-53 -217h-627l-88 -350h580l-53 -213h-580l-92 -369h627l-54 -217h-878l75 311h-403l-262 -311h-307zM778 522h277l123 490z" />
<glyph unicode="&#xc7;" horiz-adv-x="1255" d="M237.5 458.5q-7.5 131.5 32.5 282.5q52 205 168.5 353.5t269.5 221.5t328 73q189 0 295.5 -41t190.5 -129l-176 -179q-95 129 -314 129q-180 0 -314.5 -126.5t-191.5 -350.5q-29 -106 -25.5 -196.5t31.5 -157t93 -104t159 -37.5q92 0 169 30.5t182 112.5l122 -190 q-231 -160 -477 -170l-47 -60q14 2 45 2q81 0 123.5 -55.5t24.5 -128.5q-20 -81 -100 -129.5t-191 -48.5q-77 0 -124.5 10.5t-82.5 44.5l78 102q41 -41 127 -41q42 0 82 19t47 51q8 29 -7.5 52.5t-45.5 23.5q-55 0 -91 -31l-79 59l108 134q-127 16 -218.5 80t-137.5 163.5 t-53.5 231z" />
<glyph unicode="&#xc8;" horiz-adv-x="1128" d="M147 0l340 1366h879l-53 -217h-621l-86 -344h572l-54 -223h-573l-92 -365h620l-53 -217h-879zM719 1763h223l209 -274h-162z" />
<glyph unicode="&#xc9;" horiz-adv-x="1128" d="M147 0l340 1366h879l-53 -217h-621l-86 -344h572l-54 -223h-573l-92 -365h620l-53 -217h-879zM799 1489l258 276h244l-324 -276h-178z" />
<glyph unicode="&#xca;" horiz-adv-x="1128" d="M147 0l340 1366h879l-53 -217h-621l-86 -344h572l-54 -223h-573l-92 -365h620l-53 -217h-879zM659 1489l293 325h182l148 -325h-158l-104 174l-179 -174h-182z" />
<glyph unicode="&#xcb;" horiz-adv-x="1128" d="M147 0l340 1366h879l-53 -217h-621l-86 -344h572l-54 -223h-573l-92 -365h620l-53 -217h-879zM678 1511l49 197h201l-49 -197h-201zM1039 1511l49 197h200l-49 -197h-200z" />
<glyph unicode="&#xcc;" horiz-adv-x="546" d="M147 0l338 1366h260l-337 -1366h-261zM379 1763h223l209 -274h-162z" />
<glyph unicode="&#xcd;" horiz-adv-x="546" d="M147 0l338 1366h260l-337 -1366h-261zM489 1489l258 276h244l-324 -276h-178z" />
<glyph unicode="&#xce;" horiz-adv-x="546" d="M147 0l338 1366h260l-337 -1366h-261zM327 1489l293 325h182l148 -325h-158l-104 174l-179 -174h-182z" />
<glyph unicode="&#xcf;" horiz-adv-x="546" d="M147 0l338 1366h260l-337 -1366h-261zM377 1511l49 197h201l-49 -197h-201zM738 1511l49 197h200l-49 -197h-200z" />
<glyph unicode="&#xd0;" horiz-adv-x="1431" d="M193 580l47 188h166l149 598h475q104 0 187.5 -26.5t140.5 -75t95 -115t54 -148t14.5 -171.5t-20.5 -189q-21 -108 -58 -200t-97.5 -174.5t-139.5 -140.5t-190 -92t-244 -34h-557l143 580h-165zM524 217h250q183 0 305 126t168 339q24 98 18.5 183.5t-34.5 148.5t-95 99 t-163 36h-213l-96 -381h288l-47 -188h-291z" />
<glyph unicode="&#xd1;" horiz-adv-x="1376" d="M147 0l340 1366h232l373 -932l229 932h248l-340 -1366h-217l-381 946l-238 -946h-246zM725 1569q37 99 101.5 153.5t148.5 54.5q57 0 88.5 -17t64.5 -52q17 -18 23 -24.5t20.5 -14.5t28.5 -8q66 0 102 114l119 -69q-36 -98 -100 -152.5t-146 -54.5q-35 0 -65 13.5 t-43.5 26t-34.5 36.5q-15 16 -24.5 24.5t-23.5 15.5t-30 7q-34 0 -62.5 -34t-48.5 -91z" />
<glyph unicode="&#xd2;" d="M245.5 526q2.5 96 26.5 199q75 315 277 489.5t508 174.5q110 0 198 -26t149.5 -74t102.5 -114.5t58 -150t14 -178.5t-27 -201q-73 -321 -272.5 -494.5t-509.5 -173.5q-106 0 -193 26.5t-149 75.5t-104.5 117t-61.5 151t-16.5 179zM502 495q3 -89 32.5 -153.5t98 -100.5 t170.5 -36q374 0 493 481q55 221 -11 348t-263 127q-192 0 -315.5 -124.5t-178.5 -346.5q-29 -106 -26 -195zM903 1763h223l209 -274h-162z" />
<glyph unicode="&#xd3;" d="M245.5 526q2.5 96 26.5 199q75 315 277 489.5t508 174.5q110 0 198 -26t149.5 -74t102.5 -114.5t58 -150t14 -178.5t-27 -201q-73 -321 -272.5 -494.5t-509.5 -173.5q-106 0 -193 26.5t-149 75.5t-104.5 117t-61.5 151t-16.5 179zM502 495q3 -89 32.5 -153.5t98 -100.5 t170.5 -36q374 0 493 481q55 221 -11 348t-263 127q-192 0 -315.5 -124.5t-178.5 -346.5q-29 -106 -26 -195zM895 1489l258 276h244l-324 -276h-178z" />
<glyph unicode="&#xd4;" d="M245.5 526q2.5 96 26.5 199q75 315 277 489.5t508 174.5q110 0 198 -26t149.5 -74t102.5 -114.5t58 -150t14 -178.5t-27 -201q-73 -321 -272.5 -494.5t-509.5 -173.5q-106 0 -193 26.5t-149 75.5t-104.5 117t-61.5 151t-16.5 179zM502 495q3 -89 32.5 -153.5t98 -100.5 t170.5 -36q374 0 493 481q55 221 -11 348t-263 127q-192 0 -315.5 -124.5t-178.5 -346.5q-29 -106 -26 -195zM803 1489l293 325h182l148 -325h-158l-104 174l-179 -174h-182z" />
<glyph unicode="&#xd5;" d="M245.5 526q2.5 96 26.5 199q75 315 277 489.5t508 174.5q110 0 198 -26t149.5 -74t102.5 -114.5t58 -150t14 -178.5t-27 -201q-73 -321 -272.5 -494.5t-509.5 -173.5q-106 0 -193 26.5t-149 75.5t-104.5 117t-61.5 151t-16.5 179zM502 495q3 -89 32.5 -153.5t98 -100.5 t170.5 -36q374 0 493 481q55 221 -11 348t-263 127q-192 0 -315.5 -124.5t-178.5 -346.5q-29 -106 -26 -195zM779 1569q37 99 101.5 153.5t148.5 54.5q57 0 88.5 -17t64.5 -52q17 -18 23 -24.5t20.5 -14.5t28.5 -8q66 0 102 114l119 -69q-36 -98 -100 -152.5t-146 -54.5 q-35 0 -65 13.5t-43.5 26t-34.5 36.5q-15 16 -24.5 24.5t-23.5 15.5t-30 7q-34 0 -62.5 -34t-48.5 -91z" />
<glyph unicode="&#xd6;" d="M245.5 526q2.5 96 26.5 199q75 315 277 489.5t508 174.5q110 0 198 -26t149.5 -74t102.5 -114.5t58 -150t14 -178.5t-27 -201q-73 -321 -272.5 -494.5t-509.5 -173.5q-106 0 -193 26.5t-149 75.5t-104.5 117t-61.5 151t-16.5 179zM502 495q3 -89 32.5 -153.5t98 -100.5 t170.5 -36q374 0 493 481q55 221 -11 348t-263 127q-192 0 -315.5 -124.5t-178.5 -346.5q-29 -106 -26 -195zM842 1511l49 197h201l-49 -197h-201zM1203 1511l49 197h200l-49 -197h-200z" />
<glyph unicode="&#xd7;" horiz-adv-x="1171" d="M129 133l449 365l-261 360l160 129l254 -360l436 360l117 -139l-444 -369l252 -356l-158 -129l-252 356l-434 -358z" />
<glyph unicode="&#xd8;" d="M117 -23l211 211q-66 101 -80 240t24 297q75 315 277 489.5t508 174.5q221 0 356 -109l109 109h225l-231 -232q107 -195 36 -512q-73 -321 -272.5 -494.5t-509.5 -173.5q-199 0 -334 95l-94 -95h-225zM518 381l715 717q-75 63 -211 63q-192 0 -315.5 -124.5 t-178.5 -346.5q-48 -186 -10 -309zM614 250q70 -45 189 -45q374 0 493 481q38 155 17 266z" />
<glyph unicode="&#xd9;" horiz-adv-x="1357" d="M274 510l213 856h258l-210 -854q-40 -162 3.5 -234.5t186.5 -72.5q142 0 227 74t125 233l213 854h262l-219 -885q-65 -261 -217 -382.5t-416 -121.5q-267 0 -378.5 139t-47.5 394zM836 1763h223l209 -274h-162z" />
<glyph unicode="&#xda;" horiz-adv-x="1357" d="M274 510l213 856h258l-210 -854q-40 -162 3.5 -234.5t186.5 -72.5q142 0 227 74t125 233l213 854h262l-219 -885q-65 -261 -217 -382.5t-416 -121.5q-267 0 -378.5 139t-47.5 394zM829 1489l258 276h244l-324 -276h-178z" />
<glyph unicode="&#xdb;" horiz-adv-x="1357" d="M274 510l213 856h258l-210 -854q-40 -162 3.5 -234.5t186.5 -72.5q142 0 227 74t125 233l213 854h262l-219 -885q-65 -261 -217 -382.5t-416 -121.5q-267 0 -378.5 139t-47.5 394zM739 1489l293 325h182l148 -325h-158l-104 174l-179 -174h-182z" />
<glyph unicode="&#xdc;" horiz-adv-x="1357" d="M274 510l213 856h258l-210 -854q-40 -162 3.5 -234.5t186.5 -72.5q142 0 227 74t125 233l213 854h262l-219 -885q-65 -261 -217 -382.5t-416 -121.5q-267 0 -378.5 139t-47.5 394zM772 1511l49 197h201l-49 -197h-201zM1133 1511l49 197h200l-49 -197h-200z" />
<glyph unicode="&#xdd;" horiz-adv-x="1275" d="M369 1366h264l184 -551l467 551h303l-680 -786l-143 -580h-254l143 582zM799 1489l258 276h244l-324 -276h-178z" />
<glyph unicode="&#xde;" horiz-adv-x="1187" d="M147 0l340 1366h258l-63 -252h248q83 0 149 -24.5t107 -67t67 -100.5t28 -125.5t-11 -141.5q-37 -183 -172 -294t-332 -111h-297l-61 -250h-261zM522 465h244q92 0 159 63t93 162q22 95 -16.5 154t-131.5 59h-241z" />
<glyph unicode="&#xdf;" horiz-adv-x="1122" d="M141 0l285 1147q41 163 147.5 235t300.5 72q144 0 236 -70.5t92 -193.5q0 -61 -22 -114t-54.5 -87.5t-71 -67.5t-71 -57.5t-54.5 -54.5t-22 -61q0 -29 33.5 -76.5t74 -93.5t74 -111.5t33.5 -126.5q0 -163 -102.5 -261.5t-286.5 -98.5q-162 0 -291 63l111 188 q68 -51 158 -51q77 0 132.5 39.5t55.5 118.5q0 33 -23.5 70t-56.5 73t-66.5 74.5t-57 89t-23.5 103.5q0 61 29.5 113t71 87.5t83 67.5t71 69.5t29.5 77.5t-32.5 63t-81.5 23q-70 0 -122 -38.5t-71 -114.5l-270 -1096h-238z" />
<glyph unicode="&#xe0;" horiz-adv-x="1056" d="M127 242q0 85 24 151t64 108.5t96.5 70t117 38.5t130.5 11h262l8 30q7 28 7 47q0 60 -48.5 91.5t-132.5 31.5q-182 0 -268 -71l-82 170q130 94 395 94q164 -2 269.5 -76.5t105.5 -214.5q0 -34 -24 -137l-146 -586h-200l2 74q-121 -97 -281 -97q-132 0 -215.5 73 t-83.5 192zM375 285q0 -51 36.5 -80t102.5 -29q84 0 147.5 34t83.5 112l29 114h-196q-87 0 -145 -35.5t-58 -115.5zM522 1409h223l209 -274h-161z" />
<glyph unicode="&#xe1;" horiz-adv-x="1056" d="M127 242q0 85 24 151t64 108.5t96.5 70t117 38.5t130.5 11h262l8 30q7 28 7 47q0 60 -48.5 91.5t-132.5 31.5q-182 0 -268 -71l-82 170q130 94 395 94q164 -2 269.5 -76.5t105.5 -214.5q0 -34 -24 -137l-146 -586h-200l2 74q-121 -97 -281 -97q-132 0 -215.5 73 t-83.5 192zM375 285q0 -51 36.5 -80t102.5 -29q84 0 147.5 34t83.5 112l29 114h-196q-87 0 -145 -35.5t-58 -115.5zM623 1135l258 276h243l-323 -276h-178z" />
<glyph unicode="&#xe2;" horiz-adv-x="1056" d="M127 242q0 85 24 151t64 108.5t96.5 70t117 38.5t130.5 11h262l8 30q7 28 7 47q0 60 -48.5 91.5t-132.5 31.5q-182 0 -268 -71l-82 170q130 94 395 94q164 -2 269.5 -76.5t105.5 -214.5q0 -34 -24 -137l-146 -586h-200l2 74q-121 -97 -281 -97q-132 0 -215.5 73 t-83.5 192zM375 285q0 -51 36.5 -80t102.5 -29q84 0 147.5 34t83.5 112l29 114h-196q-87 0 -145 -35.5t-58 -115.5zM455 1135l293 325h182l147 -325h-157l-105 174l-178 -174h-182z" />
<glyph unicode="&#xe3;" horiz-adv-x="1056" d="M127 242q0 85 24 151t64 108.5t96.5 70t117 38.5t130.5 11h262l8 30q7 28 7 47q0 60 -48.5 91.5t-132.5 31.5q-182 0 -268 -71l-82 170q130 94 395 94q164 -2 269.5 -76.5t105.5 -214.5q0 -34 -24 -137l-146 -586h-200l2 74q-121 -97 -281 -97q-132 0 -215.5 73 t-83.5 192zM375 285q0 -51 36.5 -80t102.5 -29q84 0 147.5 34t83.5 112l29 114h-196q-87 0 -145 -35.5t-58 -115.5zM489 1217q37 99 101.5 153.5t148.5 54.5q57 0 89 -17.5t65 -51.5q17 -18 23 -24.5t20.5 -14.5t28.5 -8q66 0 102 114l119 -69q-36 -98 -100 -152.5 t-146 -54.5q-35 0 -65 13.5t-43.5 26t-34.5 36.5q-15 16 -24.5 24.5t-23.5 15.5t-30 7q-34 0 -62.5 -34t-48.5 -91z" />
<glyph unicode="&#xe4;" horiz-adv-x="1056" d="M127 242q0 85 24 151t64 108.5t96.5 70t117 38.5t130.5 11h262l8 30q7 28 7 47q0 60 -48.5 91.5t-132.5 31.5q-182 0 -268 -71l-82 170q130 94 395 94q164 -2 269.5 -76.5t105.5 -214.5q0 -34 -24 -137l-146 -586h-200l2 74q-121 -97 -281 -97q-132 0 -215.5 73 t-83.5 192zM375 285q0 -51 36.5 -80t102.5 -29q84 0 147.5 34t83.5 112l29 114h-196q-87 0 -145 -35.5t-58 -115.5zM522 1159l49 197h201l-49 -197h-201zM883 1159l49 197h201l-50 -197h-200z" />
<glyph unicode="&#xe5;" horiz-adv-x="1056" d="M127 242q0 85 24 151t64 108.5t96.5 70t117 38.5t130.5 11h262l8 30q7 28 7 47q0 60 -48.5 91.5t-132.5 31.5q-182 0 -268 -71l-82 170q130 94 395 94q164 -2 269.5 -76.5t105.5 -214.5q0 -34 -24 -137l-146 -586h-200l2 74q-121 -97 -281 -97q-132 0 -215.5 73 t-83.5 192zM375 285q0 -51 36.5 -80t102.5 -29q84 0 147.5 34t83.5 112l29 114h-196q-87 0 -145 -35.5t-58 -115.5zM627 1325q0 88 59.5 148.5t147.5 60.5t149 -60.5t61 -148.5q0 -86 -61 -145.5t-149 -59.5t-147.5 59.5t-59.5 145.5zM748 1325q0 -37 25.5 -62.5t60.5 -25.5 q38 0 63 25.5t25 62.5q0 39 -25 65.5t-63 26.5q-35 0 -60.5 -27t-25.5 -65z" />
<glyph unicode="&#xe6;" horiz-adv-x="1736" d="M160 330q16 81 57 140t101 91.5t127 47t147 14.5h256l6 22q21 81 -19 131.5t-137 50.5q-91 0 -156.5 -15t-135.5 -64l-89 161q92 63 183.5 84t220.5 21q103 0 183.5 -33.5t117.5 -97.5q155 131 377 131q119 0 204.5 -39.5t127 -109t52.5 -163.5t-18 -202l-20 -84h-711 q-23 -107 28.5 -172.5t160.5 -65.5q52 0 89.5 4.5t92.5 27.5t106 66l109 -174q-103 -65 -202 -93.5t-216 -28.5q-129 0 -207 33t-123 102q-144 -135 -403 -135q-72 0 -134 22.5t-107.5 65t-64.5 110.5t-3 152zM399 303q-9 -65 28.5 -96t111.5 -31q83 0 150 39.5t87 118.5 l25 96h-203q-182 0 -199 -127zM1083 608h480q13 102 -40 154.5t-169 52.5q-111 0 -178.5 -55.5t-92.5 -151.5z" />
<glyph unicode="&#xe7;" horiz-adv-x="1050" d="M221 547q57 222 211.5 344.5t378.5 122.5q284 0 379 -178l-180 -146q-17 38 -42 62.5t-56 35t-56 14t-59 3.5q-119 0 -214 -85t-124 -220q-33 -149 15 -229.5t173 -80.5q66 0 130.5 25t142.5 90l114 -190q-93 -68 -187.5 -100t-215.5 -35l-47 -60q14 2 45 2 q81 0 123 -55.5t24 -128.5q-20 -81 -100 -129.5t-191 -48.5q-77 0 -124 10.5t-82 44.5l77 102q41 -41 127 -41q42 0 82 19t47 51q8 29 -7.5 52.5t-45.5 23.5q-54 0 -90 -31l-80 59l115 142q-182 38 -259 194t-24 361z" />
<glyph unicode="&#xe8;" horiz-adv-x="1144" d="M220.5 255q-32.5 126 0.5 284q45 221 193.5 349t380.5 128q99 0 176.5 -26t125 -72.5t74 -112t25.5 -144.5t-22 -169l-17 -76h-713q-19 -108 34.5 -172t172.5 -64q66 0 143.5 21t135.5 67l104 -184q-110 -57 -201.5 -82t-209.5 -25q-162 0 -266 76t-136.5 202zM483 610 h475q19 99 -29 154t-157 55q-112 0 -185.5 -56t-103.5 -153zM606 1409h223l209 -274h-161z" />
<glyph unicode="&#xe9;" horiz-adv-x="1144" d="M220.5 255q-32.5 126 0.5 284q45 221 193.5 349t380.5 128q99 0 176.5 -26t125 -72.5t74 -112t25.5 -144.5t-22 -169l-17 -76h-713q-19 -108 34.5 -172t172.5 -64q66 0 143.5 21t135.5 67l104 -184q-110 -57 -201.5 -82t-209.5 -25q-162 0 -266 76t-136.5 202zM483 610 h475q19 99 -29 154t-157 55q-112 0 -185.5 -56t-103.5 -153zM666 1135l258 276h243l-323 -276h-178z" />
<glyph unicode="&#xea;" horiz-adv-x="1144" d="M220.5 255q-32.5 126 0.5 284q45 221 193.5 349t380.5 128q99 0 176.5 -26t125 -72.5t74 -112t25.5 -144.5t-22 -169l-17 -76h-713q-19 -108 34.5 -172t172.5 -64q66 0 143.5 21t135.5 67l104 -184q-110 -57 -201.5 -82t-209.5 -25q-162 0 -266 76t-136.5 202zM483 610 h475q19 99 -29 154t-157 55q-112 0 -185.5 -56t-103.5 -153zM508 1135l293 325h182l147 -325h-157l-105 174l-178 -174h-182z" />
<glyph unicode="&#xeb;" horiz-adv-x="1144" d="M220.5 255q-32.5 126 0.5 284q45 221 193.5 349t380.5 128q99 0 176.5 -26t125 -72.5t74 -112t25.5 -144.5t-22 -169l-17 -76h-713q-19 -108 34.5 -172t172.5 -64q66 0 143.5 21t135.5 67l104 -184q-110 -57 -201.5 -82t-209.5 -25q-162 0 -266 76t-136.5 202zM483 610 h475q19 99 -29 154t-157 55q-112 0 -185.5 -56t-103.5 -153zM600 1159l49 197h201l-49 -197h-201zM961 1159l49 197h200l-49 -197h-200z" />
<glyph unicode="&#xec;" horiz-adv-x="516" d="M141 0l246 993h238l-246 -993h-238zM276 1395h224l209 -275h-162z" />
<glyph unicode="&#xed;" horiz-adv-x="516" d="M141 0l246 993h238l-246 -993h-238zM387 1120l258 277h244l-324 -277h-178z" />
<glyph unicode="&#xee;" horiz-adv-x="516" d="M141 0l246 993h238l-246 -993h-238zM231 1120l293 326h183l147 -326h-158l-104 174l-178 -174h-183z" />
<glyph unicode="&#xef;" horiz-adv-x="516" d="M141 0l246 993h238l-246 -993h-238zM258 1145l49 196h201l-49 -196h-201zM618 1145l50 196h200l-49 -196h-201z" />
<glyph unicode="&#xf0;" horiz-adv-x="1181" d="M197 375q0 117 38.5 223t108.5 188.5t179.5 131.5t242.5 49q122 0 215 -33q-3 58 -28.5 109t-55.5 79l-170 -108l-68 119l146 94q-87 64 -123 82l176 135q69 -32 137 -90l160 96l70 -115l-131 -82q149 -208 149 -516q0 -185 -45.5 -330t-128 -238t-193.5 -141t-245 -48 q-201 0 -317.5 109t-116.5 286zM436 414q0 -112 58.5 -171t158.5 -59q155 0 243.5 106.5t88.5 264.5q0 102 -55 158.5t-160 56.5q-68 0 -125 -23t-95 -60.5t-64.5 -85t-38 -95t-11.5 -92.5z" />
<glyph unicode="&#xf1;" horiz-adv-x="1114" d="M139 0l246 993h201l-8 -78q67 55 131.5 77t154.5 22q167 0 242 -114.5t33 -283.5l-156 -616h-235l145 600q25 100 -17 150.5t-126 50.5q-81 0 -137.5 -39t-77.5 -121l-160 -641h-236zM502 1217q37 99 101.5 153.5t148.5 54.5q57 0 88.5 -17t64.5 -52q17 -18 23 -24.5 t20.5 -14.5t28.5 -8q66 0 102 114l119 -69q-36 -98 -100 -152.5t-146 -54.5q-35 0 -65 13.5t-43.5 26t-34.5 36.5q-15 16 -24.5 24.5t-23.5 15.5t-30 7q-34 0 -62 -34t-48 -91z" />
<glyph unicode="&#xf2;" horiz-adv-x="1185" d="M219 543q52 228 205.5 350.5t380.5 122.5q101 0 180.5 -27.5t130 -78t80 -120.5t31.5 -155.5t-17 -183.5q-49 -231 -204 -352.5t-385 -121.5q-234 0 -347 156.5t-55 409.5zM461 512q-33 -148 11.5 -237t168.5 -89q126 0 209 75.5t119 217.5q36 145 -11.5 235.5 t-171.5 90.5q-131 0 -212 -77t-113 -216zM662 1409h223l209 -274h-162z" />
<glyph unicode="&#xf3;" horiz-adv-x="1185" d="M219 543q52 228 205.5 350.5t380.5 122.5q101 0 180.5 -27.5t130 -78t80 -120.5t31.5 -155.5t-17 -183.5q-49 -231 -204 -352.5t-385 -121.5q-234 0 -347 156.5t-55 409.5zM461 512q-33 -148 11.5 -237t168.5 -89q126 0 209 75.5t119 217.5q36 145 -11.5 235.5 t-171.5 90.5q-131 0 -212 -77t-113 -216zM655 1135l258 276h244l-323 -276h-179z" />
<glyph unicode="&#xf4;" horiz-adv-x="1185" d="M219 543q52 228 205.5 350.5t380.5 122.5q101 0 180.5 -27.5t130 -78t80 -120.5t31.5 -155.5t-17 -183.5q-49 -231 -204 -352.5t-385 -121.5q-234 0 -347 156.5t-55 409.5zM461 512q-33 -148 11.5 -237t168.5 -89q126 0 209 75.5t119 217.5q36 145 -11.5 235.5 t-171.5 90.5q-131 0 -212 -77t-113 -216zM569 1135l293 325h182l148 -325h-158l-104 174l-178 -174h-183z" />
<glyph unicode="&#xf5;" horiz-adv-x="1185" d="M219 543q52 228 205.5 350.5t380.5 122.5q101 0 180.5 -27.5t130 -78t80 -120.5t31.5 -155.5t-17 -183.5q-49 -231 -204 -352.5t-385 -121.5q-234 0 -347 156.5t-55 409.5zM461 512q-33 -148 11.5 -237t168.5 -89q126 0 209 75.5t119 217.5q36 145 -11.5 235.5 t-171.5 90.5q-131 0 -212 -77t-113 -216zM551 1217q37 99 101.5 153.5t148.5 54.5q57 0 88.5 -17t64.5 -52q17 -18 23 -24.5t20.5 -14.5t28.5 -8q66 0 102 114l119 -69q-36 -98 -100 -152.5t-146 -54.5q-35 0 -65 13.5t-43.5 26t-34.5 36.5q-15 16 -24.5 24.5t-23.5 15.5 t-30 7q-34 0 -62 -34t-48 -91z" />
<glyph unicode="&#xf6;" horiz-adv-x="1185" d="M219 543q52 228 205.5 350.5t380.5 122.5q101 0 180.5 -27.5t130 -78t80 -120.5t31.5 -155.5t-17 -183.5q-49 -231 -204 -352.5t-385 -121.5q-234 0 -347 156.5t-55 409.5zM461 512q-33 -148 11.5 -237t168.5 -89q126 0 209 75.5t119 217.5q36 145 -11.5 235.5 t-171.5 90.5q-131 0 -212 -77t-113 -216zM612 1159l50 197h200l-49 -197h-201zM973 1159l49 197h201l-49 -197h-201z" />
<glyph unicode="&#xf7;" horiz-adv-x="1241" d="M229 410l43 168h988l-43 -168h-988zM508 37l57 227h242l-57 -227h-242zM680 723l55 225h242l-55 -225h-242z" />
<glyph unicode="&#xf8;" horiz-adv-x="1185" d="M96 -23l168 168q-100 156 -45 398q52 228 205.5 350.5t380.5 122.5q156 0 260 -68l68 68h200l-168 -168q96 -152 45 -397q-49 -231 -204 -352.5t-385 -121.5q-148 0 -256 68l-68 -68h-201zM451 334l444 444q-49 27 -109 27q-131 0 -213 -77.5t-114 -215.5 q-24 -101 -8 -178zM530 211q45 -25 111 -25q127 0 212 75.5t120 217.5q23 98 4 180z" />
<glyph unicode="&#xf9;" horiz-adv-x="1110" d="M219 352l158 641h237l-153 -616q-45 -182 143 -182q82 0 142 42t81 125l156 631h238l-246 -993h-199l4 78q-138 -101 -284 -101q-170 -1 -244.5 102.5t-32.5 272.5zM625 1409h223l209 -274h-162z" />
<glyph unicode="&#xfa;" horiz-adv-x="1110" d="M219 352l158 641h237l-153 -616q-45 -182 143 -182q82 0 142 42t81 125l156 631h238l-246 -993h-199l4 78q-138 -101 -284 -101q-170 -1 -244.5 102.5t-32.5 272.5zM618 1135l259 276h243l-323 -276h-179z" />
<glyph unicode="&#xfb;" horiz-adv-x="1110" d="M219 352l158 641h237l-153 -616q-45 -182 143 -182q82 0 142 42t81 125l156 631h238l-246 -993h-199l4 78q-138 -101 -284 -101q-170 -1 -244.5 102.5t-32.5 272.5zM510 1135l293 325h182l148 -325h-158l-105 174l-178 -174h-182z" />
<glyph unicode="&#xfc;" horiz-adv-x="1110" d="M219 352l158 641h237l-153 -616q-45 -182 143 -182q82 0 142 42t81 125l156 631h238l-246 -993h-199l4 78q-138 -101 -284 -101q-170 -1 -244.5 102.5t-32.5 272.5zM543 1159l49 197h201l-50 -197h-200zM903 1159l49 197h201l-49 -197h-201z" />
<glyph unicode="&#xfd;" horiz-adv-x="1048" d="M10 -399l80 215q40 -27 115 -27q74 0 135 96l90 154l-158 954h238l96 -690l393 690h265l-725 -1202q-70 -112 -153 -162.5t-206 -50.5q-30 0 -85.5 6.5t-84.5 16.5zM590 1135l258 276h244l-324 -276h-178z" />
<glyph unicode="&#xfe;" horiz-adv-x="1161" d="M41 -406l455 1838h237l-112 -457q44 20 106.5 29.5t106.5 9.5q97 0 169.5 -26t116.5 -73.5t65.5 -116.5t21 -152t-20.5 -183q-48 -237 -200 -360t-368 -123q-142 0 -227 55l-112 -441h-238zM471 365q-22 -84 19.5 -135.5t136.5 -51.5q116 0 200.5 80.5t120.5 230.5 q41 155 0.5 237.5t-170.5 82.5q-121 0 -215 -57z" />
<glyph unicode="&#xff;" horiz-adv-x="1048" d="M10 -399l80 215q40 -27 115 -27q74 0 135 96l90 154l-158 954h238l96 -690l393 690h265l-725 -1202q-70 -112 -153 -162.5t-206 -50.5q-30 0 -85.5 6.5t-84.5 16.5zM532 1159l50 197h200l-49 -197h-201zM893 1159l49 197h201l-49 -197h-201z" />
<glyph unicode="&#x152;" horiz-adv-x="2117" d="M244.5 501q0.5 109 27.5 228q33 140 94.5 256t155 207.5t229 142.5t300.5 51q261 0 395 -153l33 133h876l-53 -217h-627l-88 -346h580l-53 -217h-580l-92 -369h626l-53 -217h-876l24 104q-180 -124 -424 -124q-126 0 -222.5 40.5t-155 110.5t-88 165.5t-29 204.5z M504.5 490.5q3.5 -89.5 33 -154t94.5 -101t161 -36.5q193 0 324 132.5t186 354.5q33 144 24 250.5t-82.5 168.5t-208.5 62q-197 0 -326.5 -130.5t-181.5 -350.5q-27 -106 -23.5 -195.5z" />
<glyph unicode="&#x153;" horiz-adv-x="1888" d="M201 373q0 148 49 270.5t133 203t195 124t237 43.5q117 0 208.5 -42t137.5 -116q75 74 176.5 116t214.5 42q193 0 291.5 -86.5t98.5 -241.5q0 -110 -48 -274h-704q-23 -98 23.5 -166t152.5 -68q56 0 91 3.5t90 25t104 63.5l104 -176q-98 -67 -190 -90.5t-230 -23.5 q-225 0 -329 157q-83 -78 -178 -117.5t-236 -39.5q-184 0 -287.5 107t-103.5 286zM442 373q0 -94 48 -144.5t145 -50.5q66 0 129.5 30.5t114 85t81.5 138t31 180.5q0 96 -50 148.5t-148 52.5q-107 0 -188.5 -63t-122 -162t-40.5 -215zM1237 608h467q24 94 -27.5 150.5 t-156.5 56.5q-107 0 -182.5 -60t-100.5 -147z" />
<glyph unicode="&#x178;" horiz-adv-x="1275" d="M369 1366h264l184 -551l467 551h303l-680 -786l-143 -580h-254l143 582zM700 1511l49 197h201l-49 -197h-201zM1061 1511l49 197h200l-49 -197h-200z" />
<glyph unicode="&#x2c6;" horiz-adv-x="661" d="M307 1135l293 325h182l148 -325h-158l-104 174l-179 -174h-182z" />
<glyph unicode="&#x2dc;" horiz-adv-x="659" d="M285 1217q37 99 101.5 153.5t148.5 54.5q57 0 88.5 -17t64.5 -52q17 -18 23 -24.5t20.5 -14.5t28.5 -8q66 0 102 114l119 -69q-36 -98 -100 -152.5t-146 -54.5q-35 0 -65 13.5t-43.5 26t-34.5 36.5q-15 16 -24.5 24.5t-23.5 15.5t-30 7q-34 0 -62.5 -34t-48.5 -91z" />
<glyph unicode="&#x2000;" horiz-adv-x="945" />
<glyph unicode="&#x2001;" horiz-adv-x="1890" />
<glyph unicode="&#x2002;" horiz-adv-x="945" />
<glyph unicode="&#x2003;" horiz-adv-x="1890" />
<glyph unicode="&#x2004;" horiz-adv-x="630" />
<glyph unicode="&#x2005;" horiz-adv-x="472" />
<glyph unicode="&#x2006;" horiz-adv-x="315" />
<glyph unicode="&#x2007;" horiz-adv-x="315" />
<glyph unicode="&#x2008;" horiz-adv-x="236" />
<glyph unicode="&#x2009;" horiz-adv-x="378" />
<glyph unicode="&#x200a;" horiz-adv-x="105" />
<glyph unicode="&#x2010;" horiz-adv-x="673" d="M205 510l45 186h518l-45 -186h-518z" />
<glyph unicode="&#x2011;" horiz-adv-x="673" d="M205 510l45 186h518l-45 -186h-518z" />
<glyph unicode="&#x2012;" horiz-adv-x="673" d="M205 510l45 186h518l-45 -186h-518z" />
<glyph unicode="&#x2013;" horiz-adv-x="1157" d="M219 506l47 190h969l-47 -190h-969z" />
<glyph unicode="&#x2014;" horiz-adv-x="1765" d="M219 506l47 190h1577l-47 -190h-1577z" />
<glyph unicode="&#x2018;" horiz-adv-x="374" d="M281 887l53 211l129 268h129l-103 -231h107l-64 -248h-251z" />
<glyph unicode="&#x2019;" horiz-adv-x="374" d="M340 1118l61 248h252l-53 -211l-129 -268h-129l104 231h-106z" />
<glyph unicode="&#x201a;" horiz-adv-x="374" d="M61 0l62 248h252l-53 -211l-129 -268h-130l105 231h-107z" />
<glyph unicode="&#x201c;" horiz-adv-x="743" d="M270 887l54 211l129 268h129l-103 -231h107l-64 -248h-252zM649 887l53 211l129 268h130l-103 -231h107l-64 -248h-252z" />
<glyph unicode="&#x201d;" horiz-adv-x="743" d="M340 1118l61 248h252l-53 -211l-129 -268h-129l104 231h-106zM719 1118l61 248h252l-53 -211l-129 -268h-129l104 231h-106z" />
<glyph unicode="&#x201e;" horiz-adv-x="759" d="M61 0l62 248h252l-53 -211l-129 -268h-130l105 231h-107zM446 0l62 248h252l-53 -211l-129 -268h-129l104 231h-107z" />
<glyph unicode="&#x2022;" horiz-adv-x="739" d="M317 608q0 87 61 147t150 60q90 0 151.5 -60t61.5 -147t-61.5 -147t-151.5 -60q-89 0 -150 60t-61 147z" />
<glyph unicode="&#x2026;" horiz-adv-x="1236" d="M82 0l61 248h263l-62 -248h-262zM487 0l62 248h262l-61 -248h-263zM893 0l61 248h263l-62 -248h-262z" />
<glyph unicode="&#x202f;" horiz-adv-x="378" />
<glyph unicode="&#x2039;" horiz-adv-x="575" d="M182 485l359 375h196l-336 -377l146 -379h-195z" />
<glyph unicode="&#x203a;" horiz-adv-x="575" d="M78 104l334 379l-148 377h197l174 -375l-363 -381h-194z" />
<glyph unicode="&#x205f;" horiz-adv-x="472" />
<glyph unicode="&#x20ac;" horiz-adv-x="1327" d="M174 430l43 176h123q2 7 35 135h-123l43 177h139q91 229 272 348.5t427 119.5q148 0 242.5 -39.5t189.5 -134.5l-176 -168q-68 82 -136.5 109t-165.5 27q-139 0 -237 -64.5t-166 -197.5h524l-110 -177h-482q-10 -28 -34 -135h434l-109 -176h-340q-12 -122 54 -185 t202 -63q101 0 187 30t207 118l104 -178q-129 -88 -251 -130t-282 -42q-242 0 -361 120t-108 330h-145z" />
<glyph unicode="&#x2122;" horiz-adv-x="1028" d="M362 1288l21 78h328l-21 -78h-119l-96 -387h-90l96 387h-119zM678 901l117 465h129l22 -299l174 299h127l-117 -465h-86l95 361l-209 -361h-51l-27 367l-88 -367h-86z" />
<glyph unicode="&#x25fc;" horiz-adv-x="993" d="M0 0v993h993v-993h-993z" />
</font>
</defs>
</svg>
