<?xml version="1.0" standalone="no"?>
<!DOCTYPE svg PUBLIC "-//W3C//DTD SVG 1.1//EN" "http://www.w3.org/Graphics/SVG/1.1/DTD/svg11.dtd" >
<svg xmlns="http://www.w3.org/2000/svg">
<metadata></metadata>
<defs>
<font id="mirum_sansregular" horiz-adv-x="1054" >
<font-face units-per-em="2048" ascent="1638" descent="-410" />
<missing-glyph horiz-adv-x="544" />
<glyph unicode="&#xfb01;" horiz-adv-x="1046" d="M61 889v104h150v146q0 146 92.5 227.5t243.5 81.5q155 0 243 -67.5t93 -180.5h-115q-8 66 -62.5 107t-156.5 41q-105 0 -165 -52t-60 -159v-144h254v-104h-254v-889h-113v889h-150zM770 0v993h113v-993h-113z" />
<glyph unicode="&#xfb02;" horiz-adv-x="1064" d="M61 889v104h150v150q0 145 97.5 225t252.5 80q201 0 322 -82v-1122q0 -77 29 -115.5t112 -44.5l-18 -96q-236 5 -236 233v1077q-8 5 -23 12.5t-69 20t-117 12.5q-107 0 -172 -50t-65 -150v-150h254v-104h-254v-889h-113v889h-150z" />
<glyph horiz-adv-x="0" />
<glyph horiz-adv-x="682" />
<glyph unicode=" "  horiz-adv-x="544" />
<glyph unicode="&#x09;" horiz-adv-x="544" />
<glyph unicode="&#xa0;" horiz-adv-x="544" />
<glyph unicode="!" horiz-adv-x="452" d="M205 1366h145l-33 -1069h-79zM209 0v147h137v-147h-137z" />
<glyph unicode="&#x22;" horiz-adv-x="675" d="M125 1366h135l-35 -436h-61zM416 1366h135l-35 -436h-61z" />
<glyph unicode="#" horiz-adv-x="1103" d="M57 453l17 90h196l72 395h-197l17 90h198l62 338h98l-63 -338h266l65 338h93l-62 -338h211l-16 -90h-213l-72 -395h211l-16 -90h-211l-62 -336h-96l61 336h-264l-61 -336h-98l61 336h-197zM371 543h262l74 395h-267z" />
<glyph unicode="$" horiz-adv-x="1173" d="M86 160l78 96q67 -85 144.5 -124t211.5 -48v580q-41 12 -66 20t-62.5 21.5t-61 25t-53.5 29t-48.5 35.5t-39 43t-31.5 52.5t-18 62.5t-7 75q0 163 106 256.5t281 101.5v183h94v-183q230 -3 369 -149l-78 -92q-111 130 -291 133v-518q50 -15 85.5 -27.5t80 -32t75 -40 t62 -50.5t50.5 -64.5t31 -80.5t12 -100q0 -170 -109.5 -273t-286.5 -115v-178h-94v178q-137 0 -248.5 47.5t-185.5 135.5zM252 1032q0 -44 12.5 -78t32 -57t57 -44t72.5 -34.5t94 -32.5v494q-130 -6 -199 -74t-69 -174zM614 84q81 10 138.5 37.5t86 67t40.5 79.5t12 86 q0 113 -64.5 176t-212.5 107v-553z" />
<glyph unicode="%" horiz-adv-x="1640" d="M143 1047q0 155 83.5 244t224.5 89t225 -89t84 -244q0 -154 -84 -243t-225 -89t-224.5 89t-83.5 243zM246 1047q0 -111 52 -174.5t153 -63.5t153.5 63.5t52.5 174.5q0 112 -52.5 175.5t-153.5 63.5t-153 -63t-52 -176zM385 0l829 1366h95l-832 -1366h-92zM936 317 q0 156 83 245t224 89t225 -89.5t84 -244.5q0 -153 -86 -242t-227 -89q-140 0 -221.5 88t-81.5 243zM1034 317q0 -112 52.5 -175.5t152.5 -63.5q101 0 154 64t53 175q0 112 -53 175t-154 63t-153 -62.5t-52 -175.5z" />
<glyph unicode="&#x26;" horiz-adv-x="1175" d="M84 344q0 147 73.5 244t215.5 176q-77 107 -104 174t-27 145q0 136 85.5 219.5t229.5 83.5t225.5 -72t81.5 -188q0 -72 -22.5 -131.5t-68 -107.5t-98 -85t-128.5 -77l317 -418q95 133 127 344l101 -43q-17 -108 -61 -214t-101 -175l170 -219h-144l-104 133 q-81 -84 -168 -120t-205 -36q-176 0 -285.5 94t-109.5 273zM203 352q0 -147 76 -206.5t210 -59.5q93 0 163 31t136 102l-348 453q-122 -65 -179.5 -140t-57.5 -180zM365 1071q0 -55 30.5 -115.5t87.5 -138.5q57 30 98.5 58t80 63.5t59 77.5t20.5 88q0 81 -47 123.5 t-137 42.5q-91 0 -141.5 -51.5t-50.5 -147.5z" />
<glyph unicode="'" horiz-adv-x="385" d="M125 1366h135l-35 -436h-61z" />
<glyph unicode="(" horiz-adv-x="489" d="M74 481q0 248 68.5 484t199.5 434q11 -6 27.5 -17.5t27.5 -17.5q-100 -206 -151 -419.5t-51 -463.5q0 -246 51 -458t151 -418l-53 -35q-270 435 -270 911z" />
<glyph unicode=")" horiz-adv-x="495" d="M74 -395q100 206 151 418t51 458q0 250 -51 463.5t-151 419.5q12 6 28 17.5t27 17.5q131 -198 199.5 -434t68.5 -484q0 -476 -270 -911z" />
<glyph unicode="*" horiz-adv-x="772" d="M111 975l235 102l-229 105l53 102l201 -158l-33 263h119l-31 -261l205 156l53 -102l-231 -105l231 -108l-51 -99l-207 156l33 -262h-121l33 264l-201 -158z" />
<glyph unicode="+" horiz-adv-x="1230" d="M143 430v102h422v424h103v-424h419v-102h-419v-430h-103v430h-422z" />
<glyph unicode="," horiz-adv-x="378" d="M123 0v160h133v-160l-53 -231h-64l37 231h-53z" />
<glyph unicode="-" horiz-adv-x="671" d="M102 567v121h467v-121h-467z" />
<glyph unicode="." horiz-adv-x="378" d="M123 0v160h133v-160h-133z" />
<glyph unicode="/" horiz-adv-x="731" d="M72 -61l493 1491h94l-493 -1491h-94z" />
<glyph unicode="0" horiz-adv-x="1183" d="M115 684q0 116 13 214.5t47 191t86.5 157t136.5 103.5t192 39q110 0 194.5 -39t137.5 -103.5t86.5 -157.5t47 -191t13.5 -214q0 -95 -9.5 -178.5t-30 -165t-57.5 -146t-88.5 -114t-125.5 -76.5t-166 -27q-110 0 -194.5 39.5t-137.5 104.5t-86 158.5t-46 191.5t-13 213z M233 684q0 -98 8.5 -179.5t32.5 -162.5t63 -136t104 -89.5t151 -34.5q87 0 152 34.5t103.5 89.5t62.5 136t32 162t8 180q0 81 -6 149.5t-20 139t-41 124t-65 96t-95.5 65t-130.5 22.5q-86 0 -151 -33.5t-104 -88t-63 -134.5t-32.5 -161t-8.5 -179z" />
<glyph unicode="1" horiz-adv-x="585" d="M86 1257v109h346v-1366h-119v1257h-227z" />
<glyph unicode="2" horiz-adv-x="1060" d="M121 1194q73 103 169 149t236 46q180 0 291 -103.5t111 -298.5q0 -69 -19 -136.5t-61.5 -138.5t-91 -135t-129.5 -147.5t-153 -151.5t-183 -169h643v-109h-807v113q156 138 250.5 226.5t187 185t140 167.5t76 146t28.5 149q0 141 -78.5 215t-210.5 74 q-111 0 -184.5 -39.5t-130.5 -120.5z" />
<glyph unicode="3" horiz-adv-x="1077" d="M100 172l88 86q41 -56 80.5 -90.5t102.5 -57t147 -22.5q155 0 238.5 78.5t83.5 210.5q0 137 -78 204.5t-240 67.5h-100v109h100q133 0 212 68.5t79 193.5q0 126 -79 193t-226 67q-106 0 -181 -34.5t-145 -112.5l-76 81q144 175 408 175q190 0 303 -95t113 -262 q0 -258 -209 -323q105 -20 170 -103.5t65 -232.5q0 -171 -120 -283.5t-316 -112.5q-141 0 -249.5 53.5t-170.5 141.5z" />
<glyph unicode="4" horiz-adv-x="1073" d="M102 365v114l574 887h153v-893h150v-108h-150v-365h-118v365h-609zM221 473h490v764z" />
<glyph unicode="5" horiz-adv-x="1136" d="M156 164l75 84q66 -88 140.5 -126t199.5 -38q146 0 229 91.5t83 244.5t-82.5 239t-235.5 86q-88 0 -154 -30t-132 -99l-93 39l43 711h695v-106h-592l-35 -502q119 94 293 94q112 0 203 -48t147.5 -146t56.5 -230q0 -204 -119.5 -327.5t-306.5 -123.5q-144 0 -243.5 47 t-171.5 140z" />
<glyph unicode="6" horiz-adv-x="1173" d="M143 618q0 246 52 415.5t164.5 262.5t283.5 93q223 0 346 -150l-80 -80q-50 61 -112 92t-156 31q-86 0 -153 -33.5t-109.5 -89.5t-69.5 -135t-38 -163t-11 -181q119 168 348 168q188 0 305 -111.5t117 -310.5q0 -125 -48.5 -225.5t-147 -162t-232.5 -61.5 q-459 0 -459 641zM289 420q0 -152 79.5 -244t223.5 -92q151 0 237 91t86 241q0 149 -81 234t-236 85q-147 0 -228 -84t-81 -231z" />
<glyph unicode="7" horiz-adv-x="937" d="M74 1257v109h782v-106l-407 -1260h-130l420 1257h-665z" />
<glyph unicode="8" horiz-adv-x="1193" d="M152 356q0 130 63.5 221.5t192.5 122.5v7q-115 21 -175.5 106t-60.5 217q0 164 123 261.5t301 97.5q121 0 215.5 -39t152.5 -121.5t58 -198.5q0 -128 -61.5 -214t-169.5 -109v-7q125 -23 188 -111.5t63 -230.5q0 -172 -119.5 -276.5t-326.5 -104.5q-202 0 -323 103.5 t-121 275.5zM270 360q0 -136 90 -205t236 -69q145 0 236.5 70.5t91.5 203.5q0 76 -26.5 132t-73.5 88t-104 47.5t-124 15.5q-49 0 -94.5 -9t-88.5 -30.5t-74 -53.5t-50 -80.5t-19 -109.5zM291 1018q0 -70 24.5 -121.5t68.5 -80.5t96.5 -42.5t115.5 -13.5q58 0 110.5 13.5 t97.5 42.5t72 81t27 121q0 127 -85.5 193.5t-221.5 66.5q-137 0 -221 -66.5t-84 -193.5z" />
<glyph unicode="9" horiz-adv-x="1173" d="M143 942q0 196 112.5 321.5t315.5 125.5q109 0 189.5 -32t131.5 -88.5t82.5 -146t43.5 -192t12 -238.5q0 -130 -17.5 -238t-55 -197.5t-94 -151t-138 -95t-184.5 -33.5q-123 0 -207.5 36.5t-147.5 113.5l82 84q50 -64 111.5 -95.5t159.5 -31.5q85 0 150 30.5t107 83.5 t68.5 131t37.5 165.5t11 193.5q-51 -66 -138 -115t-210 -49q-189 0 -305.5 109.5t-116.5 308.5zM260 950q0 -150 80 -234.5t235 -84.5q147 0 229.5 84t82.5 231q0 151 -81 243.5t-226 92.5q-151 0 -235.5 -90.5t-84.5 -241.5z" />
<glyph unicode=":" horiz-adv-x="378" d="M123 0v160h133v-160h-133zM123 752v159h133v-159h-133z" />
<glyph unicode=";" horiz-adv-x="378" d="M123 0v160h133v-160l-53 -231h-64l37 231h-53zM123 752v159h133v-159h-133z" />
<glyph unicode="&#x3c;" horiz-adv-x="1228" d="M143 426v113l942 426v-117l-821 -365l821 -366v-113z" />
<glyph unicode="=" horiz-adv-x="1230" d="M143 211v100h944v-100h-944zM143 653v103h944v-103h-944z" />
<glyph unicode="&#x3e;" horiz-adv-x="1228" d="M143 4v113l830 366l-830 365v117l942 -426v-113z" />
<glyph unicode="?" horiz-adv-x="905" d="M61 1194q107 195 363 195q93 0 167.5 -32t119.5 -85t68.5 -117t23.5 -133q0 -94 -29 -167.5t-78 -117t-107 -66t-122 -22.5l-18 -352h-89l-20 444h57q133 0 207 68.5t74 212.5q0 65 -27 121.5t-87.5 95.5t-145.5 39q-177 0 -256 -150zM330 0v147h141v-147h-141z" />
<glyph unicode="@" horiz-adv-x="1617" d="M123 608q0 218 99.5 398t271.5 282.5t378 102.5q195 0 337.5 -79t214 -215.5t71.5 -312.5q0 -115 -29.5 -211t-78.5 -156t-109 -93t-123 -33q-160 0 -158 168q-54 -86 -132.5 -127t-164.5 -41q-113 0 -184.5 90t-71.5 229q0 105 33 198t88 156t127.5 99.5t149.5 36.5 q85 0 143.5 -29.5t95.5 -97.5l52 98h67l-96 -518q-6 -36 -6 -72q0 -104 88 -104q30 0 67.5 25t74.5 72.5t62 130t25 183.5q0 236 -145.5 374t-401.5 138q-126 0 -240 -49.5t-199.5 -138t-136 -219t-50.5 -283.5q0 -262 142 -408.5t378 -146.5q189 0 340 103l35 -64 q-82 -56 -186.5 -88.5t-198.5 -32.5q-288 0 -458.5 173t-170.5 462zM567 614q0 -107 41.5 -167t130.5 -60q148 0 254 191l58 301q-51 135 -189 135q-87 0 -155.5 -56t-104 -147t-35.5 -197z" />
<glyph unicode="A" horiz-adv-x="1210" d="M45 0l490 1366h145l485 -1366h-129l-133 383h-596l-133 -383h-129zM344 492h520l-258 747z" />
<glyph unicode="B" horiz-adv-x="1220" d="M164 0v1366h526q172 0 271.5 -92.5t99.5 -243.5q0 -124 -60.5 -215.5t-156.5 -114.5q112 -26 177.5 -120.5t65.5 -217.5q0 -160 -109 -261t-276 -101h-538zM285 111h389q131 0 210 70t79 196q0 117 -77 189.5t-220 72.5h-381v-528zM285 750h372q132 0 207.5 74t75.5 184 q0 247 -270 247h-385v-505z" />
<glyph unicode="C" horiz-adv-x="1259" d="M127 682q0 329 162 519t444 190q153 0 243.5 -29t188.5 -105l-75 -94q-77 68 -158 91.5t-199 23.5q-161 0 -271.5 -75t-162 -207t-51.5 -314q0 -130 28.5 -235.5t86.5 -185.5t152 -123.5t218 -43.5q115 0 192.5 25.5t170.5 101.5l78 -92q-90 -78 -188 -115t-253 -37 q-294 0 -450 186t-156 519z" />
<glyph unicode="D" horiz-adv-x="1359" d="M164 0v1366h448q142 0 258.5 -52.5t193.5 -144.5t119 -217t42 -270q0 -146 -42 -270.5t-119 -216t-193.5 -143.5t-258.5 -52h-448zM285 111h321q159 0 273.5 78t169.5 205t55 288q0 121 -31.5 224t-92 181.5t-156.5 123t-218 44.5h-321v-1144z" />
<glyph unicode="E" horiz-adv-x="1095" d="M164 0v1366h801v-111h-680v-505h630v-111h-630v-528h680v-111h-801z" />
<glyph unicode="F" horiz-adv-x="1067" d="M164 0v1366h801v-111h-680v-505h630v-111h-630v-639h-121z" />
<glyph unicode="G" horiz-adv-x="1402" d="M127 682q0 336 164 521.5t459 185.5q172 0 285.5 -42t187.5 -145l-88 -86q-61 85 -153 123.5t-232 38.5q-246 0 -374 -153.5t-128 -442.5t126 -442.5t380 -153.5q127 0 225.5 35t153.5 96v373h-316v112h436v-536q-166 -191 -499 -191q-305 0 -466 181.5t-161 525.5z" />
<glyph unicode="H" horiz-adv-x="1363" d="M164 0v1366h121v-616h794v616h121v-1366h-121v639h-794v-639h-121z" />
<glyph unicode="I" horiz-adv-x="448" d="M164 0v1366h121v-1366h-121z" />
<glyph unicode="J" horiz-adv-x="950" d="M61 74l70 104q62 -51 119.5 -68.5t124.5 -17.5q291 0 291 314v960h120v-973q0 -209 -109.5 -312.5t-299.5 -103.5q-71 0 -161.5 22.5t-154.5 74.5z" />
<glyph unicode="K" horiz-adv-x="1157" d="M164 0v1366h121v-647l653 647h164l-676 -664l690 -702h-168l-663 670v-670h-121z" />
<glyph unicode="L" horiz-adv-x="995" d="M164 0v1366h121v-1255h618v-111h-739z" />
<glyph unicode="M" horiz-adv-x="1595" d="M164 0v1366h201l432 -1028l434 1028h201v-1366h-119v1260l-469 -1092h-92l-467 1092v-1260h-121z" />
<glyph unicode="N" horiz-adv-x="1357" d="M164 0v1366h143l768 -1196v1196h119v-1366h-143l-766 1192v-1192h-121z" />
<glyph unicode="O" horiz-adv-x="1484" d="M123 686q0 157 39 285.5t115 222t195 144.5t271 51t270 -51t194 -144.5t115.5 -222t39.5 -285.5q0 -153 -38.5 -281t-113.5 -224t-194.5 -150t-272.5 -54q-152 0 -271.5 54t-195 150t-114.5 224t-39 281zM244 686q0 -129 31 -237t91.5 -189t156.5 -126.5t220 -45.5 q123 0 219 45.5t156.5 126.5t91.5 189t31 237q0 132 -28.5 238t-87 185.5t-155.5 123t-227 43.5q-129 0 -226 -43.5t-156 -123t-88 -185.5t-29 -238z" />
<glyph unicode="P" horiz-adv-x="1148" d="M164 0v1366h487q180 0 283.5 -111.5t103.5 -289.5q0 -179 -105 -297.5t-282 -118.5h-366v-549h-121zM285 659h346q136 0 211.5 86t75.5 220q0 132 -74.5 211t-212.5 79h-346v-596z" />
<glyph unicode="Q" horiz-adv-x="1499" d="M123 686q0 157 39 285.5t114.5 222t194 144.5t270.5 51q300 0 457.5 -190.5t157.5 -512.5q0 -169 -46.5 -306.5t-147 -239t-247.5 -144.5l101 -238h-111l-90 222q-3 0 -27 -1.5t-47 -1.5q-152 0 -271.5 54t-194.5 150t-113.5 224t-38.5 281zM242 686q0 -129 31.5 -235 t94.5 -187t165.5 -126.5t236.5 -47.5l-100 240h114l90 -228q179 54 272 209.5t93 374.5q0 132 -28.5 238t-87 185.5t-155.5 123t-227 43.5q-129 0 -226 -43.5t-156 -123t-88 -185.5t-29 -238z" />
<glyph unicode="R" horiz-adv-x="1153" d="M164 0v1366h498q170 0 274 -106t104 -295q0 -90 -29 -163.5t-76.5 -120t-97.5 -74.5t-102 -40l301 -567h-137l-291 561h-323v-561h-121zM285 672h354q130 0 205.5 75.5t75.5 217.5t-75 216t-206 74h-354v-583z" />
<glyph unicode="S" horiz-adv-x="1120" d="M90 172l82 96q71 -89 162 -132.5t239 -43.5q73 0 130 15.5t92.5 41t58.5 60.5t32 71t9 76t-10.5 73.5t-25.5 58t-44.5 46.5t-53 36t-67 30t-70.5 24t-79 23q-54 15 -86.5 25.5t-81.5 29.5t-78.5 37.5t-65 47.5t-54.5 62t-32.5 78.5t-13.5 98.5q0 162 118 262.5t306 100.5 q145 0 248 -33.5t182 -114.5l-80 -96q-70 73 -152 101t-196 28q-136 0 -217.5 -65t-81.5 -175q0 -41 11.5 -74t34.5 -57.5t49.5 -43t65.5 -34t73 -26.5t80 -24q12 -3 18 -5q71 -20 122 -38.5t113 -52.5t101 -74t65.5 -101t26.5 -135q0 -61 -14.5 -116t-48.5 -106t-85 -88.5 t-129 -59.5t-176 -22q-168 0 -278.5 47.5t-198.5 147.5z" />
<glyph unicode="T" horiz-adv-x="1081" d="M78 1255v111h926v-111h-404v-1255h-119v1255h-403z" />
<glyph unicode="U" horiz-adv-x="1337" d="M164 498v868h121v-864q0 -207 93 -310.5t288 -103.5q197 0 292 104t95 310v864h121v-866q0 -255 -128 -389t-380 -134t-377 134t-125 387z" />
<glyph unicode="V" horiz-adv-x="1234" d="M57 1366h131l430 -1235l429 1235h131l-486 -1366h-145z" />
<glyph unicode="W" horiz-adv-x="1716" d="M61 1366h123l305 -1208l314 1048h112l312 -1048l303 1208h125l-352 -1366h-146l-299 1004l-301 -1004h-143z" />
<glyph unicode="X" horiz-adv-x="1243" d="M57 0l492 698l-461 668h145l388 -563l389 563h145l-459 -666l490 -700h-152l-413 594l-412 -594h-152z" />
<glyph unicode="Y" horiz-adv-x="1193" d="M57 1366h140l401 -659l399 659h140l-482 -780v-586h-120v586z" />
<glyph unicode="Z" horiz-adv-x="1112" d="M106 0v117l748 1138h-748v111h885v-121l-745 -1134h760v-111h-900z" />
<glyph unicode="[" horiz-adv-x="497" d="M102 -408v1797h326v-93h-213v-1611h213v-93h-326z" />
<glyph unicode="\" horiz-adv-x="731" d="M72 1430h94l493 -1491h-94z" />
<glyph unicode="]" horiz-adv-x="497" d="M70 -315h213v1611h-213v93h325v-1797h-325v93z" />
<glyph unicode="^" horiz-adv-x="1206" d="M143 575l408 791h111l401 -791h-125l-334 670l-336 -670h-125z" />
<glyph unicode="_" horiz-adv-x="1132" d="M-18 -152h1171v-112h-1171v112z" />
<glyph unicode="`" horiz-adv-x="655" d="M137 1378h180l201 -239h-117z" />
<glyph unicode="a" d="M111 281q0 147 97.5 228t246.5 81h331v82q0 119 -66.5 180t-211.5 61q-177 0 -279 -98l-65 90q67 59 148.5 85t207.5 26q82 0 149.5 -20t119.5 -59.5t81 -104.5t29 -150v-682h-80l-22 109q-37 -39 -79.5 -65.5t-73.5 -39.5t-75 -19.5t-63.5 -7t-59.5 -0.5 q-67 0 -125.5 18t-106 53.5t-75.5 95.5t-28 137zM225 281q0 -101 74.5 -153t194.5 -52q125 0 208.5 59t83.5 180v172h-299q-123 0 -192.5 -51.5t-69.5 -154.5z" />
<glyph unicode="b" horiz-adv-x="1171" d="M164 0v1432h112v-482q122 66 295 66q226 0 351 -140t125 -384q0 -238 -125 -376.5t-326 -138.5q-32 0 -53 1t-61 8.5t-71 20.5t-69 41t-68 67l-30 -115h-80zM276 356q0 -123 81.5 -198.5t224.5 -75.5q168 0 258 105t90 302q0 204 -91 313t-272 109q-47 0 -80.5 -2.5 t-94.5 -20t-116 -50.5v-482z" />
<glyph unicode="c" horiz-adv-x="1019" d="M125 496q0 232 124.5 376t338.5 144q229 0 356 -142l-80 -71q-53 58 -119 84t-155 26q-171 0 -260.5 -113.5t-89.5 -303.5q0 -199 88.5 -308.5t265.5 -109.5q86 0 152 27.5t126 91.5l76 -80q-82 -77 -164 -108.5t-202 -31.5q-149 0 -253 66.5t-154 181.5t-50 271z" />
<glyph unicode="d" horiz-adv-x="1171" d="M127 492q0 242 124.5 383t342.5 141q153 0 301 -60v476h113v-1432h-82l-25 113q-40 -46 -85 -76t-92 -41.5t-78 -15t-73 -3.5q-204 0 -325 134t-121 381zM244 489q0 -197 91 -302t259 -105q142 0 221.5 77t79.5 201v482q-139 71 -295 71q-175 0 -265.5 -110.5 t-90.5 -313.5z" />
<glyph unicode="e" horiz-adv-x="1165" d="M127 498q0 148 51.5 264t156 185t247.5 69q231 0 344.5 -131t113.5 -363v-63h-794q13 -377 350 -377q90 0 157.5 28t125.5 89l73 -82q-152 -140 -364 -140q-230 0 -345.5 137.5t-115.5 383.5zM248 563h680q-1 76 -19 136.5t-56.5 109.5t-106 75.5t-160.5 26.5 q-74 0 -134 -23t-97 -59t-62 -83.5t-35 -92.5t-10 -90z" />
<glyph unicode="f" horiz-adv-x="696" d="M61 889v104h150l2 166q2 133 73 210t195 77q63 0 108.5 -14t94.5 -46l-61 -92q-63 47 -129 47q-170 0 -170 -200v-148h262v-104h-262v-889h-113v889h-150z" />
<glyph unicode="g" horiz-adv-x="1167" d="M127 502q0 236 118.5 375t334.5 139q43 0 76.5 -3.5t79.5 -15.5t87.5 -41t75.5 -73l25 110h84v-1005q0 -89 -25.5 -162t-78.5 -129.5t-142 -87.5t-209 -31q-238 0 -373 135l70 90q110 -122 305 -122q153 0 246.5 72.5t93.5 209.5v72q-142 -58 -301 -58q-223 0 -345 132 t-122 393zM240 504q0 -205 89 -313.5t265 -108.5q148 0 301 68v483q0 131 -81.5 204.5t-227.5 73.5q-166 0 -256 -107t-90 -300z" />
<glyph unicode="h" horiz-adv-x="1107" d="M164 0v1432h112v-506q74 55 154 72.5t172 17.5q150 0 248 -87t98 -239v-690h-112v647q0 142 -70.5 203t-200.5 61q-93 0 -170 -30.5t-119 -81.5v-799h-112z" />
<glyph unicode="i" horiz-adv-x="440" d="M164 0v993h112v-993h-112zM164 1206v131h112v-131h-112z" />
<glyph unicode="j" horiz-adv-x="489" d="M-102 -375l51 101q76 -39 117 -39q69 0 108 33t39 130v1143h113v-1145q0 -270 -236 -270q-115 0 -192 47zM213 1206v131h113v-131h-113z" />
<glyph unicode="k" horiz-adv-x="989" d="M164 0v1432h112v-854l490 413h158l-523 -442l545 -549h-151l-519 516v-516h-112z" />
<glyph unicode="l" horiz-adv-x="458" d="M164 221v1211h112v-1192q0 -77 36 -109.5t118 -40.5l-22 -102q-244 6 -244 233z" />
<glyph unicode="m" horiz-adv-x="1714" d="M164 0v993h82l28 -108q108 131 301 131q221 0 299 -162q65 89 151 125.5t204 36.5q147 0 238.5 -83t91.5 -226v-707h-113v674q0 239 -260 239q-114 0 -191 -64t-77 -161v-688h-113v692q0 115 -68.5 168t-189.5 53q-115 0 -193 -64.5t-78 -174.5v-674h-112z" />
<glyph unicode="n" horiz-adv-x="1110" d="M164 0v993h84l26 -110q64 79 141.5 106t190.5 27q152 0 250 -84t98 -236v-696h-112v647q0 76 -20.5 129t-59.5 82t-87 41t-112 12q-126 0 -206.5 -65.5t-80.5 -188.5v-657h-112z" />
<glyph unicode="o" horiz-adv-x="1206" d="M127 496q0 242 128.5 381t346.5 139t347.5 -139.5t129.5 -380.5t-129.5 -380t-347.5 -139t-346.5 138.5t-128.5 380.5zM242 496q0 -198 90.5 -306t269.5 -108q180 0 271.5 108.5t91.5 305.5q0 196 -92 305.5t-271 109.5t-269.5 -109t-90.5 -306z" />
<glyph unicode="p" horiz-adv-x="1165" d="M164 -408v1401h76l30 -116q69 84 155.5 111.5t192.5 27.5q198 0 309 -138t111 -376t-121 -381.5t-329 -143.5q-173 0 -312 64v-449h-112zM276 160q142 -78 287 -78q176 0 269.5 109.5t93.5 312.5t-82 304t-262 101q-136 0 -221 -74.5t-85 -193.5v-481z" />
<glyph unicode="q" horiz-adv-x="1167" d="M127 500q0 238 126 377t329 139q216 0 315 -133l27 110h80v-1401h-113v447q-134 -62 -301 -62q-219 0 -341 136.5t-122 386.5zM242 502q0 -207 90.5 -314.5t267.5 -107.5q158 0 291 74v481q0 123 -78.5 199.5t-220.5 76.5q-167 0 -258.5 -107.5t-91.5 -301.5z" />
<glyph unicode="r" horiz-adv-x="806" d="M164 0v993h84l20 -121q53 72 118.5 108t162.5 36q108 0 192 -51l-45 -101q-71 41 -164 41q-120 0 -188 -72.5t-68 -199.5v-633h-112z" />
<glyph unicode="s" horiz-adv-x="929" d="M82 98l61 97q120 -113 316 -113q256 0 256 180q0 27 -8.5 49.5t-19 38.5t-34.5 31t-40 23.5t-52 19.5t-54 16t-61 15q-144 36 -203 68q-130 70 -130 216q0 119 92.5 198t249.5 79q217 0 344 -94l-58 -88q-55 42 -121 60.5t-159 18.5q-109 0 -171.5 -41.5t-62.5 -121.5 q0 -25 8 -46.5t17.5 -36.5t32 -29t37.5 -22t49 -18.5t51 -15t59 -15.5q40 -10 55 -14t53 -15.5t55 -19t48 -22.5t46.5 -29t36.5 -35.5t31 -44.5t17.5 -53.5t7.5 -65.5q0 -126 -94 -208.5t-262 -82.5q-252 0 -393 121z" />
<glyph unicode="t" horiz-adv-x="686" d="M68 889v104h176v236h112v-236h246v-104h-246v-653q0 -150 136 -150q48 0 108 31l39 -101q-80 -39 -180 -39q-99 0 -157 62.5t-58 167.5v682h-176z" />
<glyph unicode="u" horiz-adv-x="1110" d="M156 299v694h112v-649q0 -75 20.5 -127t60 -80t87 -39.5t111.5 -11.5q126 0 206.5 64.5t80.5 185.5v657h112v-993h-80l-26 113q-71 -80 -144 -106.5t-194 -26.5q-149 0 -247.5 84t-98.5 235z" />
<glyph unicode="v" horiz-adv-x="1028" d="M59 993h119l334 -874l336 874h121l-396 -993h-120z" />
<glyph unicode="w" horiz-adv-x="1507" d="M53 993h115l274 -874l258 874h109l256 -874l274 874h115l-319 -993h-131l-250 823l-244 -823h-133z" />
<glyph unicode="x" horiz-adv-x="980" d="M53 0l367 508l-354 485h131l295 -401l294 401h125l-352 -485l369 -508h-131l-305 426l-306 -426h-133z" />
<glyph unicode="y" horiz-adv-x="1021" d="M57 993h123l346 -862l320 862h119l-463 -1206q-41 -105 -105.5 -157t-160.5 -52q-39 0 -97 14l23 109q54 -12 69 -12q61 0 102 30.5t70 100.5l70 172z" />
<glyph unicode="z" horiz-adv-x="915" d="M82 0v102l594 787h-586v104h735v-96l-602 -793h615v-104h-756z" />
<glyph unicode="{" horiz-adv-x="591" d="M78 444v80q133 19 133 160v442q0 127 59.5 195t192.5 68h51v-91h-39q-153 0 -153 -149v-477q0 -146 -140 -187q69 -11 104.5 -62.5t35.5 -123.5v-479q0 -81 37.5 -115.5t107.5 -34.5h47v-92h-49q-135 0 -194.5 64.5t-59.5 195.5v449q0 141 -133 157z" />
<glyph unicode="|" horiz-adv-x="514" d="M205 -270v1781h104v-1781h-104z" />
<glyph unicode="}" horiz-adv-x="591" d="M78 -330h47q70 0 107.5 34.5t37.5 115.5v479q0 72 35.5 123.5t104.5 62.5q-140 41 -140 187v477q0 149 -153 149h-39v91h51q133 0 192.5 -68t59.5 -195v-442q0 -141 133 -160v-80q-133 -16 -133 -157v-449q0 -131 -59.5 -195.5t-194.5 -64.5h-49v92z" />
<glyph unicode="~" horiz-adv-x="1247" d="M143 578q26 115 100 187.5t179 72.5q49 0 98.5 -19t78.5 -38.5t69 -51.5q34 -27 50.5 -39t46.5 -24.5t58 -12.5q44 0 76 15.5t52 45t31.5 61t21.5 75.5l98 -45q-27 -121 -99 -193.5t-178 -72.5q-46 0 -90.5 16.5t-70 33t-70.5 50.5q-7 5 -30.5 23.5t-33 24.5t-29 17 t-38 15t-39.5 4q-131 0 -178 -197z" />
<glyph unicode="&#xa1;" horiz-adv-x="452" d="M102 0l33 1069h80l33 -1069h-146zM106 1219v147h138v-147h-138z" />
<glyph unicode="&#xa2;" d="M137 707q0 212 105 349.5t290 157.5v152h97v-152q193 -9 305 -133l-74 -71q-89 103 -231 106v-819q71 3 125.5 27t109.5 82l72 -68q-72 -65 -143.5 -99t-163.5 -40v-156h-97v158q-193 15 -294 150.5t-101 355.5zM248 707q0 -180 70 -284.5t214 -121.5v813 q-143 -18 -213.5 -125.5t-70.5 -281.5z" />
<glyph unicode="&#xa3;" horiz-adv-x="1107" d="M80 561v82h207q-123 185 -123 358q0 169 103.5 277t279.5 108q130 0 217.5 -36.5t150.5 -135.5l-92 -63q-42 67 -105.5 99t-160.5 32q-122 0 -198 -75.5t-76 -202.5q0 -80 23 -145t106 -216h297v-82h-269q31 -95 31 -145q0 -190 -119 -275q21 9 56 9q56 0 165 -30 t177 -30q83 0 168 64l53 -101q-83 -73 -219 -73q-62 0 -178 36.5t-181 36.5q-97 0 -219 -67l-41 80q115 62 172 154t57 194q0 66 -38 147h-244z" />
<glyph unicode="&#xa4;" horiz-adv-x="942" d="M92 412l144 145q-52 71 -52 166t54 168l-146 145l66 68l145 -148q73 54 168 54q92 0 166 -52l145 146l68 -68l-145 -145q53 -75 53 -168q0 -97 -53 -168l145 -143l-68 -68l-145 145q-73 -51 -166 -51q-95 0 -168 51l-145 -145zM279 723q0 -80 56.5 -136.5t135.5 -56.5 t136 57t57 136t-56.5 135.5t-136.5 56.5q-79 0 -135.5 -56.5t-56.5 -135.5z" />
<glyph unicode="&#xa5;" horiz-adv-x="1239" d="M53 1366h129l412 -674l410 674h133l-437 -698h318v-90h-367v-154h367v-90h-367v-334h-116v334h-363v90h363v154h-363v90h309z" />
<glyph unicode="&#xa6;" horiz-adv-x="512" d="M205 -66v641h102v-641h-102zM205 791v641h102v-641h-102z" />
<glyph unicode="&#xa7;" horiz-adv-x="972" d="M123 -45l57 86q106 -115 305 -115q246 0 246 174q0 28 -8 52t-18.5 41t-34 33.5t-40.5 26.5t-54 23t-58.5 19.5t-68.5 19.5q-36 10 -53 15.5t-50.5 16.5t-51 19t-45 22.5t-42.5 28t-33.5 33t-28 40.5t-16 48t-6.5 58q0 101 81 171t210 91q-256 83 -256 264q0 121 86 195 t241 74q121 0 197 -22.5t133 -76.5l-61 -84q-98 88 -250 88q-106 0 -172 -36.5t-66 -118.5q0 -35 15 -63t35.5 -46.5t58.5 -36t67.5 -27.5t79.5 -24q44 -12 75.5 -23t73 -29t70.5 -40t55.5 -51.5t40 -69t13.5 -86.5q0 -164 -217 -264q109 -39 159 -103.5t50 -160.5 q0 -142 -97 -215.5t-260 -73.5q-228 0 -362 127zM233 623q0 -22 5 -41t11 -33.5t21 -28.5t26.5 -23.5t36.5 -20.5t40.5 -17.5t50.5 -16.5t54.5 -15.5t62.5 -16.5q198 84 198 213q0 81 -49.5 120.5t-165.5 69.5q-137 -15 -214 -64t-77 -126z" />
<glyph unicode="&#xa8;" horiz-adv-x="655" d="M82 1159v150h137v-150h-137zM436 1159v150h137v-150h-137z" />
<glyph unicode="&#xa9;" horiz-adv-x="1609" d="M100 684q0 191 94.5 353.5t257 257t353.5 94.5q143 0 273.5 -56t225 -150.5t150 -225t55.5 -273.5t-55.5 -273.5t-150 -225t-225 -150t-273.5 -55.5t-273.5 55.5t-225 150t-150.5 225t-56 273.5zM184 684q0 -168 83.5 -311t226.5 -226.5t311 -83.5t311 83.5t226 226.5 t83 311t-83 311t-226 226.5t-311 83.5t-311 -83.5t-226.5 -226.5t-83.5 -311zM401 686q0 200 113.5 323.5t292.5 123.5q202 0 311 -136l-69 -73q-78 112 -244 112q-134 0 -214.5 -94.5t-80.5 -255.5q0 -155 83 -252.5t212 -97.5q70 0 138 30t108 85l71 -74 q-146 -139 -315 -139q-178 0 -292 125.5t-114 322.5z" />
<glyph unicode="&#xaa;" horiz-adv-x="714" d="M102 918q0 94 64.5 147t161.5 53h190v47q0 67 -40 106.5t-120 39.5q-114 0 -176 -68l-51 68q89 78 238 78q108 0 175.5 -55t67.5 -165v-442h-65l-12 70q-84 -84 -216 -84q-91 0 -154 53.5t-63 151.5zM197 918q0 -57 41 -89t110 -32q73 0 121.5 35t48.5 104v102h-172 q-66 0 -107.5 -30.5t-41.5 -89.5z" />
<glyph unicode="&#xab;" horiz-adv-x="837" d="M51 477l256 363h107l-228 -363l228 -368h-107zM385 477l256 363h104l-227 -363l227 -368h-104z" />
<glyph unicode="&#xac;" horiz-adv-x="1232" d="M143 782v105h938v-545h-106v440h-832z" />
<glyph unicode="&#xad;" horiz-adv-x="684" d="M109 567v121h466v-121h-466z" />
<glyph unicode="&#xae;" horiz-adv-x="937" d="M117 1047q0 148 102 249t250 101q149 0 250.5 -101t101.5 -249t-102 -249.5t-250 -101.5q-149 0 -250.5 101.5t-101.5 249.5zM164 1047q0 -128 89 -217t216 -89t216 89t89 217q0 127 -89 216t-216 89t-216 -89t-89 -216zM330 844v409h174q53 0 88 -34.5t35 -90.5 q0 -55 -30 -86.5t-62 -35.5l96 -162h-68l-92 155h-82v-155h-59zM389 1055h113q28 0 46.5 20t18.5 51q0 32 -18.5 53t-46.5 21h-113v-145z" />
<glyph unicode="&#xaf;" horiz-adv-x="655" d="M74 1194v98h508v-98h-508z" />
<glyph unicode="&#xb0;" horiz-adv-x="565" d="M92 1198q0 78 56.5 134.5t134.5 56.5t134 -56.5t56 -134.5t-56 -134t-134 -56t-134.5 56t-56.5 134zM174 1198q0 -44 32.5 -76t76.5 -32t76 32t32 76t-32 76.5t-76 32.5t-76.5 -32.5t-32.5 -76.5z" />
<glyph unicode="&#xb1;" horiz-adv-x="1230" d="M143 0v104h944v-104h-944zM143 635v102h420v402h103v-402h419v-102h-419v-406h-103v406h-420z" />
<glyph unicode="&#xb2;" horiz-adv-x="698" d="M90 1253q49 70 109.5 97.5t148.5 27.5q113 0 181.5 -61.5t68.5 -177.5q0 -58 -23.5 -114.5t-74.5 -117.5t-108 -115.5t-148 -132.5h358v-90h-504v82q226 193 314 294t88 194q0 73 -42.5 111t-113.5 38q-63 0 -105 -22.5t-75 -75.5z" />
<glyph unicode="&#xb3;" horiz-adv-x="702" d="M76 682l67 68q39 -56 83 -80.5t112 -24.5q86 0 130 39.5t44 110.5q0 70 -41.5 103.5t-128.5 33.5h-76v88h84q67 0 107.5 34.5t40.5 98.5q0 65 -39 101t-117 36q-117 0 -197 -90l-61 68q107 110 262 110q117 0 183.5 -59t66.5 -160q0 -124 -104 -178q118 -47 118 -188 q0 -103 -72.5 -170.5t-195.5 -67.5q-176 0 -266 127z" />
<glyph unicode="&#xb4;" horiz-adv-x="655" d="M137 1139l201 239h180l-264 -239h-117z" />
<glyph unicode="&#xb5;" horiz-adv-x="1157" d="M164 -307v1300h112v-649q0 -75 20.5 -127t60 -80t87 -39.5t111.5 -11.5q125 0 206 65.5t81 182.5v659h112v-993h-86l-26 115q-65 -79 -135 -108.5t-177 -29.5q-164 0 -266 115l19 -399h-119z" />
<glyph unicode="&#xb6;" horiz-adv-x="1015" d="M123 1008q0 159 85.5 258.5t223.5 99.5h461v-1571h-121v1479h-133v-1479h-121v854h-82q-144 0 -228.5 99t-84.5 260z" />
<glyph unicode="&#xb7;" horiz-adv-x="378" d="M123 569v160h133v-160h-133z" />
<glyph unicode="&#xb8;" horiz-adv-x="655" d="M115 -379q6 15 19.5 41.5t15.5 30.5q56 -37 149 -37q56 0 89.5 23.5t33.5 70.5q0 37 -27.5 54.5t-72.5 17.5q-58 0 -89 -25l-65 45l90 160h92l-67 -115q46 15 94 15q78 0 120 -42.5t42 -107.5q0 -78 -59.5 -127t-157.5 -49q-137 0 -207 45z" />
<glyph unicode="&#xb9;" horiz-adv-x="411" d="M66 1278v88h229v-797h-96v709h-133z" />
<glyph unicode="&#xba;" horiz-adv-x="819" d="M102 1051q0 153 84.5 244t223.5 91q140 0 223.5 -91t83.5 -244q0 -152 -84 -244t-223 -92q-138 0 -223 92t-85 244zM201 1051q0 -117 53 -183.5t156 -66.5t159 67t56 183t-56 182.5t-159 66.5q-100 0 -154.5 -66.5t-54.5 -182.5z" />
<glyph unicode="&#xbb;" horiz-adv-x="839" d="M92 109l227 368l-227 363h107l256 -363l-256 -368h-107zM426 109l227 368l-227 363h106l256 -363l-256 -368h-106z" />
<glyph unicode="&#xbc;" horiz-adv-x="1341" d="M66 1278v88h229v-797h-96v709h-133zM166 0l829 1366h92l-831 -1366h-90zM711 207v82l348 508h115v-502h96v-88h-96v-207h-97v207h-366zM823 295h254v385z" />
<glyph unicode="&#xbd;" horiz-adv-x="1499" d="M66 1278v88h229v-797h-96v709h-133zM166 0l829 1366h92l-831 -1366h-90zM889 686q51 67 111.5 94t148.5 27q113 0 181.5 -61t68.5 -177q0 -58 -23.5 -114.5t-75 -118t-108.5 -116t-148 -132.5h359v-88h-504v82q226 193 313.5 293.5t87.5 193.5q0 73 -41.5 110.5 t-111.5 37.5q-65 0 -107.5 -22t-76.5 -72z" />
<glyph unicode="&#xbe;" horiz-adv-x="1542" d="M76 680l67 61q42 -59 84 -77.5t115 -18.5q86 0 131 40.5t45 111.5q0 139 -172 139h-76v86h84q67 0 108.5 34.5t41.5 98.5q0 63 -42.5 98t-121.5 35q-130 0 -195 -78l-61 68q55 56 117.5 77t146.5 21q118 0 185 -57.5t67 -157.5q0 -124 -104 -178q118 -47 118 -188 q0 -103 -72.5 -170.5t-195.5 -67.5q-192 0 -270 123zM383 0l829 1366h93l-832 -1366h-90zM911 207v82l349 508h114v-502h96v-88h-96v-207h-96v207h-367zM1024 295h254v385z" />
<glyph unicode="&#xbf;" horiz-adv-x="905" d="M117 344q0 94 29 167.5t78 117t107 66t122 22.5l18 352h84l20 -444h-53q-133 0 -206.5 -68.5t-73.5 -212.5q0 -65 27 -121.5t87.5 -95.5t145.5 -39q177 0 256 150l100 -66q-107 -195 -362 -195q-93 0 -167.5 32t-119.5 85t-68.5 117t-23.5 133zM446 1219v147h138v-147 h-138z" />
<glyph unicode="&#xc0;" horiz-adv-x="1210" d="M45 0l490 1366h145l485 -1366h-129l-133 383h-596l-133 -383h-129zM330 1730h180l201 -239h-117zM344 492h520l-258 747z" />
<glyph unicode="&#xc1;" horiz-adv-x="1210" d="M45 0l490 1366h145l485 -1366h-129l-133 383h-596l-133 -383h-129zM344 492h520l-258 747zM506 1491l201 239h180l-264 -239h-117z" />
<glyph unicode="&#xc2;" horiz-adv-x="1210" d="M45 0l490 1366h145l485 -1366h-129l-133 383h-596l-133 -383h-129zM344 492h520l-258 747zM348 1491l191 293h143l195 -293h-103l-165 198l-158 -198h-103z" />
<glyph unicode="&#xc3;" horiz-adv-x="1210" d="M45 0l490 1366h145l485 -1366h-129l-133 383h-596l-133 -383h-129zM297 1558q12 73 64 126.5t119 53.5q51 0 90 -20.5t88 -62.5q18 -14 26 -20t25 -12.5t35 -6.5q39 0 64.5 29.5t33.5 80.5l76 -37q-13 -71 -62.5 -124.5t-115.5 -53.5q-31 0 -59 10t-43 20.5t-38 29.5 q-3 2 -13 11t-13 11.5t-11.5 9.5t-12.5 9t-11.5 7t-13 6.5t-12.5 4t-14 3.5t-15 1q-81 0 -109 -115zM344 492h520l-258 747z" />
<glyph unicode="&#xc4;" horiz-adv-x="1210" d="M45 0l490 1366h145l485 -1366h-129l-133 383h-596l-133 -383h-129zM344 492h520l-258 747zM363 1511v150h137v-150h-137zM717 1511v150h137v-150h-137z" />
<glyph unicode="&#xc5;" horiz-adv-x="1210" d="M45 0l490 1366h145l485 -1366h-129l-133 383h-596l-133 -383h-129zM344 492h520l-258 747zM424 1661q0 82 53.5 137t133.5 55q79 0 132.5 -55t53.5 -137t-53 -136.5t-133 -54.5t-133.5 54.5t-53.5 136.5zM500 1659q0 -50 31 -83.5t78 -33.5q49 0 78.5 33.5t29.5 83.5 q0 49 -30 82.5t-78 33.5q-47 0 -78 -34t-31 -82z" />
<glyph unicode="&#xc6;" horiz-adv-x="1896" d="M31 0l858 1366h876v-111h-682v-505h631v-111h-631v-528h682v-111h-800v383h-557l-238 -383h-139zM479 492h486v774z" />
<glyph unicode="&#xc7;" horiz-adv-x="1259" d="M127 682q0 329 162 519t444 190q153 0 243.5 -29t188.5 -105l-75 -94q-77 68 -158 91.5t-199 23.5q-161 0 -271.5 -75t-162 -207t-51.5 -314q0 -130 28.5 -235.5t86.5 -185.5t152 -123.5t218 -43.5q115 0 192.5 25.5t170.5 101.5l78 -92q-86 -74 -176.5 -111t-231.5 -41 l-53 -92q46 15 94 15q78 0 120 -42.5t42 -107.5q0 -78 -59.5 -127t-157.5 -49q-137 0 -207 45q6 15 19.5 41.5t15.5 30.5q56 -37 149 -37q56 0 89.5 23.5t33.5 70.5q0 37 -27.5 54.5t-72.5 17.5q-57 0 -88 -25l-66 45l78 140q-267 19 -408 202t-141 500z" />
<glyph unicode="&#xc8;" horiz-adv-x="1095" d="M164 0v1366h801v-111h-680v-505h630v-111h-630v-528h680v-111h-801zM289 1730h180l201 -239h-117z" />
<glyph unicode="&#xc9;" horiz-adv-x="1095" d="M164 0v1366h801v-111h-680v-505h630v-111h-630v-528h680v-111h-801zM465 1491l201 239h180l-264 -239h-117z" />
<glyph unicode="&#xca;" horiz-adv-x="1095" d="M164 0v1366h801v-111h-680v-505h630v-111h-630v-528h680v-111h-801zM307 1491l191 293h143l195 -293h-103l-165 198l-158 -198h-103z" />
<glyph unicode="&#xcb;" horiz-adv-x="1095" d="M164 0v1366h801v-111h-680v-505h630v-111h-630v-528h680v-111h-801zM322 1511v150h137v-150h-137zM676 1511v150h137v-150h-137z" />
<glyph unicode="&#xcc;" horiz-adv-x="448" d="M-53 1730h180l201 -239h-117zM164 0v1366h121v-1366h-121z" />
<glyph unicode="&#xcd;" horiz-adv-x="448" d="M123 1491l201 239h180l-264 -239h-117zM164 0v1366h121v-1366h-121z" />
<glyph unicode="&#xce;" horiz-adv-x="448" d="M-35 1491l191 293h143l195 -293h-103l-165 198l-158 -198h-103zM164 0v1366h121v-1366h-121z" />
<glyph unicode="&#xcf;" horiz-adv-x="448" d="M-20 1511v150h137v-150h-137zM164 0v1366h121v-1366h-121zM334 1511v150h137v-150h-137z" />
<glyph unicode="&#xd0;" horiz-adv-x="1433" d="M55 631v88h183v647h448q142 0 258.5 -52.5t193.5 -144.5t118.5 -217t41.5 -270q0 -146 -41.5 -270.5t-118.5 -216t-193.5 -143.5t-258.5 -52h-448v631h-183zM358 111h322q159 0 273.5 78t169.5 205t55 288q0 121 -31.5 224t-92 181.5t-156.5 123t-218 44.5h-322v-536h318 v-88h-318v-520z" />
<glyph unicode="&#xd1;" horiz-adv-x="1357" d="M164 0v1366h143l768 -1196v1196h119v-1366h-143l-766 1192v-1192h-121zM372 1558q12 73 64 126.5t119 53.5q51 0 90 -20.5t88 -62.5q18 -14 26 -20t25 -12.5t35 -6.5q39 0 64.5 29.5t33.5 80.5l76 -37q-13 -71 -62.5 -124.5t-115.5 -53.5q-31 0 -59 10t-43 20.5t-38 29.5 q-3 2 -13 11t-13 11.5t-11.5 9.5t-12.5 9t-11.5 7t-13 6.5t-12.5 4t-14 3.5t-15 1q-81 0 -109 -115z" />
<glyph unicode="&#xd2;" horiz-adv-x="1484" d="M123 686q0 157 39 285.5t115 222t195 144.5t271 51t270 -51t194 -144.5t115.5 -222t39.5 -285.5q0 -153 -38.5 -281t-113.5 -224t-194.5 -150t-272.5 -54q-152 0 -271.5 54t-195 150t-114.5 224t-39 281zM244 686q0 -129 31 -237t91.5 -189t156.5 -126.5t220 -45.5 q123 0 219 45.5t156.5 126.5t91.5 189t31 237q0 132 -28.5 238t-87 185.5t-155.5 123t-227 43.5q-129 0 -226 -43.5t-156 -123t-88 -185.5t-29 -238zM465 1730h180l201 -239h-117z" />
<glyph unicode="&#xd3;" horiz-adv-x="1484" d="M123 686q0 157 39 285.5t115 222t195 144.5t271 51t270 -51t194 -144.5t115.5 -222t39.5 -285.5q0 -153 -38.5 -281t-113.5 -224t-194.5 -150t-272.5 -54q-152 0 -271.5 54t-195 150t-114.5 224t-39 281zM244 686q0 -129 31 -237t91.5 -189t156.5 -126.5t220 -45.5 q123 0 219 45.5t156.5 126.5t91.5 189t31 237q0 132 -28.5 238t-87 185.5t-155.5 123t-227 43.5q-129 0 -226 -43.5t-156 -123t-88 -185.5t-29 -238zM641 1491l201 239h180l-264 -239h-117z" />
<glyph unicode="&#xd4;" horiz-adv-x="1484" d="M123 686q0 157 39 285.5t115 222t195 144.5t271 51t270 -51t194 -144.5t115.5 -222t39.5 -285.5q0 -153 -38.5 -281t-113.5 -224t-194.5 -150t-272.5 -54q-152 0 -271.5 54t-195 150t-114.5 224t-39 281zM244 686q0 -129 31 -237t91.5 -189t156.5 -126.5t220 -45.5 q123 0 219 45.5t156.5 126.5t91.5 189t31 237q0 132 -28.5 238t-87 185.5t-155.5 123t-227 43.5q-129 0 -226 -43.5t-156 -123t-88 -185.5t-29 -238zM483 1491l191 293h143l195 -293h-103l-165 198l-158 -198h-103z" />
<glyph unicode="&#xd5;" horiz-adv-x="1484" d="M123 686q0 157 39 285.5t115 222t195 144.5t271 51t270 -51t194 -144.5t115.5 -222t39.5 -285.5q0 -153 -38.5 -281t-113.5 -224t-194.5 -150t-272.5 -54q-152 0 -271.5 54t-195 150t-114.5 224t-39 281zM244 686q0 -129 31 -237t91.5 -189t156.5 -126.5t220 -45.5 q123 0 219 45.5t156.5 126.5t91.5 189t31 237q0 132 -28.5 238t-87 185.5t-155.5 123t-227 43.5q-129 0 -226 -43.5t-156 -123t-88 -185.5t-29 -238zM432 1558q12 73 64 126.5t119 53.5q51 0 90 -20.5t88 -62.5q18 -14 26 -20t25 -12.5t35 -6.5q39 0 64.5 29.5t33.5 80.5 l76 -37q-13 -71 -62.5 -124.5t-115.5 -53.5q-31 0 -59 10t-43 20.5t-38 29.5q-3 2 -13 11t-13 11.5t-11.5 9.5t-12.5 9t-11.5 7t-13 6.5t-12.5 4t-14 3.5t-15 1q-81 0 -109 -115z" />
<glyph unicode="&#xd6;" horiz-adv-x="1484" d="M123 686q0 157 39 285.5t115 222t195 144.5t271 51t270 -51t194 -144.5t115.5 -222t39.5 -285.5q0 -153 -38.5 -281t-113.5 -224t-194.5 -150t-272.5 -54q-152 0 -271.5 54t-195 150t-114.5 224t-39 281zM244 686q0 -129 31 -237t91.5 -189t156.5 -126.5t220 -45.5 q123 0 219 45.5t156.5 126.5t91.5 189t31 237q0 132 -28.5 238t-87 185.5t-155.5 123t-227 43.5q-129 0 -226 -43.5t-156 -123t-88 -185.5t-29 -238zM498 1511v150h137v-150h-137zM852 1511v150h137v-150h-137z" />
<glyph unicode="&#xd7;" horiz-adv-x="1183" d="M143 74l377 389l-375 391l78 74l369 -389l373 387l75 -72l-374 -391l370 -387l-73 -74l-369 385l-371 -385z" />
<glyph unicode="&#xd8;" horiz-adv-x="1484" d="M123 686q0 157 39 285.5t115 222t195 144.5t271 51q233 0 383 -119l91 119h112l-135 -183q168 -186 168 -520q0 -153 -38.5 -281t-113.5 -224t-194.5 -150t-272.5 -54q-231 0 -381 119l-90 -119h-112l135 181q-172 193 -172 528zM244 686q0 -268 125 -430l690 922 q-125 98 -316 98q-129 0 -226 -43.5t-156 -123t-88 -185.5t-29 -238zM432 190q124 -102 311 -102q123 0 219 45.5t156.5 126.5t91.5 189t31 237q0 275 -119 426z" />
<glyph unicode="&#xd9;" horiz-adv-x="1337" d="M164 498v868h121v-864q0 -207 93 -310.5t288 -103.5q197 0 292 104t95 310v864h121v-866q0 -255 -128 -389t-380 -134t-377 134t-125 387zM397 1730h180l201 -239h-117z" />
<glyph unicode="&#xda;" horiz-adv-x="1337" d="M164 498v868h121v-864q0 -207 93 -310.5t288 -103.5q197 0 292 104t95 310v864h121v-866q0 -255 -128 -389t-380 -134t-377 134t-125 387zM573 1491l201 239h180l-264 -239h-117z" />
<glyph unicode="&#xdb;" horiz-adv-x="1337" d="M164 498v868h121v-864q0 -207 93 -310.5t288 -103.5q197 0 292 104t95 310v864h121v-866q0 -255 -128 -389t-380 -134t-377 134t-125 387zM415 1491l191 293h143l195 -293h-103l-165 198l-158 -198h-103z" />
<glyph unicode="&#xdc;" horiz-adv-x="1337" d="M164 498v868h121v-864q0 -207 93 -310.5t288 -103.5q197 0 292 104t95 310v864h121v-866q0 -255 -128 -389t-380 -134t-377 134t-125 387zM430 1511v150h137v-150h-137zM784 1511v150h137v-150h-137z" />
<glyph unicode="&#xdd;" horiz-adv-x="1193" d="M57 1366h140l401 -659l399 659h140l-482 -780v-586h-120v586zM491 1491l201 239h180l-264 -239h-117z" />
<glyph unicode="&#xde;" horiz-adv-x="1175" d="M164 0v1366h121v-272h368q180 0 283.5 -113t103.5 -291t-105.5 -298t-281.5 -120h-368v-272h-121zM285 383h348q136 0 212.5 86.5t76.5 220.5q0 133 -75.5 214t-213.5 81h-348v-602z" />
<glyph unicode="&#xdf;" horiz-adv-x="1081" d="M164 0v1104q0 161 86.5 253.5t261.5 92.5q147 0 233 -75.5t86 -198.5q0 -45 -11 -83.5t-34.5 -71.5t-42 -52.5t-51.5 -50.5q-35 -31 -53.5 -50.5t-35.5 -49.5t-17 -60q0 -28 11.5 -52t38.5 -47t47 -37t60 -38q97 -60 128 -87q108 -92 108 -235q0 -122 -83.5 -204.5 t-227.5 -82.5q-165 0 -275 74l58 98q83 -65 211 -65q84 0 144 44.5t60 125.5q0 45 -12.5 80t-41.5 63.5t-52.5 44.5t-69.5 44q-13 8 -20 12q-40 23 -60.5 36t-53 39t-49 49t-29.5 58t-13 74q0 40 11 74.5t38 69t39.5 47.5t48.5 48q37 36 54.5 54t38 53.5t20.5 66.5 q0 84 -59 128t-156 44q-98 0 -161 -54t-63 -167v-1116h-112z" />
<glyph unicode="&#xe0;" d="M111 281q0 147 97.5 228t246.5 81h331v82q0 119 -66.5 180t-211.5 61q-177 0 -279 -98l-65 90q67 59 148.5 85t207.5 26q82 0 149.5 -20t119.5 -59.5t81 -104.5t29 -150v-682h-80l-22 109q-37 -39 -79.5 -65.5t-73.5 -39.5t-75 -19.5t-63.5 -7t-59.5 -0.5 q-67 0 -125.5 18t-106 53.5t-75.5 95.5t-28 137zM225 281q0 -101 74.5 -153t194.5 -52q125 0 208.5 59t83.5 180v172h-299q-123 0 -192.5 -51.5t-69.5 -154.5zM246 1378h180l201 -239h-117z" />
<glyph unicode="&#xe1;" d="M111 281q0 147 97.5 228t246.5 81h331v82q0 119 -66.5 180t-211.5 61q-177 0 -279 -98l-65 90q67 59 148.5 85t207.5 26q82 0 149.5 -20t119.5 -59.5t81 -104.5t29 -150v-682h-80l-22 109q-37 -39 -79.5 -65.5t-73.5 -39.5t-75 -19.5t-63.5 -7t-59.5 -0.5 q-67 0 -125.5 18t-106 53.5t-75.5 95.5t-28 137zM225 281q0 -101 74.5 -153t194.5 -52q125 0 208.5 59t83.5 180v172h-299q-123 0 -192.5 -51.5t-69.5 -154.5zM422 1139l201 239h180l-264 -239h-117z" />
<glyph unicode="&#xe2;" d="M111 281q0 147 97.5 228t246.5 81h331v82q0 119 -66.5 180t-211.5 61q-177 0 -279 -98l-65 90q67 59 148.5 85t207.5 26q82 0 149.5 -20t119.5 -59.5t81 -104.5t29 -150v-682h-80l-22 109q-37 -39 -79.5 -65.5t-73.5 -39.5t-75 -19.5t-63.5 -7t-59.5 -0.5 q-67 0 -125.5 18t-106 53.5t-75.5 95.5t-28 137zM225 281q0 -101 74.5 -153t194.5 -52q125 0 208.5 59t83.5 180v172h-299q-123 0 -192.5 -51.5t-69.5 -154.5zM264 1139l191 293h143l195 -293h-103l-166 198l-157 -198h-103z" />
<glyph unicode="&#xe3;" d="M111 281q0 147 97.5 228t246.5 81h331v82q0 119 -66.5 180t-211.5 61q-177 0 -279 -98l-65 90q67 59 148.5 85t207.5 26q82 0 149.5 -20t119.5 -59.5t81 -104.5t29 -150v-682h-80l-22 109q-37 -39 -79.5 -65.5t-73.5 -39.5t-75 -19.5t-63.5 -7t-59.5 -0.5 q-67 0 -125.5 18t-106 53.5t-75.5 95.5t-28 137zM213 1206q12 73 63.5 126.5t118.5 53.5q51 0 90 -20.5t88 -62.5q18 -14 26 -20t25 -12.5t35 -6.5q39 0 65 30t34 80l76 -37q-13 -71 -63 -124.5t-116 -53.5q-31 0 -58.5 10t-42.5 20.5t-38 29.5q-53 45 -75 54q-20 9 -42 9 q-80 0 -108 -115zM225 281q0 -101 74.5 -153t194.5 -52q125 0 208.5 59t83.5 180v172h-299q-123 0 -192.5 -51.5t-69.5 -154.5z" />
<glyph unicode="&#xe4;" d="M111 281q0 147 97.5 228t246.5 81h331v82q0 119 -66.5 180t-211.5 61q-177 0 -279 -98l-65 90q67 59 148.5 85t207.5 26q82 0 149.5 -20t119.5 -59.5t81 -104.5t29 -150v-682h-80l-22 109q-37 -39 -79.5 -65.5t-73.5 -39.5t-75 -19.5t-63.5 -7t-59.5 -0.5 q-67 0 -125.5 18t-106 53.5t-75.5 95.5t-28 137zM225 281q0 -101 74.5 -153t194.5 -52q125 0 208.5 59t83.5 180v172h-299q-123 0 -192.5 -51.5t-69.5 -154.5zM279 1159v150h137v-150h-137zM633 1159v150h137v-150h-137z" />
<glyph unicode="&#xe5;" d="M111 281q0 147 97.5 228t246.5 81h331v82q0 119 -66.5 180t-211.5 61q-177 0 -279 -98l-65 90q67 59 148.5 85t207.5 26q82 0 149.5 -20t119.5 -59.5t81 -104.5t29 -150v-682h-80l-22 109q-37 -39 -79.5 -65.5t-73.5 -39.5t-75 -19.5t-63.5 -7t-59.5 -0.5 q-67 0 -125.5 18t-106 53.5t-75.5 95.5t-28 137zM225 281q0 -101 74.5 -153t194.5 -52q125 0 208.5 59t83.5 180v172h-299q-123 0 -192.5 -51.5t-69.5 -154.5zM340 1309q0 82 53.5 137t132.5 55q80 0 133.5 -55t53.5 -137t-53.5 -136.5t-133.5 -54.5t-133 54.5t-53 136.5z M416 1307q0 -50 30.5 -83.5t77.5 -33.5q49 0 79 33.5t30 83.5q0 49 -30.5 82.5t-78.5 33.5q-47 0 -77.5 -34t-30.5 -82z" />
<glyph unicode="&#xe6;" horiz-adv-x="1806" d="M111 276q0 147 97.5 228.5t246.5 81.5h342v84q0 117 -73.5 181t-217.5 64q-171 0 -283 -98l-57 88q75 60 155 85.5t195 25.5q264 0 352 -193q56 91 151 142t214 51q448 0 448 -492v-65h-776v-25q0 -165 90 -259.5t252 -94.5q83 0 145.5 27.5t120.5 87.5l72 -78 q-154 -140 -338 -140q-128 0 -219 43.5t-156 149.5q-67 -113 -164 -154t-235 -41q-162 0 -262 77t-100 224zM223 281q0 -102 73.5 -154.5t195.5 -52.5q59 0 112 13.5t97 41t70 75t26 109.5v174h-310q-119 0 -191.5 -52t-72.5 -154zM905 563h666v21q-1 68 -19.5 125 t-56.5 104t-104.5 73.5t-155.5 26.5q-87 0 -153.5 -30t-103.5 -79t-55 -103.5t-18 -110.5v-27z" />
<glyph unicode="&#xe7;" horiz-adv-x="1019" d="M125 496q0 232 124.5 376t338.5 144q229 0 356 -142l-80 -71q-53 58 -119 84t-155 26q-171 0 -260.5 -113.5t-89.5 -303.5q0 -199 88.5 -308.5t265.5 -109.5q86 0 152 27.5t126 91.5l76 -80q-77 -73 -154 -105t-184 -35l-53 -90q46 15 94 15q78 0 120 -42.5t42 -107.5 q0 -78 -59.5 -127t-157.5 -49q-137 0 -207 45q6 15 19.5 41.5t15.5 30.5q56 -37 149 -37q56 0 89.5 23.5t33.5 70.5q0 37 -27.5 54.5t-72.5 17.5q-57 0 -88 -25l-66 45l78 140q-193 18 -294 155.5t-101 358.5z" />
<glyph unicode="&#xe8;" horiz-adv-x="1165" d="M127 498q0 148 51.5 264t156 185t247.5 69q231 0 344.5 -131t113.5 -363v-63h-794q13 -377 350 -377q90 0 157.5 28t125.5 89l73 -82q-152 -140 -364 -140q-230 0 -345.5 137.5t-115.5 383.5zM248 563h680q-1 76 -19 136.5t-56.5 109.5t-106 75.5t-160.5 26.5 q-74 0 -134 -23t-97 -59t-62 -83.5t-35 -92.5t-10 -90zM305 1378h180l201 -239h-117z" />
<glyph unicode="&#xe9;" horiz-adv-x="1165" d="M127 498q0 148 51.5 264t156 185t247.5 69q231 0 344.5 -131t113.5 -363v-63h-794q13 -377 350 -377q90 0 157.5 28t125.5 89l73 -82q-152 -140 -364 -140q-230 0 -345.5 137.5t-115.5 383.5zM248 563h680q-1 76 -19 136.5t-56.5 109.5t-106 75.5t-160.5 26.5 q-74 0 -134 -23t-97 -59t-62 -83.5t-35 -92.5t-10 -90zM481 1139l201 239h180l-264 -239h-117z" />
<glyph unicode="&#xea;" horiz-adv-x="1165" d="M127 498q0 148 51.5 264t156 185t247.5 69q231 0 344.5 -131t113.5 -363v-63h-794q13 -377 350 -377q90 0 157.5 28t125.5 89l73 -82q-152 -140 -364 -140q-230 0 -345.5 137.5t-115.5 383.5zM248 563h680q-1 76 -19 136.5t-56.5 109.5t-106 75.5t-160.5 26.5 q-74 0 -134 -23t-97 -59t-62 -83.5t-35 -92.5t-10 -90zM324 1139l190 293h143l195 -293h-102l-166 198l-158 -198h-102z" />
<glyph unicode="&#xeb;" horiz-adv-x="1165" d="M127 498q0 148 51.5 264t156 185t247.5 69q231 0 344.5 -131t113.5 -363v-63h-794q13 -377 350 -377q90 0 157.5 28t125.5 89l73 -82q-152 -140 -364 -140q-230 0 -345.5 137.5t-115.5 383.5zM248 563h680q-1 76 -19 136.5t-56.5 109.5t-106 75.5t-160.5 26.5 q-74 0 -134 -23t-97 -59t-62 -83.5t-35 -92.5t-10 -90zM338 1159v150h137v-150h-137zM692 1159v150h137v-150h-137z" />
<glyph unicode="&#xec;" horiz-adv-x="440" d="M-57 1378h180l201 -239h-117zM164 0v993h112v-993h-112z" />
<glyph unicode="&#xed;" horiz-adv-x="440" d="M119 1139l200 239h181l-264 -239h-117zM164 0v993h112v-993h-112z" />
<glyph unicode="&#xee;" horiz-adv-x="440" d="M-39 1139l191 293h143l194 -293h-102l-166 198l-158 -198h-102zM164 0v993h112v-993h-112z" />
<glyph unicode="&#xef;" horiz-adv-x="440" d="M-25 1159v150h138v-150h-138zM164 0v993h112v-993h-112zM330 1159v150h137v-150h-137z" />
<glyph unicode="&#xf0;" horiz-adv-x="1204" d="M127 475q0 231 121.5 373.5t335.5 142.5q55 0 82.5 -1.5t69.5 -9.5t79 -28t78 -53q-35 87 -90.5 158.5t-140.5 148.5l-173 -133l-53 68l162 121q-94 71 -170 106l64 70q107 -55 182 -113l141 111l53 -68l-131 -98q175 -155 257.5 -334t82.5 -428q0 -243 -129 -387 t-346 -144q-222 0 -348.5 131.5t-126.5 366.5zM240 475q0 -194 90.5 -294.5t271.5 -100.5q180 0 273.5 111.5t93.5 308.5q0 191 -91 291t-276 100q-179 0 -270.5 -109t-91.5 -307z" />
<glyph unicode="&#xf1;" horiz-adv-x="1110" d="M164 0v993h84l26 -110q64 79 141.5 106t190.5 27q152 0 250 -84t98 -236v-696h-112v647q0 76 -20.5 129t-59.5 82t-87 41t-112 12q-126 0 -206.5 -65.5t-80.5 -188.5v-657h-112zM246 1206q12 73 63.5 126.5t118.5 53.5q51 0 90 -20.5t88 -62.5q18 -14 26 -20t25 -12.5 t35 -6.5q39 0 65 30t34 80l75 -37q-13 -71 -62.5 -124.5t-115.5 -53.5q-31 0 -58.5 10t-42.5 20.5t-38 29.5q-53 45 -75 54q-20 9 -42 9q-80 0 -108 -115z" />
<glyph unicode="&#xf2;" horiz-adv-x="1206" d="M127 496q0 242 128.5 381t346.5 139t347.5 -139.5t129.5 -380.5t-129.5 -380t-347.5 -139t-346.5 138.5t-128.5 380.5zM242 496q0 -198 90.5 -306t269.5 -108q180 0 271.5 108.5t91.5 305.5q0 196 -92 305.5t-271 109.5t-269.5 -109t-90.5 -306zM324 1378h180l201 -239 h-117z" />
<glyph unicode="&#xf3;" horiz-adv-x="1206" d="M127 496q0 242 128.5 381t346.5 139t347.5 -139.5t129.5 -380.5t-129.5 -380t-347.5 -139t-346.5 138.5t-128.5 380.5zM242 496q0 -198 90.5 -306t269.5 -108q180 0 271.5 108.5t91.5 305.5q0 196 -92 305.5t-271 109.5t-269.5 -109t-90.5 -306zM500 1139l200 239h181 l-265 -239h-116z" />
<glyph unicode="&#xf4;" horiz-adv-x="1206" d="M127 496q0 242 128.5 381t346.5 139t347.5 -139.5t129.5 -380.5t-129.5 -380t-347.5 -139t-346.5 138.5t-128.5 380.5zM242 496q0 -198 90.5 -306t269.5 -108q180 0 271.5 108.5t91.5 305.5q0 196 -92 305.5t-271 109.5t-269.5 -109t-90.5 -306zM342 1139l190 293h144 l194 -293h-102l-166 198l-158 -198h-102z" />
<glyph unicode="&#xf5;" horiz-adv-x="1206" d="M127 496q0 242 128.5 381t346.5 139t347.5 -139.5t129.5 -380.5t-129.5 -380t-347.5 -139t-346.5 138.5t-128.5 380.5zM242 496q0 -198 90.5 -306t269.5 -108q180 0 271.5 108.5t91.5 305.5q0 196 -92 305.5t-271 109.5t-269.5 -109t-90.5 -306zM291 1206 q12 73 63.5 126.5t118.5 53.5q51 0 90 -20.5t88 -62.5q18 -14 26 -20t25 -12.5t35 -6.5q39 0 65 30t34 80l75 -37q-13 -71 -62.5 -124.5t-115.5 -53.5q-31 0 -58.5 10t-42.5 20.5t-38 29.5q-53 45 -75 54q-20 9 -42 9q-80 0 -108 -115z" />
<glyph unicode="&#xf6;" horiz-adv-x="1206" d="M127 496q0 242 128.5 381t346.5 139t347.5 -139.5t129.5 -380.5t-129.5 -380t-347.5 -139t-346.5 138.5t-128.5 380.5zM242 496q0 -198 90.5 -306t269.5 -108q180 0 271.5 108.5t91.5 305.5q0 196 -92 305.5t-271 109.5t-269.5 -109t-90.5 -306zM356 1159v150h138v-150 h-138zM711 1159v150h137v-150h-137z" />
<glyph unicode="&#xf7;" horiz-adv-x="1241" d="M143 432v103h942v-103h-942zM541 43v160h137v-160h-137zM541 766v160h137v-160h-137z" />
<glyph unicode="&#xf8;" horiz-adv-x="1206" d="M127 496q0 242 128.5 381t346.5 139q158 0 277 -80l59 80h100l-98 -131q139 -142 139 -389q0 -241 -129.5 -380t-347.5 -139q-161 0 -280 80l-60 -80h-100l98 134q-133 136 -133 385zM240 496q0 -193 86 -299l491 657q-86 59 -215 59q-179 0 -270.5 -110t-91.5 -307z M385 141q83 -59 217 -59q180 0 272.5 108.5t92.5 305.5q0 193 -90 303z" />
<glyph unicode="&#xf9;" horiz-adv-x="1110" d="M156 299v694h112v-649q0 -75 20.5 -127t60 -80t87 -39.5t111.5 -11.5q126 0 206.5 64.5t80.5 185.5v657h112v-993h-80l-26 113q-71 -80 -144 -106.5t-194 -26.5q-149 0 -247.5 84t-98.5 235zM270 1378h181l200 -239h-116z" />
<glyph unicode="&#xfa;" horiz-adv-x="1110" d="M156 299v694h112v-649q0 -75 20.5 -127t60 -80t87 -39.5t111.5 -11.5q126 0 206.5 64.5t80.5 185.5v657h112v-993h-80l-26 113q-71 -80 -144 -106.5t-194 -26.5q-149 0 -247.5 84t-98.5 235zM446 1139l201 239h180l-264 -239h-117z" />
<glyph unicode="&#xfb;" horiz-adv-x="1110" d="M156 299v694h112v-649q0 -75 20.5 -127t60 -80t87 -39.5t111.5 -11.5q126 0 206.5 64.5t80.5 185.5v657h112v-993h-80l-26 113q-71 -80 -144 -106.5t-194 -26.5q-149 0 -247.5 84t-98.5 235zM289 1139l190 293h144l194 -293h-102l-166 198l-158 -198h-102z" />
<glyph unicode="&#xfc;" horiz-adv-x="1110" d="M156 299v694h112v-649q0 -75 20.5 -127t60 -80t87 -39.5t111.5 -11.5q126 0 206.5 64.5t80.5 185.5v657h112v-993h-80l-26 113q-71 -80 -144 -106.5t-194 -26.5q-149 0 -247.5 84t-98.5 235zM303 1159v150h137v-150h-137zM657 1159v150h138v-150h-138z" />
<glyph unicode="&#xfd;" horiz-adv-x="1021" d="M57 993h123l346 -862l320 862h119l-463 -1206q-41 -105 -105.5 -157t-160.5 -52q-39 0 -97 14l23 109q54 -12 69 -12q61 0 102 30.5t70 100.5l70 172zM422 1139l201 239h180l-264 -239h-117z" />
<glyph unicode="&#xfe;" horiz-adv-x="1173" d="M164 -408v1840h112v-486q83 42 150.5 56t144.5 14q226 0 351 -140t125 -384q0 -238 -125 -376.5t-326 -138.5q-37 0 -56 0.5t-59 7t-69 19t-66.5 39t-69.5 63.5v-514h-112zM276 356q0 -124 79.5 -201t222.5 -77q169 0 263.5 107t94.5 304q0 203 -96 314.5t-277 111.5 q-153 0 -287 -81v-478z" />
<glyph unicode="&#xff;" horiz-adv-x="1021" d="M57 993h123l346 -862l320 862h119l-463 -1206q-41 -105 -105.5 -157t-160.5 -52q-39 0 -97 14l23 109q54 -12 69 -12q61 0 102 30.5t70 100.5l70 172zM279 1159v150h137v-150h-137zM633 1159v150h137v-150h-137z" />
<glyph unicode="&#x152;" horiz-adv-x="2164" d="M123 686q0 211 67 367t208.5 246t344.5 90q341 0 500 -267v244h791v-111h-674v-505h622v-111h-622v-528h674v-111h-791v246q-106 -144 -226.5 -206.5t-273.5 -62.5t-272.5 54t-195 150t-114 224t-38.5 281zM242 686q0 -129 31 -237t91.5 -189t157.5 -126.5t221 -45.5 q122 0 217.5 45.5t155.5 126.5t90.5 189t30.5 237q0 132 -28 238t-86.5 186.5t-154.5 124t-225 43.5q-104 0 -187.5 -28.5t-142 -80.5t-97 -126t-56.5 -163t-18 -194z" />
<glyph unicode="&#x153;" horiz-adv-x="1974" d="M127 496q0 243 126 381.5t345 138.5q144 0 243.5 -60t168.5 -188q54 116 157.5 182t233.5 66q226 0 337 -129t111 -361v-65h-780v-23q0 -165 91.5 -263.5t254.5 -98.5q162 0 266 112q46 -50 72 -75q-151 -138 -338 -138q-146 0 -242.5 59.5t-160.5 182.5 q-147 -242 -414 -242q-222 0 -346.5 138.5t-124.5 382.5zM238 496q0 -199 90 -309.5t270 -110.5t273.5 111.5t93.5 308.5v16q-6 190 -99.5 298t-267.5 108q-176 0 -268 -112.5t-92 -309.5zM1067 563h676v21q-2 147 -85 240.5t-255 93.5q-73 0 -132.5 -24.5t-96.5 -62 t-62 -86t-35 -94t-10 -88.5z" />
<glyph unicode="&#x178;" horiz-adv-x="1193" d="M57 1366h140l401 -659l399 659h140l-482 -780v-586h-120v586zM348 1511v150h137v-150h-137zM702 1511v150h137v-150h-137z" />
<glyph unicode="&#x2c6;" horiz-adv-x="655" d="M63 1139l191 293h143l195 -293h-103l-165 198l-158 -198h-103z" />
<glyph unicode="&#x2dc;" horiz-adv-x="655" d="M16 1206q12 73 64 126.5t119 53.5q51 0 90 -20.5t88 -62.5q18 -14 26 -20t25 -12.5t35 -6.5q39 0 64.5 29.5t33.5 80.5l76 -37q-13 -71 -62.5 -124.5t-115.5 -53.5q-31 0 -59 10t-43 20.5t-38 29.5q-3 2 -13 11t-13 11.5t-11.5 9.5t-12.5 9t-11.5 7t-13 6.5t-12.5 4 t-14 3.5t-15 1q-81 0 -109 -115z" />
<glyph unicode="&#x2000;" horiz-adv-x="926" />
<glyph unicode="&#x2001;" horiz-adv-x="1853" />
<glyph unicode="&#x2002;" horiz-adv-x="926" />
<glyph unicode="&#x2003;" horiz-adv-x="1853" />
<glyph unicode="&#x2004;" horiz-adv-x="617" />
<glyph unicode="&#x2005;" horiz-adv-x="463" />
<glyph unicode="&#x2006;" horiz-adv-x="308" />
<glyph unicode="&#x2007;" horiz-adv-x="308" />
<glyph unicode="&#x2008;" horiz-adv-x="231" />
<glyph unicode="&#x2009;" horiz-adv-x="370" />
<glyph unicode="&#x200a;" horiz-adv-x="102" />
<glyph unicode="&#x2010;" horiz-adv-x="671" d="M102 567v121h467v-121h-467z" />
<glyph unicode="&#x2011;" horiz-adv-x="671" d="M102 567v121h467v-121h-467z" />
<glyph unicode="&#x2012;" horiz-adv-x="671" d="M102 567v121h467v-121h-467z" />
<glyph unicode="&#x2013;" horiz-adv-x="1142" d="M109 567v121h925v-121h-925z" />
<glyph unicode="&#x2014;" horiz-adv-x="1783" d="M109 567v121h1566v-121h-1566z" />
<glyph unicode="&#x2018;" horiz-adv-x="276" d="M82 975v160l53 231h64l-37 -231h53v-160h-133z" />
<glyph unicode="&#x2019;" horiz-adv-x="276" d="M61 1206v160h134v-160l-54 -231h-63l37 231h-54z" />
<glyph unicode="&#x201a;" horiz-adv-x="276" d="M61 0v160h134v-160l-54 -231h-63l37 231h-54z" />
<glyph unicode="&#x201c;" horiz-adv-x="610" d="M102 975v160l54 231h63l-37 -231h54v-160h-134zM375 975v160l53 231h64l-37 -231h53v-160h-133z" />
<glyph unicode="&#x201d;" horiz-adv-x="610" d="M102 1206v160h134v-160l-54 -231h-63l37 231h-54zM375 1206v160h133v-160l-53 -231h-64l37 231h-53z" />
<glyph unicode="&#x201e;" horiz-adv-x="610" d="M102 0v160h134v-160l-54 -231h-63l37 231h-54zM375 0v160h133v-160l-53 -231h-64l37 231h-53z" />
<glyph unicode="&#x2022;" horiz-adv-x="727" d="M205 606q0 66 46.5 114t110.5 48q66 0 113 -48t47 -114q0 -67 -47 -113.5t-113 -46.5q-65 0 -111 46.5t-46 113.5z" />
<glyph unicode="&#x2026;" horiz-adv-x="1191" d="M123 0v160h133v-160h-133zM530 0v160h134v-160h-134zM936 0v160h133v-160h-133z" />
<glyph unicode="&#x202f;" horiz-adv-x="370" />
<glyph unicode="&#x2039;" horiz-adv-x="483" d="M47 477l256 363h107l-228 -363l228 -368h-107z" />
<glyph unicode="&#x203a;" horiz-adv-x="483" d="M74 109l227 368l-227 363h106l256 -363l-256 -368h-106z" />
<glyph unicode="&#x205f;" horiz-adv-x="463" />
<glyph unicode="&#x20ac;" horiz-adv-x="1357" d="M102 481v88h115q-4 45 -4 113q0 57 4 92h-115v88h123q34 249 182 389t390 140q149 0 241 -29.5t189 -104.5l-72 -86q-73 68 -153.5 91.5t-198.5 23.5q-199 0 -314.5 -113t-144.5 -311h584l-35 -88h-555q-4 -51 -4 -92q0 -68 4 -113h477l-33 -88h-432q24 -187 141 -294 t308 -107q114 0 196.5 26.5t171.5 100.5l68 -82q-88 -76 -186.5 -112t-253.5 -36q-240 0 -382 130.5t-186 373.5h-125z" />
<glyph unicode="&#x2122;" horiz-adv-x="972" d="M82 1309v57h297v-57h-117v-394h-63v394h-117zM489 915v451h101l112 -330l115 330h98v-451h-63l4 390l-137 -390h-35l-135 390l4 -390h-64z" />
<glyph unicode="&#x25fc;" horiz-adv-x="993" d="M0 0v993h993v-993h-993z" />
</font>
</defs>
</svg>
