<?xml version="1.0" standalone="no"?>
<!DOCTYPE svg PUBLIC "-//W3C//DTD SVG 1.1//EN" "http://www.w3.org/Graphics/SVG/1.1/DTD/svg11.dtd" >
<svg xmlns="http://www.w3.org/2000/svg">
<metadata></metadata>
<defs>
<font id="mirum_sansoblique" horiz-adv-x="1054" >
<font-face units-per-em="2048" ascent="1638" descent="-410" />
<missing-glyph horiz-adv-x="544" />
<glyph unicode="&#xfb01;" horiz-adv-x="1046" d="M211 0l221 889h-149l24 104h150l37 146q78 309 399 309q145 0 223 -71t66 -177h-117q8 64 -38.5 106t-141.5 42q-105 0 -179 -54t-102 -161l-35 -140h254l-24 -104h-254l-221 -889h-113zM770 0l246 993h112l-245 -993h-113z" />
<glyph unicode="&#xfb02;" horiz-adv-x="1071" d="M211 0l219 889h-149l24 104h152l39 150q37 149 146.5 227t277.5 78q111 0 190 -23.5t115 -48.5l-287 -1143q-23 -69 -0.5 -107t106.5 -44l-43 -94q-236 6 -180 233l275 1094q-60 31 -201 31q-112 0 -188.5 -55t-102.5 -158l-35 -140h252l-24 -104h-254l-221 -889h-111z " />
<glyph horiz-adv-x="0" />
<glyph horiz-adv-x="682" />
<glyph unicode=" "  horiz-adv-x="544" />
<glyph unicode="&#x09;" horiz-adv-x="544" />
<glyph unicode="&#xa0;" horiz-adv-x="544" />
<glyph unicode="!" horiz-adv-x="411" d="M203 0l35 147h137l-35 -147h-137zM299 297l233 1069h146l-299 -1069h-80z" />
<glyph unicode="&#x22;" horiz-adv-x="675" d="M412 930l69 436h135l-143 -436h-61zM702 930l70 436h135l-143 -436h-62z" />
<glyph unicode="#" horiz-adv-x="1103" d="M170 453l39 90h197l169 395h-196l39 90h198l146 338h98l-147 -338h266l149 338h93l-146 -338h211l-39 -90h-213l-170 -395h211l-39 -90h-211l-145 -336h-96l145 336h-264l-146 -336h-98l146 336h-197zM506 543h262l172 395h-266z" />
<glyph unicode="$" horiz-adv-x="1161" d="M121 154l94 82q50 -81 118 -112t206 -40l147 586q-37 12 -67.5 24t-63 28t-57 34.5t-47.5 41.5t-37.5 51t-23 60.5t-8 72.5t10.5 85q35 152 162.5 231.5t310.5 87.5l45 183h95l-45 -185q232 -14 329 -153l-92 -84q-38 62 -106.5 95.5t-155.5 35.5l-129 -512 q54 -16 97 -36t82.5 -47t64.5 -60.5t43.5 -77t19.5 -95t-8 -116.5q-31 -154 -168 -252.5t-330 -104.5l-47 -178h-94l47 178q-142 3 -235.5 45t-157.5 132zM516 1059q-25 -108 24.5 -163.5t180.5 -102.5l121 489q-130 -9 -216.5 -67.5t-109.5 -155.5zM633 84q106 9 181 47 t111 85.5t52 107.5q29 127 -13.5 202t-189.5 117z" />
<glyph unicode="%" horiz-adv-x="1640" d="M385 0l1169 1366h95l-1172 -1366h-92zM401 1071q81 309 377 309q152 0 215 -95t29 -259q-32 -147 -135.5 -229t-245.5 -82q-140 0 -209 101t-31 255zM506 1049q-24 -107 14 -172.5t139 -65.5q100 0 165 62t94 174q28 111 -13 175t-143 64q-100 0 -167 -64t-89 -173z M1010 326q33 157 130 241t238 84q151 0 215.5 -96t36.5 -258q-26 -148 -126 -229.5t-251 -81.5q-141 0 -209.5 92.5t-33.5 247.5zM1112 317q-27 -102 14 -169.5t142 -67.5q103 0 169.5 61.5t86.5 175.5q20 108 -17.5 173t-136.5 65q-195 0 -258 -238z" />
<glyph unicode="&#x26;" horiz-adv-x="1175" d="M160 283q-1 87 28.5 159.5t89.5 130.5t128 101.5t163 89.5q-53 112 -76 175.5t-24 123.5q-2 140 87.5 231.5t256.5 91.5q70 0 124.5 -19t86 -47.5t52.5 -66t28 -69.5t8 -64q1 -44 -10.5 -85t-29.5 -73.5t-48.5 -63.5t-61 -54.5t-73 -48.5t-77 -42.5t-81.5 -39.5l209 -402 q131 149 195 348l94 -51q-84 -250 -238 -401l105 -207h-135l-64 125q-101 -83 -191 -115.5t-210 -32.5q-149 0 -241 85.5t-95 220.5zM289 287q1 -96 64.5 -147.5t166.5 -51.5q92 0 166.5 31.5t161.5 103.5l-225 441q-84 -39 -137.5 -71t-103 -77t-72 -101.5t-21.5 -127.5z M596 1071q1 -20 3.5 -38.5t8.5 -39t10 -34t15 -38t15 -33.5t18.5 -38.5t17.5 -36.5q144 66 223 138t78 171q-1 69 -48.5 108.5t-127.5 39.5q-95 0 -154.5 -52.5t-58.5 -146.5z" />
<glyph unicode="'" horiz-adv-x="385" d="M395 930l70 436h135l-143 -436h-62z" />
<glyph unicode="(" horiz-adv-x="489" d="M146 17.5q-11 239.5 47 486.5q56 231 188 470t311 425q9 -6 28 -18.5t28 -18.5q-158 -214 -266.5 -425.5t-170.5 -455.5q-112 -453 -12 -882l-66 -29q-76 208 -87 447.5z" />
<glyph unicode=")" horiz-adv-x="495" d="M-31 -393q156 215 263 425.5t169 454.5q114 460 15 883l65 29q76 -208 87.5 -447.5t-46.5 -486.5q-56 -231 -188 -470t-311 -425q-9 6 -27 18.5t-27 18.5z" />
<glyph unicode="*" horiz-adv-x="772" d="M397 975l234 102l-228 105l54 102l200 -158l-32 263h118l-30 -261l205 156l53 -102l-234 -105l234 -108l-53 -99l-205 156l30 -262h-120l34 264l-202 -158z" />
<glyph unicode="+" horiz-adv-x="1230" d="M250 430l24 102h422l107 424h102l-106 -424h420l-25 -102h-420l-106 -430h-103l107 430h-422z" />
<glyph unicode="," horiz-adv-x="378" d="M86 -231l92 231h-55l39 160h137l-39 -160l-110 -231h-64z" />
<glyph unicode="-" horiz-adv-x="671" d="M244 567l30 121h467l-30 -121h-467z" />
<glyph unicode="." horiz-adv-x="378" d="M121 0l39 160h137l-39 -160h-137z" />
<glyph unicode="/" horiz-adv-x="716" d="M53 -61l869 1491h106l-868 -1491h-107z" />
<glyph unicode="0" horiz-adv-x="1183" d="M247 471q10 99 38 213q30 117 65.5 214t90.5 191t121 158t158 103t200 39q110 0 186.5 -38.5t115.5 -104t52.5 -157t3.5 -191.5t-39 -214q-29 -117 -64 -213.5t-89 -191t-120 -159t-158.5 -104t-201.5 -39.5q-110 0 -187 39t-116 105t-52.5 158.5t-3.5 191.5zM403 684 q-155 -602 207 -602q87 0 160.5 34.5t126 89.5t96.5 136.5t72.5 162t54.5 179.5q20 81 31.5 150t14.5 139t-10 124t-41 97t-79.5 65.5t-124.5 22.5q-86 0 -159.5 -34t-126 -88.5t-96.5 -135t-72.5 -161.5t-53.5 -179z" />
<glyph unicode="1" horiz-adv-x="585" d="M313 0l314 1257h-228l27 109h346l-340 -1366h-119z" />
<glyph unicode="2" horiz-adv-x="1060" d="M127 0l27 113q490 355 673 520t226 336q18 75 7 132t-46 96t-87 59t-116 20q-113 0 -184.5 -32t-145.5 -111l-78 94q88 88 191.5 125t247.5 37q201 0 293 -124t41 -325q-13 -53 -40 -105.5t-58.5 -97.5t-86 -100t-101 -96.5t-127.5 -105t-140.5 -108t-163.5 -120.5 q-87 -64 -133 -98h635l-27 -109h-807z" />
<glyph unicode="3" horiz-adv-x="1077" d="M141 172l103 76q46 -89 107 -123.5t188 -34.5q181 0 293 102t110 259q-2 94 -67.5 146t-194.5 52h-98l28 109h101q160 0 261.5 81t98.5 228q-2 100 -65.5 156.5t-186.5 56.5q-103 0 -185.5 -32.5t-162.5 -112.5l-76 90q90 90 200 127t263 37q163 0 251.5 -88t90.5 -224 q1 -86 -25.5 -155t-74 -113t-98.5 -71t-111 -42q78 -16 125.5 -75.5t50.5 -163.5q2 -98 -35 -185.5t-106 -153t-174 -103.5t-232 -38q-290 0 -379 195z" />
<glyph unicode="4" horiz-adv-x="1073" d="M190 365l29 114l797 887h153l-225 -893h150l-27 -108h-149l-89 -365h-118l88 365h-609zM350 473h475l191 748z" />
<glyph unicode="5" horiz-adv-x="1136" d="M197 164l92 76q29 -59 62 -91t90 -48.5t149 -16.5q157 0 258.5 82.5t138.5 234.5q39 155 -21 251t-212 96q-87 0 -163.5 -31.5t-160.5 -100.5l-82 39l221 711h695l-27 -106h-586l-157 -496q71 47 136.5 65.5t155.5 18.5q178 0 267.5 -119.5t52.5 -331.5 q-33 -187 -184.5 -303.5t-341.5 -116.5q-287 0 -383 187z" />
<glyph unicode="6" horiz-adv-x="1173" d="M262 367q-3 131 41 305q175 717 666 717q122 0 199 -34.5t128 -113.5l-90 -78q-35 61 -88.5 91t-154.5 30q-89 0 -164.5 -31t-130.5 -82.5t-101 -127.5t-77 -157t-56 -181q136 139 361 139q160 0 255.5 -85t98.5 -231q3 -154 -62 -280t-185 -198.5t-271 -72.5 q-165 0 -265.5 104t-103.5 286zM383 324q2 -103 69 -171.5t181 -68.5q175 0 287.5 122.5t109.5 309.5q-2 101 -71 163t-191 62q-174 0 -281 -114.5t-104 -302.5z" />
<glyph unicode="7" horiz-adv-x="937" d="M340 0l707 1257h-660l27 109h782l-27 -106l-694 -1260h-135z" />
<glyph unicode="8" horiz-adv-x="1193" d="M227.5 265.5q-3.5 61.5 10.5 129.5q62 254 342 316v6q-106 35 -147.5 127t-8.5 215q30 116 106 191.5t175.5 107t224.5 31.5q196 0 293.5 -111.5t52.5 -290.5q-55 -213 -307 -285v-6q60 -22 101.5 -63t58.5 -91t20 -108.5t-14 -114.5q-41 -160 -180 -251t-337 -91 q-88 0 -160.5 22t-119.5 61t-77 91.5t-33.5 114zM358 379q-30 -136 43 -215.5t215 -79.5q99 0 180.5 25t143.5 87t80 154q14 74 -3 131.5t-58 92t-96.5 52t-121.5 17.5q-50 0 -96.5 -7.5t-93.5 -26.5t-84.5 -48t-66.5 -76t-42 -106zM541 907q11 -51 47.5 -82.5t86 -46 t111.5 -14.5q60 0 115 12.5t109 39.5t93 79.5t54 124.5q27 131 -42.5 196.5t-205.5 65.5q-139 0 -236 -61.5t-128 -190.5q-15 -72 -4 -123z" />
<glyph unicode="9" horiz-adv-x="1173" d="M223 127l94 80q71 -123 244 -123q378 0 522 573q-141 -133 -360 -133q-193 0 -288.5 123.5t-57.5 329.5q38 194 163.5 303t329.5 109q96 0 166.5 -25t112.5 -74t64.5 -112.5t24.5 -149t-8.5 -175t-33.5 -198.5q-34 -156 -88 -278.5t-131.5 -213t-182.5 -138.5t-233 -48 q-117 0 -206.5 38.5t-131.5 111.5zM498 963q-32 -154 31.5 -243t222.5 -89q152 0 245 80t119 235q27 154 -38 245t-210 91q-305 0 -370 -319z" />
<glyph unicode=":" horiz-adv-x="378" d="M121 0l39 160h137l-39 -160h-137zM309 752l39 159h137l-39 -159h-137z" />
<glyph unicode=";" horiz-adv-x="378" d="M84 -231l92 231h-55l39 160h137l-39 -160l-111 -231h-63zM307 752l39 159h137l-39 -159h-137z" />
<glyph unicode="&#x3c;" horiz-adv-x="1228" d="M248 426l28 113l1049 426l-35 -127l-905 -361l729 -360l-31 -113z" />
<glyph unicode="=" horiz-adv-x="1230" d="M195 211l24 100h944l-24 -100h-944zM305 653l25 103h944l-25 -103h-944z" />
<glyph unicode="&#x3e;" horiz-adv-x="1228" d="M143 0l33 127l905 360l-727 361l29 113l838 -422l-29 -113z" />
<glyph unicode="?" horiz-adv-x="913" d="M328 0l34 147h138l-35 -147h-137zM340 1219q61 85 142 127.5t216 42.5q72 0 130.5 -16t98 -44.5t67.5 -67t39.5 -83t14 -93t-9.5 -96.5q-20 -93 -66.5 -163t-107.5 -108.5t-124.5 -56.5t-129.5 -18l-104 -346h-88l90 446h70q295 0 337 273q4 39 2.5 76t-17 70.5t-40 58.5 t-67 40t-97.5 15q-99 0 -158.5 -31t-115.5 -102z" />
<glyph unicode="@" horiz-adv-x="1617" d="M279 608q28 218 150 398t306.5 282.5t390.5 102.5q147 0 260 -45.5t181 -126.5t96 -192.5t12 -242.5q-28 -226 -146.5 -359.5t-252.5 -133.5q-64 0 -103.5 42t-35.5 116q-118 -158 -310 -158q-114 0 -178 90.5t-47 228.5q26 211 161.5 350.5t295.5 139.5q85 0 140 -29.5 t83 -97.5l66 98h67l-160 -518q-9 -29 -13 -55t-2.5 -55.5t20.5 -47.5t55 -18q23 0 54 15t66.5 48t67 79.5t57.5 117t37 151.5q28 237 -100.5 374.5t-384.5 137.5q-170 0 -322.5 -84t-259 -243.5t-131.5 -362.5q-32 -263 91.5 -409t359.5 -146q189 0 354 103l29 -66 q-89 -56 -198 -87.5t-204 -31.5q-287 0 -435.5 172.5t-116.5 462.5zM725 614q-27 -227 143 -227q82 0 154 55.5t125 135.5l94 301q-37 135 -172 135q-131 0 -228 -118t-116 -282z" />
<glyph unicode="A" horiz-adv-x="1210" d="M45 0l829 1366h146l145 -1366h-116l-39 385h-600l-228 -385h-137zM473 492h526l-77 751z" />
<glyph unicode="B" horiz-adv-x="1220" d="M164 0l340 1366h497q65 0 118.5 -15.5t89.5 -42.5t61 -64q26 -36 36 -79q10 -41 10 -85q0 -48 -13 -97q-28 -119 -106 -193.5t-183 -99.5q69 -17 111 -76.5t48 -135.5q2 -19 1 -38q0 -58 -13 -121q-40 -147 -167.5 -233t-303.5 -86h-526zM311 111h389q133 0 230.5 69.5 t124.5 196.5q8 37 8 69q0 72 -40 121q-58 72 -200 72h-381zM471 750h373q134 0 228 72t118 186q8 38 8 71q0 176 -231 176h-369z" />
<glyph unicode="C" horiz-adv-x="1259" d="M295 707q84 337 279 509.5t485 172.5q150 0 244 -37t167 -113l-88 -90q-64 68 -140.5 98.5t-192.5 30.5q-244 0 -401 -154.5t-230 -441.5q-33 -118 -33 -219q1 -9 1 -19q4 -108 40 -186.5t120.5 -122t209.5 -43.5q115 0 205 30.5t184 110.5l59 -102 q-111 -81 -215.5 -117.5t-261.5 -36.5q-112 0 -200.5 35.5t-145.5 101.5q-57 64 -87 154q-30 88 -31 198q0 114 32 241z" />
<glyph unicode="D" horiz-adv-x="1359" d="M164 0l340 1366h444q120 0 211 -38t145 -105t80 -159q26 -89 25 -191v-8q-1 -106 -27 -226q-28 -133 -84 -245.5t-141 -202t-208 -140.5t-271 -51h-514zM311 111h357h2q126 0 229 42.5t175.5 120.5t121.5 179.5t78 228.5q24 98 24 184q0 22 -2 42q-8 104 -45 181.5 t-120.5 121.5t-204.5 44h-328z" />
<glyph unicode="E" horiz-adv-x="1095" d="M164 0l340 1366h801l-27 -111h-680l-127 -505h631l-29 -111h-631l-131 -528h680l-26 -111h-801z" />
<glyph unicode="F" horiz-adv-x="1067" d="M164 0l340 1366h801l-27 -111h-680l-127 -505h631l-29 -111h-631l-157 -639h-121z" />
<glyph unicode="G" horiz-adv-x="1402" d="M282 325q-14 65 -14 140q0 117 33 258q83 331 274.5 498.5t485.5 167.5q362 0 455 -201l-101 -72q-79 162 -368 162q-483 0 -625 -586q-26 -106 -30 -197v-26q0 -76 18 -141q21 -75 66 -129t120 -83.5t176 -29.5q125 0 232 38.5t176 102.5l92 363h-309l28 112h436 l-141 -546q-110 -98 -240 -139.5t-301 -41.5q-187 0 -307.5 92t-155.5 258z" />
<glyph unicode="H" horiz-adv-x="1363" d="M164 0l340 1366h121l-154 -616h795l153 616h121l-340 -1366h-121l160 639h-797l-157 -639h-121z" />
<glyph unicode="I" horiz-adv-x="448" d="M164 0l340 1366h121l-340 -1366h-121z" />
<glyph unicode="J" horiz-adv-x="950" d="M84 72l74 102q82 -82 245 -82q285 0 363 314l240 960h120l-249 -999q-50 -199 -165.5 -294.5t-318.5 -95.5q-214 0 -309 95z" />
<glyph unicode="K" horiz-adv-x="1157" d="M164 0l340 1366h121l-158 -643l803 643h168l-850 -686l528 -680h-147l-518 670l-166 -670h-121z" />
<glyph unicode="L" horiz-adv-x="995" d="M164 0l340 1366h121l-314 -1255h619l-27 -111h-739z" />
<glyph unicode="M" horiz-adv-x="1595" d="M164 0l340 1366h192l174 -1034l693 1034h209l-340 -1366h-123l319 1260l-745 -1092h-92l-193 1092l-309 -1260h-125z" />
<glyph unicode="N" horiz-adv-x="1357" d="M164 0l340 1366h145l459 -1202l305 1202h121l-340 -1366h-145l-463 1198l-301 -1198h-121z" />
<glyph unicode="O" horiz-adv-x="1484" d="M270 494q4 112 35 237q27 106 70.5 200t110.5 179t150.5 146t194 97t236.5 36q133 0 231.5 -37.5t155.5 -104t83 -160.5q21 -76 21 -163q0 -20 -1 -40q-6 -110 -39 -237q-38 -146 -106 -266t-163.5 -211.5t-226 -142t-283.5 -50.5q-123 0 -216 39t-149 108t-82 164 q-23 84 -23 181q1 12 1 25zM384 493v-25q0 -75 18 -140q21 -75 65.5 -128.5t120 -83.5t176.5 -30q123 0 230.5 45.5t188 127t138.5 190t90 237.5q27 105 31 194q1 17 0 33q0 70 -16 130q-20 74 -64 126t-120.5 80.5t-180.5 28.5q-129 0 -237 -43.5t-187 -124t-134.5 -186.5 t-88.5 -238q-26 -103 -30 -193z" />
<glyph unicode="P" horiz-adv-x="1148" d="M164 0l340 1366h454q75 0 135.5 -24.5t98.5 -67t62 -98.5t26 -120v-16q0 -56 -10 -116q-35 -176 -159.5 -275.5t-313.5 -99.5h-377l-135 -549h-121zM449 659h366q146 0 235 81.5t107 215.5q6 40 6 74q0 225 -237 225h-328z" />
<glyph unicode="Q" horiz-adv-x="1499" d="M264 497q3 111 35 232q84 310 281.5 485t490.5 175q127 0 222.5 -37t153.5 -102.5t86 -157.5q25 -83 25 -180v-22q-3 -109 -34 -233q-63 -255 -219 -429.5t-390 -231.5l48 -238h-113l-43 222q-3 0 -22 -1.5t-42 -1.5q-122 0 -216 39.5t-151 109.5t-86 165q-26 86 -26 185 v21zM382 492v-24q0 -76 18 -142q22 -77 69 -131t127 -83q73 -26 170 -26h20l-49 242l111 2l45 -228q192 44 326 200t190 376q26 105 31 194v33q0 71 -16 132q-20 75 -65 127.5t-121.5 82t-180.5 29.5q-127 0 -234 -43.5t-186.5 -123t-135.5 -186t-89 -237.5 q-26 -104 -30 -194z" />
<glyph unicode="R" horiz-adv-x="1153" d="M164 0l340 1366h457q177 0 265 -118q63 -84 63 -206q0 -50 -11 -106q-34 -167 -141 -260t-258 -107l157 -569h-133l-151 561h-328l-139 -561h-121zM451 672h370q131 0 221.5 75t116.5 216q9 47 9 87q0 81 -38 131q-56 74 -184 74h-348z" />
<glyph unicode="S" horiz-adv-x="1120" d="M133 172l98 92q94 -172 365 -172q90 0 163.5 23.5t118.5 62.5t71 83.5t32 92.5q6 36 5 68q0 30 -5 56q-11 52 -49.5 87t-87 56.5t-129.5 44.5q-44 12 -81 26t-74.5 34t-65 44t-52.5 55t-37 68q-11 37 -17 83q-2 15 -2 31q0 32 7 68q18 103 89 175.5t169.5 105.5t214.5 33 q148 0 249 -33.5t179 -120.5l-96 -92q-51 73 -131 102t-195 29q-151 0 -247.5 -60.5t-108.5 -166.5q-3 -23 -3 -43q-1 -38 9 -66q14 -44 61.5 -75t84.5 -46t117 -41q4 -2 6 -2q61 -19 106 -40t88.5 -53.5t70 -73.5t40.5 -101q11 -44 11 -96q0 -18 -1 -37q-5 -77 -39.5 -147 t-97 -126t-162 -89.5t-223.5 -33.5q-158 0 -277 52.5t-174 142.5z" />
<glyph unicode="T" horiz-adv-x="1081" d="M391 1255l27 111h925l-26 -111h-402l-313 -1255h-121l314 1255h-404z" />
<glyph unicode="U" horiz-adv-x="1337" d="M291 522l213 844h121l-215 -858q-22 -89 -23 -160q0 -258 301 -258q200 0 318.5 101.5t169.5 312.5l217 862h120l-229 -924q-57 -226 -211.5 -345.5t-388.5 -119.5q-253 0 -355 146q-63 90 -63 220q0 81 25 179z" />
<glyph unicode="V" horiz-adv-x="1234" d="M397 1366h125l123 -1229l735 1229h138l-826 -1366h-145z" />
<glyph unicode="W" horiz-adv-x="1716" d="M401 1366h121l2 -1210l578 1050h112l48 -1050l604 1210h129l-695 -1366h-143l-41 1014l-555 -1014h-145z" />
<glyph unicode="X" horiz-adv-x="1243" d="M57 0l674 717l-295 649h131l250 -559l522 559h156l-627 -668l314 -698h-131l-271 604l-565 -604h-158z" />
<glyph unicode="Y" horiz-adv-x="1193" d="M397 1366h131l230 -672l571 672h148l-676 -780l-146 -586h-120l145 586z" />
<glyph unicode="Z" horiz-adv-x="1112" d="M106 0l29 117l1022 1138h-737l26 111h885l-31 -121l-1017 -1134h749l-26 -111h-900z" />
<glyph unicode="[" horiz-adv-x="497" d="M0 -408l449 1797h325l-24 -93h-213l-404 -1611h213l-22 -93h-324z" />
<glyph unicode="\" horiz-adv-x="800" d="M326 1430h94l344 -1491h-94z" />
<glyph unicode="]" horiz-adv-x="497" d="M-31 -408l23 93h209l403 1611h-213l25 93h325l-450 -1797h-322z" />
<glyph unicode="^" horiz-adv-x="1206" d="M287 575l602 791h115l202 -791h-114l-166 668l-500 -668h-139z" />
<glyph unicode="_" horiz-adv-x="1132" d="M-82 -264l29 112h1167l-29 -112h-1167z" />
<glyph unicode="`" horiz-adv-x="655" d="M416 1378h180l270 -239h-127z" />
<glyph unicode="a" d="M178 315q21 139 130 206t272 67h350l20 69q12 48 12 87q0 169 -227 169q-109 0 -177 -25t-128 -71l-47 96q83 55 165.5 79t205.5 24q200 0 274 -107q45 -65 45 -160q0 -60 -18 -133l-156 -616h-80l4 104q-27 -23 -53 -41.5t-52 -31.5t-46.5 -22.5t-46 -15.5t-40.5 -9.5 t-40 -5.5t-33 -2h-12h-22q-24 0 -27 1q-140 0 -218 94q-60 73 -60 179q0 31 5 65zM293 295q-4 -25 -4 -46q0 -72 45 -116q59 -57 176 -57q79 0 149.5 24.5t127.5 82t79 139.5l39 165h-299q-145 0 -220 -43.5t-93 -148.5z" />
<glyph unicode="b" horiz-adv-x="1171" d="M164 0l356 1432h113l-111 -471q56 26 110.5 38.5t86.5 14.5t90 2q224 0 317 -152q59 -96 59 -232q0 -79 -20 -171q-51 -234 -199.5 -359t-344.5 -125q-33 0 -56 1t-66.5 8.5t-75 20.5t-66 41t-54.5 67l-59 -115h-80zM362 356q-9 -39 -9 -73q0 -74 44 -126q65 -77 209 -77 q167 0 284.5 109t160.5 300q18 81 18 147q1 100 -41 166q-70 109 -252 109q-162 0 -289 -73z" />
<glyph unicode="c" horiz-adv-x="1019" d="M225 346q1 82 23 174q56 226 204.5 361t370.5 135q118 0 198 -34t136 -105l-88 -76q-76 112 -254 112q-172 0 -290 -113.5t-165 -303.5q-21 -87 -21 -157q1 -89 35 -151q62 -108 238 -108q87 0 160 26t148 89l59 -86q-101 -79 -188.5 -105.5t-215.5 -26.5 q-88 0 -155.5 27t-109.5 76q-42 48 -64 116q-21 64 -21 143v7z" />
<glyph unicode="d" horiz-adv-x="1171" d="M248 518q55 233 216.5 365.5t381.5 132.5q94 0 154.5 -13.5t132.5 -46.5l118 476h113l-356 -1432h-82l2 113q-51 -46 -101.5 -75.5t-99 -40.5t-77.5 -14t-72 -3q-203 0 -296 144q-57 88 -57 216q0 81 23 178zM365 489q-17 -82 -17 -148q0 -259 264 -259q142 0 240.5 77 t128.5 201l127 488q-72 39 -130 51t-147 12q-170 0 -297 -112.5t-169 -309.5z" />
<glyph unicode="e" horiz-adv-x="1165" d="M232 349q1 81 20 173q53 223 199.5 358.5t359.5 135.5q230 0 323 -133q57 -82 57 -200q0 -74 -22 -161l-16 -63h-793q-15 -67 -15 -123q1 -94 43 -156q68 -98 235 -98q93 0 166.5 24.5t144.5 83.5l59 -88q-91 -69 -185 -97t-206 -28q-91 0 -162 27.5t-115 77.5t-69 118 q-24 66 -24 143v6zM387 563h676q17 65 17 119q0 78 -36 134q-60 94 -237 95q-75 0 -140 -22.5t-110 -58t-80.5 -83t-56 -92.5t-33.5 -92z" />
<glyph unicode="f" horiz-adv-x="696" d="M211 0l221 891h-149l24 102h150l45 181q35 133 119 203.5t208 70.5q118 0 201 -62l-72 -86q-42 39 -131 39q-162 0 -219 -206l-39 -140h262l-24 -102h-262l-221 -891h-113z" />
<glyph unicode="g" horiz-adv-x="1167" d="M104 -295l86 90q87 -108 279 -108q153 0 263 73.5t149 206.5l18 66q-155 -56 -311 -56q-221 0 -312 145q-53 85 -53 209q0 89 27 199q58 231 202 358.5t359 127.5q56 0 107.5 -8.5t111 -40.5t88.5 -84l51 110h84l-249 -1005q-22 -90 -64.5 -162.5t-107 -129.5 t-159.5 -88.5t-212 -31.5q-234 0 -357 129zM362 504q-22 -92 -22 -164q0 -89 34 -150q62 -108 238 -108q159 0 316 63l123 488q12 46 12 85q0 72 -41 120q-63 73 -209 73q-172 0 -286 -104.5t-165 -302.5z" />
<glyph unicode="h" horiz-adv-x="1107" d="M164 0l356 1432h113l-121 -494q42 28 85 45.5t90.5 24t73.5 7.5t77 1q86 0 149.5 -28.5t95.5 -78.5t41 -118q3 -20 3 -42q0 -50 -15 -104l-164 -645h-112l159 647q14 57 14 102q1 65 -31 103q-52 62 -181 63q-91 0 -177 -31t-139 -77l-205 -807h-112z" />
<glyph unicode="i" horiz-adv-x="440" d="M164 0l246 993h112l-246 -993h-112zM465 1212l31 125h112l-30 -125h-113z" />
<glyph unicode="j" horiz-adv-x="487" d="M-193 -375l64 96q49 -36 115 -36q141 0 178 143l293 1165h112l-290 -1167q-34 -134 -107 -191t-188 -57q-111 0 -177 47zM510 1206l33 131h112l-32 -131h-113z" />
<glyph unicode="k" horiz-adv-x="989" d="M164 0l356 1432h113l-211 -842l571 401h176l-639 -452l420 -539h-143l-404 514l-127 -514h-112z" />
<glyph unicode="l" horiz-adv-x="458" d="M209 221l303 1211h113l-301 -1203q-10 -35 -10 -61q0 -32 15 -50q27 -32 111 -32l-45 -98q-123 3 -167 65q-28 39 -29 96q0 33 10 72z" />
<glyph unicode="m" horiz-adv-x="1714" d="M164 0l246 993h82l2 -108q74 69 147.5 100t171.5 31q209 0 260 -162q89 90 174.5 126t200.5 36q158 0 236 -98q54 -67 53 -157q0 -41 -11 -87l-167 -674h-113l166 666q10 43 10 78q0 66 -34 106q-54 62 -183 63q-117 0 -204 -65.5t-114 -169.5l-169 -678h-113l166 680 q9 37 9 68q0 66 -39 106q-58 60 -169 59q-115 0 -209 -64.5t-119 -174.5l-168 -674h-112z" />
<glyph unicode="n" horiz-adv-x="1110" d="M164 0l246 993h84v-110q68 79 148 106t194 27q156 0 235 -104q53 -71 53 -166q0 -46 -12 -97l-158 -649h-112l157 643q14 57 14 100q0 69 -36 107q-59 60 -191 61q-126 0 -221 -65.5t-125 -188.5l-164 -657h-112z" />
<glyph unicode="o" horiz-adv-x="1206" d="M252 520q17 79 48.5 150.5t81 135.5t112.5 110t147 73t180 27q243 0 339 -150q58 -90 58 -217q0 -85 -26 -188q-60 -237 -215.5 -360.5t-370.5 -123.5q-215 1 -310 149q-62 97 -62 234q0 74 18 160zM362 496q-17 -79 -17 -144q0 -96 37 -160q62 -110 241 -110 q183 0 298 107.5t164 306.5q22 85 22 153q-1 91 -39 153q-68 109 -255 109q-183 0 -296.5 -113.5t-154.5 -301.5z" />
<glyph unicode="p" horiz-adv-x="1165" d="M59 -408l351 1401h75l2 -116q82 80 168.5 109.5t184.5 29.5q87 0 153.5 -27.5t107.5 -78t61 -120.5q19 -64 19 -141q0 -6 -1 -12q-1 -84 -23 -180q-52 -229 -203 -354.5t-366 -125.5q-180 0 -303 64l-113 -449h-113zM313 154q64 -40 126 -56t143 -16q179 0 297.5 100.5 t167.5 300.5q24 93 24 166q0 87 -33 148q-62 112 -239 112q-135 0 -234.5 -74t-130.5 -194z" />
<glyph unicode="q" horiz-adv-x="1167" d="M236 318q-3 29 -3 60q0 78 23 165q58 233 214 353t364 120q37 0 74 -6t78 -19.5t76 -41t54 -66.5l53 110h80l-350 -1401h-113l105 433q-81 -33 -142 -42.5t-141 -9.5q-107 0 -189 44t-126 120.5t-57 180.5zM367 520q-22 -86 -22 -157q0 -97 41 -165q69 -118 245 -118 q156 0 293 67l127 492q11 45 11 84q0 70 -36 119q-58 76 -203 76q-168 0 -287.5 -103t-168.5 -295z" />
<glyph unicode="r" horiz-adv-x="806" d="M164 0l246 993h84l-2 -112q67 70 139 102.5t170 32.5q109 0 180 -51l-59 -95q-61 41 -154 41q-119 0 -210.5 -79.5t-125.5 -208.5l-156 -623h-112z" />
<glyph unicode="s" horiz-adv-x="929" d="M104 92l76 92q82 -102 285 -102q133 0 211.5 47.5t99.5 130.5q6 25 6 46q0 20 -5 36q-11 34 -46 57t-71 36.5t-95 29.5q-27 7 -50 14.5t-49 17.5t-47.5 21.5t-42.5 26.5t-36.5 32t-28 38.5t-18.5 45.5t-5 54t9 63q29 116 132 177t273 61q213 0 320 -96l-82 -89 q-39 44 -101 63t-157 19q-110 0 -184 -39t-84 -112q-4 -30 0 -54t20 -42t31.5 -30.5t47.5 -24.5t54 -18.5t64 -17.5q31 -8 57 -17t55 -22t51.5 -28t44.5 -34t35.5 -42.5t22.5 -51.5t8 -62.5t-10 -73.5q-32 -125 -137 -196t-279 -71q-123 0 -218 23t-157 92z" />
<glyph unicode="t" horiz-adv-x="686" d="M289 891l24 102h176l60 236h113l-60 -236h246l-25 -102h-245l-166 -660q-13 -40 -13 -71q1 -24 9 -42q18 -40 86 -40q50 0 135 39l12 -101q-86 -39 -188 -39q-100 0 -143 63q-26 38 -26 91q0 35 11 76l170 684h-176z" />
<glyph unicode="u" horiz-adv-x="1110" d="M234 190q-5 25 -5 51q0 44 13 93l159 659h113l-158 -645q-15 -57 -15 -101q0 -67 35 -103q58 -60 187 -60q125 0 224.5 69t130.5 191l161 649h113l-246 -993h-80v113q-90 -80 -169 -108t-185 -28q-73 0 -133 26.5t-96.5 73.5t-48.5 113z" />
<glyph unicode="v" horiz-adv-x="1028" d="M305 993h121l113 -862l546 862h129l-641 -993h-120z" />
<glyph unicode="w" horiz-adv-x="1507" d="M299 993h115l57 -872l475 872h109l37 -872l485 872h123l-563 -993h-142l-37 819l-442 -819h-139z" />
<glyph unicode="x" horiz-adv-x="980" d="M53 0l496 512l-232 481h121l189 -397l397 397h133l-481 -485l244 -508h-117l-201 426l-409 -426h-140z" />
<glyph unicode="y" horiz-adv-x="1021" d="M33 -406l45 101q38 -14 72 -14q59 0 107.5 33.5t94.5 105.5l117 182l-166 991h119l131 -862l532 862h125l-764 -1212q-69 -108 -138.5 -155.5t-172.5 -47.5q-40 0 -102 16z" />
<glyph unicode="z" horiz-adv-x="915" d="M82 0l24 102l777 787h-572l25 104h735l-22 -96l-789 -793h602l-24 -104h-756z" />
<glyph unicode="{" horiz-adv-x="591" d="M168 -162l113 449q39 154 -91 170l19 80q75 10 114.5 46t57.5 101l119 465q32 125 103 182.5t206 57.5h51l-24 -93h-39q-152 0 -189 -147l-121 -477q-19 -77 -61 -124t-125 -63q63 -12 86.5 -63.5t7.5 -122.5l-121 -479q-21 -81 8 -115.5t99 -34.5h47l-22 -92h-50 q-117 0 -168.5 67.5t-19.5 192.5z" />
<glyph unicode="|" horiz-adv-x="514" d="M135 -270l447 1781h104l-446 -1781h-105z" />
<glyph unicode="}" horiz-adv-x="591" d="M-27 -422l23 94h43q71 0 117 34t67 114l121 479q16 73 63 124.5t121 61.5q-128 40 -92 187l121 477q38 149 -119 149h-39l25 91h51q132 0 174.5 -73t9.5 -202l-108 -430q-19 -66 2.5 -111t89.5 -55l-18 -80q-141 -16 -174 -151l-117 -457q-33 -132 -102 -192t-203 -60 h-56z" />
<glyph unicode="~" horiz-adv-x="1247" d="M287 573q129 265 342 265q49 0 94 -19t69 -38.5t56 -51.5q30 -29 42 -39.5t39.5 -23.5t55.5 -13q82 0 133.5 51.5t95.5 145.5l89 -47q-61 -137 -145.5 -198.5t-196.5 -61.5q-46 0 -86.5 16t-64 34t-56.5 50q-3 3 -18 17t-19.5 17.5t-17.5 14t-21 13.5t-21 8.5t-26.5 7.5 t-28.5 2q-131 0 -227 -197z" />
<glyph unicode="&#xa1;" horiz-adv-x="464" d="M139 0l297 1069h80l-231 -1069h-146zM440 1219l37 147h137l-36 -147h-138z" />
<glyph unicode="&#xa2;" d="M322.5 542q-5.5 96 23.5 203q53 212 190.5 337t335.5 132l39 152h97l-39 -152q192 -9 274 -131l-88 -69q-59 91 -209 94l-205 -809q147 6 277 117l51 -80q-78 -68 -161.5 -104t-192.5 -37l-39 -152h-96l41 154q-95 7 -162.5 54t-99 121t-37 170zM446 568.5 q-1 -69.5 17 -127t65 -94t119 -44.5l201 807q-146 -18 -242.5 -119.5t-138.5 -271.5q-20 -81 -21 -150.5z" />
<glyph unicode="&#xa3;" horiz-adv-x="1107" d="M133 59q152 72 247 190t95 226q0 34 -10 86h-246l23 86h202q-53 130 -53 260q0 230 129.5 354.5t353.5 124.5q137 0 226 -49t119 -133l-105 -61q-51 135 -254 135q-146 0 -243 -96t-97 -273q0 -85 58 -262h292l-22 -86h-258q4 -36 4 -53q0 -124 -50 -212.5t-151 -154.5 q24 9 58 9q57 0 156 -30t167 -30q78 0 182 66l33 -97q-108 -79 -239 -79q-62 0 -172 36.5t-175 36.5q-95 0 -233 -69z" />
<glyph unicode="&#xa4;" horiz-adv-x="942" d="M256 412l143 145q-51 70 -51 166q0 97 53 168l-145 145l66 68l145 -148q73 54 168 54q92 0 166 -52l145 146l68 -68l-146 -145q54 -77 54 -168q0 -95 -54 -168l146 -143l-68 -68l-145 145q-73 -51 -166 -51q-95 0 -168 51l-145 -145zM442 723q0 -79 57 -136t136 -57 t135.5 56.5t56.5 136.5q0 79 -56.5 135.5t-135.5 56.5q-80 0 -136.5 -56.5t-56.5 -135.5z" />
<glyph unicode="&#xa5;" horiz-adv-x="1239" d="M254 334l22 90h363l39 154h-363l23 90h309l-254 698h133l236 -668l569 668h146l-611 -698h318l-23 -90h-366l-39 -154h366l-22 -90h-367l-82 -334h-116l81 334h-362z" />
<glyph unicode="&#xa6;" horiz-adv-x="512" d="M186 -66l162 641h103l-162 -641h-103zM401 791l160 641h103l-160 -641h-103z" />
<glyph unicode="&#xa7;" horiz-adv-x="972" d="M109 -47l84 92q73 -111 274 -111q113 0 188.5 46.5t89.5 111.5q5 22 5 41.5t-3.5 35.5t-12 30.5t-18.5 25.5t-26.5 22t-32.5 19.5t-39 17t-43.5 15.5t-48.5 16q-24 7 -43.5 14t-42.5 16t-41 19t-37.5 22t-34 25.5t-27.5 29.5t-21.5 35t-13.5 40t-4.5 46.5t5.5 53.5 q21 99 119.5 159.5t241.5 82.5q-118 42 -163.5 118.5t-29.5 166.5q47 248 393 248q205 0 310 -101l-78 -86q-35 42 -98.5 63t-135.5 21q-241 0 -264 -141q-6 -36 2 -64.5t21.5 -47t45.5 -36.5t55.5 -28t70.5 -27q72 -25 115 -46t89.5 -57t62.5 -88.5t3 -123.5 q-24 -138 -299 -250q52 -21 87 -57t48 -76.5t15 -86t-11 -85.5q-31 -115 -145 -180.5t-281 -65.5q-231 0 -331 125zM389 590.5q0 -15.5 3 -29t11.5 -26t18.5 -22.5t27 -20.5t34 -19t42.5 -18.5t50 -18.5t59.5 -20.5q101 35 170 84.5t90 126.5q18 69 -22 112.5t-142 71.5 q-142 -11 -232.5 -60t-105.5 -126q-4 -19 -4 -34.5z" />
<glyph unicode="&#xa8;" horiz-adv-x="655" d="M371 1159l37 150h137l-37 -150h-137zM725 1159l37 150h137l-37 -150h-137z" />
<glyph unicode="&#xa9;" horiz-adv-x="1609" d="M283 684q0 143 55.5 273.5t149.5 225t224 150.5t273 56q191 0 354 -94.5t258 -257t95 -353.5q-1 -143 -57 -273.5t-150 -225t-224.5 -150t-273.5 -55.5q-191 0 -353.5 94t-257 256.5t-93.5 353.5zM367 684q-1 -168 82 -311t226.5 -226.5t311.5 -83.5t311 83.5t226 226.5 t84 311q0 168 -84 311t-227.5 226.5t-311.5 83.5t-310.5 -83.5t-225 -226.5t-82.5 -311zM582 686q0 200 113.5 323.5t293.5 123.5q202 0 311 -136l-71 -73q-78 112 -244 112q-134 0 -214.5 -94.5t-80.5 -255.5q1 -156 84 -253t211 -97q70 0 139 30.5t107 84.5l74 -74 q-149 -139 -316 -139q-178 0 -291.5 125.5t-115.5 322.5z" />
<glyph unicode="&#xaa;" horiz-adv-x="714" d="M336 946q43 172 270 172h197l12 47q15 66 -19.5 106t-115.5 40q-117 0 -195 -66l-41 72q98 72 254 72q111 0 172 -64.5t33 -175.5l-104 -422h-66l6 70q-88 -88 -221 -84q-94 3 -150 68.5t-32 164.5zM426 926q-10 -60 22.5 -94.5t100.5 -34.5q73 0 131.5 35t77.5 104 l24 102h-178q-72 0 -120.5 -28t-57.5 -84z" />
<glyph unicode="&#xab;" horiz-adv-x="837" d="M154 506l340 334h127l-320 -359l139 -372h-106zM508 506l340 334h127l-320 -359l140 -372h-107z" />
<glyph unicode="&#xac;" horiz-adv-x="1232" d="M338 782l27 105h938l-138 -545h-106l110 440h-831z" />
<glyph unicode="&#xad;" horiz-adv-x="671" d="M244 567l30 121h467l-30 -121h-467z" />
<glyph unicode="&#xae;" horiz-adv-x="937" d="M395 1047q0 147 102.5 248.5t250.5 101.5q149 0 250.5 -101t101.5 -249t-102 -249.5t-250 -101.5q-149 0 -251 101.5t-102 249.5zM442 1047q0 -128 88 -217t215 -89q128 0 218 89.5t90 216.5t-88.5 216t-216.5 89t-217 -89t-89 -216zM606 1253h174q54 0 89.5 -34.5 t35.5 -90.5q0 -55 -30 -86.5t-62 -35.5l96 -162h-67l-92 155h-82v-155h-60zM666 1055h112q28 0 48 20.5t20 50.5q-2 32 -20 53t-46 21h-112z" />
<glyph unicode="&#xaf;" horiz-adv-x="655" d="M371 1194l24 98h508l-24 -98h-508z" />
<glyph unicode="&#xb0;" horiz-adv-x="565" d="M412 1198q0 78 56 134.5t134 56.5t134.5 -56.5t56.5 -134.5t-57.5 -134t-135.5 -56t-133 56t-55 134zM494 1198q-1 -44 31 -76t77 -32q44 0 75.5 31.5t33.5 76.5q0 44 -33.5 76.5t-77.5 32.5t-75 -32t-31 -77z" />
<glyph unicode="&#xb1;" horiz-adv-x="1230" d="M143 0l25 104h944l-25 -104h-944zM301 635l25 102h419l101 402h102l-100 -402h420l-25 -102h-420l-100 -406h-102l100 406h-420z" />
<glyph unicode="&#xb2;" horiz-adv-x="698" d="M211 569l20 82q277 195 350 255q136 111 167 195q12 33 12 68q0 56 -38 88.5t-97 32.5q-125 0 -201 -84l-57 64q55 58 117 83t147 25q102 0 165.5 -56t63.5 -148q0 -38 -10 -73.5t-24.5 -64.5t-44.5 -63t-56 -59t-75 -62t-84.5 -63t-100.5 -71q-55 -38 -84 -59h356 l-22 -90h-504z" />
<glyph unicode="&#xb3;" horiz-adv-x="702" d="M229 684l70 49q30 -52 71.5 -71t106.5 -19q89 0 148.5 41t68.5 111q9 74 -21.5 106.5t-115.5 32.5h-76l23 88h84q67 0 117.5 32.5t62.5 90.5q12 67 -20 107t-109 40q-64 0 -114 -17t-97 -61l-51 70q96 94 268 94q121 0 181.5 -71t33.5 -172q-26 -112 -160 -162 q56 -20 82 -74.5t6 -128.5q-25 -100 -109.5 -157.5t-209.5 -57.5q-91 0 -152.5 35.5t-87.5 93.5z" />
<glyph unicode="&#xb4;" horiz-adv-x="655" d="M420 1139l262 239h180l-315 -239h-127z" />
<glyph unicode="&#xb5;" horiz-adv-x="1157" d="M84 -307l326 1300h112l-160 -649q-38 -145 20.5 -201.5t192.5 -56.5q125 0 222 65.5t127 182.5l163 659h113l-246 -993h-86l2 115q-88 -80 -164 -109t-182 -29q-163 0 -237 115l-84 -399h-119z" />
<glyph unicode="&#xb6;" horiz-adv-x="1015" d="M357.5 904.5q-7.5 73.5 13.5 152.5q40 152 148 230.5t253 78.5h461l-393 -1571h-121l371 1479h-134l-370 -1479h-121l213 854h-82q-71 0 -124.5 34t-80 91t-34 130.5z" />
<glyph unicode="&#xb7;" horiz-adv-x="378" d="M264 565l39 160h137l-39 -160h-137z" />
<glyph unicode="&#xb8;" horiz-adv-x="655" d="M23 -375l47 68q48 -37 139 -37q58 0 100 20t49 60q6 39 -17.5 62.5t-66.5 23.5q-55 0 -94 -25l-57 45l129 160h96l-96 -115q42 13 94 13q77 0 112 -54t19 -120q-18 -74 -87.5 -113t-172.5 -39q-60 0 -112.5 14.5t-81.5 36.5z" />
<glyph unicode="&#xb9;" horiz-adv-x="411" d="M293 569l178 709h-133l20 88h230l-199 -797h-96z" />
<glyph unicode="&#xba;" horiz-adv-x="819" d="M365 1055q40 159 139.5 245t247.5 86q140 0 203.5 -93.5t29.5 -248.5q-36 -156 -137.5 -242.5t-257.5 -86.5q-139 0 -202 94t-23 246zM463 1051q-30 -117 5.5 -181.5t139.5 -64.5q103 0 176 65.5t103 180.5q28 116 -11.5 182.5t-142.5 66.5q-100 0 -171 -66.5t-99 -182.5 z" />
<glyph unicode="&#xbb;" horiz-adv-x="839" d="M119 109l319 358l-139 373h107l180 -398l-340 -333h-127zM473 109l320 358l-140 373h107l180 -398l-340 -333h-127z" />
<glyph unicode="&#xbc;" horiz-adv-x="1454" d="M225 0l1170 1366h100l-1171 -1366h-99zM401 569l179 709h-134l21 88h229l-198 -797h-97zM825 207l21 82l475 508h115l-127 -504h96l-21 -86h-96l-51 -207h-96l51 207h-367zM961 293h251l99 381z" />
<glyph unicode="&#xbd;" horiz-adv-x="1550" d="M225 0l1170 1366h100l-1171 -1366h-99zM401 569l179 709h-134l21 88h229l-198 -797h-97zM963 0l20 82q278 196 353 258q135 110 164 195q11 32 11 65q0 56 -38 88.5t-97 32.5q-124 0 -200 -84l-58 63q55 58 117 83.5t147 25.5q102 0 166 -56.5t64 -148.5q0 -45 -11 -84.5 t-38 -78t-55 -69.5t-81 -73t-95.5 -73t-118.5 -84q-48 -34 -74 -52h350l-23 -90h-503z" />
<glyph unicode="&#xbe;" horiz-adv-x="1591" d="M229 684l70 49q30 -52 71.5 -71t106.5 -19q89 0 148.5 41t68.5 111q9 74 -21.5 106.5t-115.5 32.5h-76l23 88h84q67 0 117.5 32.5t62.5 90.5q12 67 -20 107t-109 40q-64 0 -114 -17t-97 -61l-51 70q96 94 268 94q121 0 181.5 -71t33.5 -172q-26 -112 -160 -162 q56 -20 82 -74.5t6 -128.5q-25 -100 -109.5 -157.5t-209.5 -57.5q-91 0 -152.5 35.5t-87.5 93.5zM362 0l1170 1366h100l-1171 -1366h-99zM946 207l21 82l475 508h114l-126 -504h96l-21 -86h-96l-51 -207h-96l51 207h-367zM1081 293h252l99 381z" />
<glyph unicode="&#xbf;" horiz-adv-x="972" d="M266.5 280.5q-2.5 48.5 9.5 96.5q16 75 50 135.5t77 99t96 64.5t103.5 36.5t102.5 10.5l104 346h88l-90 -446h-70q-296 0 -338 -273q-4 -39 -2.5 -76t17 -70.5t40 -58.5t67 -40t97.5 -15q99 0 159 31t116 102l82 -76q-61 -84 -142 -127t-217 -43q-72 0 -130.5 16 t-98 44.5t-67.5 67t-39.5 83t-14 93zM815 1219l35 147h137l-35 -147h-137z" />
<glyph unicode="&#xc0;" horiz-adv-x="1210" d="M45 0l829 1366h146l145 -1366h-116l-39 385h-600l-228 -385h-137zM473 492h526l-77 751zM695 1730h180l270 -239h-127z" />
<glyph unicode="&#xc1;" horiz-adv-x="1210" d="M45 0l829 1366h146l145 -1366h-116l-39 385h-600l-228 -385h-137zM473 492h526l-77 751zM875 1491l262 239h180l-315 -239h-127z" />
<glyph unicode="&#xc2;" horiz-adv-x="1210" d="M45 0l829 1366h146l145 -1366h-116l-39 385h-600l-228 -385h-137zM473 492h526l-77 751zM717 1491l262 293h146l120 -293h-94l-108 198l-215 -198h-111z" />
<glyph unicode="&#xc3;" horiz-adv-x="1210" d="M45 0l829 1366h146l145 -1366h-116l-39 385h-600l-228 -385h-137zM473 492h526l-77 751zM678 1558q35 82 98 131t132 49q52 0 87 -21t72 -62q13 -13 21 -19.5t23.5 -13t33.5 -6.5q76 0 121 110l74 -37q-87 -178 -221 -178q-73 0 -129 60q-2 2 -11.5 12.5t-12 12.5 t-10.5 10t-11.5 10t-11 7t-13.5 6.5t-14 3t-17 1.5q-75 0 -133 -115z" />
<glyph unicode="&#xc4;" horiz-adv-x="1210" d="M45 0l829 1366h146l145 -1366h-116l-39 385h-600l-228 -385h-137zM473 492h526l-77 751zM738 1511l37 150h137l-37 -150h-137zM1092 1511l37 150h137l-37 -150h-137z" />
<glyph unicode="&#xc5;" horiz-adv-x="1210" d="M45 0l829 1366h146l145 -1366h-116l-39 385h-600l-228 -385h-137zM473 492h526l-77 751zM801 1665q-2 78 53 134t133 56t134.5 -56t58.5 -134q1 -78 -54 -133.5t-133 -55.5t-134 55.5t-58 133.5zM877 1665q2 -46 35.5 -79.5t78.5 -33.5q47 0 81 33.5t32 79.5 q0 47 -34.5 80.5t-82.5 33.5q-46 0 -78 -33.5t-32 -80.5z" />
<glyph unicode="&#xc6;" horiz-adv-x="1896" d="M31 0l1198 1366h876l-26 -111h-682l-127 -505h631l-29 -111h-631l-131 -528h682l-27 -111h-800l86 358h-564l-311 -358h-145zM588 469h493l199 797z" />
<glyph unicode="&#xc7;" horiz-adv-x="1259" d="M264 431.5q-8 127.5 31 275.5q84 337 279 509.5t485 172.5q150 0 244 -37t167 -113l-88 -90q-64 68 -140.5 98.5t-192.5 30.5q-244 0 -401 -154.5t-230 -441.5q-36 -130 -32.5 -238.5t40 -186.5t121 -121.5t209.5 -43.5q115 0 205 30.5t184 110.5l59 -102 q-106 -78 -205 -114.5t-243 -39.5l-76 -90q42 13 94 13q77 0 112 -54t19 -120q-18 -74 -87.5 -113t-172.5 -39q-60 0 -112.5 14.5t-81.5 36.5l47 68q48 -37 139 -37q58 0 100 20t49 60q6 39 -17.5 62.5t-66.5 23.5q-55 0 -94 -25l-57 45l111 140q-123 12 -211.5 71.5 t-133.5 155t-53 223z" />
<glyph unicode="&#xc8;" horiz-adv-x="1095" d="M164 0l340 1366h801l-27 -111h-680l-127 -505h631l-29 -111h-631l-131 -528h680l-26 -111h-801zM654 1730h180l270 -239h-127z" />
<glyph unicode="&#xc9;" horiz-adv-x="1095" d="M164 0l340 1366h801l-27 -111h-680l-127 -505h631l-29 -111h-631l-131 -528h680l-26 -111h-801zM834 1491l262 239h180l-315 -239h-127z" />
<glyph unicode="&#xca;" horiz-adv-x="1095" d="M164 0l340 1366h801l-27 -111h-680l-127 -505h631l-29 -111h-631l-131 -528h680l-26 -111h-801zM676 1491l262 293h146l120 -293h-94l-108 198l-215 -198h-111z" />
<glyph unicode="&#xcb;" horiz-adv-x="1095" d="M164 0l340 1366h801l-27 -111h-680l-127 -505h631l-29 -111h-631l-131 -528h680l-26 -111h-801zM697 1511l37 150h137l-37 -150h-137zM1051 1511l37 150h137l-37 -150h-137z" />
<glyph unicode="&#xcc;" horiz-adv-x="448" d="M164 0l340 1366h121l-340 -1366h-121zM316 1730h180l270 -239h-127z" />
<glyph unicode="&#xcd;" horiz-adv-x="448" d="M164 0l340 1366h121l-340 -1366h-121zM492 1491l262 239h180l-315 -239h-127z" />
<glyph unicode="&#xce;" horiz-adv-x="448" d="M164 0l340 1366h121l-340 -1366h-121zM338 1491l262 293h146l120 -293h-94l-108 198l-215 -198h-111z" />
<glyph unicode="&#xcf;" horiz-adv-x="448" d="M164 0l340 1366h121l-340 -1366h-121zM359 1511l37 150h137l-37 -150h-137zM713 1511l37 150h137l-37 -150h-137z" />
<glyph unicode="&#xd0;" horiz-adv-x="1433" d="M211 631l22 88h183l162 647h444q120 0 211 -38t144.5 -105t80 -159.5t25.5 -198.5t-27 -226q-28 -133 -84 -245.5t-141 -202t-208 -140.5t-271 -51h-514l155 631h-182zM385 111h358q126 0 229 42.5t176 120.5t122 179.5t78 228.5q30 122 22.5 226.5t-45.5 181.5 t-121.5 121t-204.5 44h-327l-135 -536h317l-23 -88h-317z" />
<glyph unicode="&#xd1;" horiz-adv-x="1370" d="M164 0l340 1366h145l459 -1202l305 1202h121l-340 -1366h-145l-463 1198l-301 -1198h-121zM752 1559q35 82 97.5 131t131.5 49q52 0 87.5 -21.5t72.5 -62.5q13 -13 21 -19.5t23.5 -13t33.5 -6.5q75 0 120 110l74 -36q-41 -84 -97.5 -131.5t-123.5 -47.5q-73 0 -129 60 q-3 3 -13 14t-13 14t-12 11t-14 10.5l-13 6.5t-16.5 5.5t-18.5 1.5q-77 0 -134 -114z" />
<glyph unicode="&#xd2;" horiz-adv-x="1484" d="M269.5 494.5q3.5 111.5 35.5 236.5q27 106 70.5 200t110.5 179t150.5 146t194 97t236.5 36q133 0 231.5 -37.5t155.5 -104t83 -160.5t20 -203.5t-39 -236.5q-38 -146 -106 -266t-163.5 -211.5t-226 -142t-283.5 -50.5q-123 0 -216 39t-148.5 108t-82 164t-23 206.5z M384.5 493q-3.5 -90 17.5 -165t65.5 -128.5t120 -83.5t176.5 -30q123 0 230.5 45.5t188 127t138.5 190t90 237.5q26 105 30.5 194t-15 163t-64 126t-121 80.5t-180.5 28.5q-129 0 -237 -43.5t-187 -124t-134.5 -186.5t-88.5 -238q-26 -103 -29.5 -193zM830 1730h180 l270 -239h-127z" />
<glyph unicode="&#xd3;" horiz-adv-x="1484" d="M269.5 494.5q3.5 111.5 35.5 236.5q27 106 70.5 200t110.5 179t150.5 146t194 97t236.5 36q133 0 231.5 -37.5t155.5 -104t83 -160.5t20 -203.5t-39 -236.5q-38 -146 -106 -266t-163.5 -211.5t-226 -142t-283.5 -50.5q-123 0 -216 39t-148.5 108t-82 164t-23 206.5z M384.5 493q-3.5 -90 17.5 -165t65.5 -128.5t120 -83.5t176.5 -30q123 0 230.5 45.5t188 127t138.5 190t90 237.5q26 105 30.5 194t-15 163t-64 126t-121 80.5t-180.5 28.5q-129 0 -237 -43.5t-187 -124t-134.5 -186.5t-88.5 -238q-26 -103 -29.5 -193zM1010 1491l262 239 h180l-315 -239h-127z" />
<glyph unicode="&#xd4;" horiz-adv-x="1484" d="M269.5 494.5q3.5 111.5 35.5 236.5q27 106 70.5 200t110.5 179t150.5 146t194 97t236.5 36q133 0 231.5 -37.5t155.5 -104t83 -160.5t20 -203.5t-39 -236.5q-38 -146 -106 -266t-163.5 -211.5t-226 -142t-283.5 -50.5q-123 0 -216 39t-148.5 108t-82 164t-23 206.5z M384.5 493q-3.5 -90 17.5 -165t65.5 -128.5t120 -83.5t176.5 -30q123 0 230.5 45.5t188 127t138.5 190t90 237.5q26 105 30.5 194t-15 163t-64 126t-121 80.5t-180.5 28.5q-129 0 -237 -43.5t-187 -124t-134.5 -186.5t-88.5 -238q-26 -103 -29.5 -193zM852 1491l262 293h146 l120 -293h-94l-108 198l-215 -198h-111z" />
<glyph unicode="&#xd5;" horiz-adv-x="1484" d="M269.5 494.5q3.5 111.5 35.5 236.5q27 106 70.5 200t110.5 179t150.5 146t194 97t236.5 36q133 0 231.5 -37.5t155.5 -104t83 -160.5t20 -203.5t-39 -236.5q-38 -146 -106 -266t-163.5 -211.5t-226 -142t-283.5 -50.5q-123 0 -216 39t-148.5 108t-82 164t-23 206.5z M384.5 493q-3.5 -90 17.5 -165t65.5 -128.5t120 -83.5t176.5 -30q123 0 230.5 45.5t188 127t138.5 190t90 237.5q26 105 30.5 194t-15 163t-64 126t-121 80.5t-180.5 28.5q-129 0 -237 -43.5t-187 -124t-134.5 -186.5t-88.5 -238q-26 -103 -29.5 -193zM813 1558 q35 82 98 131t132 49q52 0 87 -21t72 -62q13 -13 21 -19.5t23.5 -13t33.5 -6.5q76 0 121 110l74 -37q-87 -178 -221 -178q-73 0 -129 60q-2 2 -11.5 12.5t-12 12.5t-10.5 10t-11.5 10t-11 7t-13.5 6.5t-14 3t-17 1.5q-76 0 -133 -115z" />
<glyph unicode="&#xd6;" horiz-adv-x="1484" d="M269.5 494.5q3.5 111.5 35.5 236.5q27 106 70.5 200t110.5 179t150.5 146t194 97t236.5 36q133 0 231.5 -37.5t155.5 -104t83 -160.5t20 -203.5t-39 -236.5q-38 -146 -106 -266t-163.5 -211.5t-226 -142t-283.5 -50.5q-123 0 -216 39t-148.5 108t-82 164t-23 206.5z M384.5 493q-3.5 -90 17.5 -165t65.5 -128.5t120 -83.5t176.5 -30q123 0 230.5 45.5t188 127t138.5 190t90 237.5q26 105 30.5 194t-15 163t-64 126t-121 80.5t-180.5 28.5q-129 0 -237 -43.5t-187 -124t-134.5 -186.5t-88.5 -238q-26 -103 -29.5 -193zM873 1511l37 150h137 l-37 -150h-137zM1227 1511l37 150h137l-37 -150h-137z" />
<glyph unicode="&#xd7;" horiz-adv-x="1183" d="M154 84l471 387l-273 385l92 68l267 -383l475 391l63 -80l-475 -395l275 -389l-88 -66l-273 385l-467 -385z" />
<glyph unicode="&#xd8;" horiz-adv-x="1484" d="M162 -23l184 185q-65 103 -75 252.5t34 316.5q27 106 70.5 200t110.5 179t150.5 146t194 97t236.5 36q247 0 373 -132l131 132h112l-192 -193q119 -196 27 -549q-38 -146 -106 -266t-163.5 -211.5t-226 -142t-283.5 -50.5q-222 0 -342 123l-123 -123h-112zM414 686 q-68 -279 18 -438l924 926q-93 104 -295 104q-129 0 -237 -43.5t-187 -124t-134.5 -186.5t-88.5 -238zM481 184q95 -98 283 -98q123 0 230.5 45.5t188 127t138.5 190t90 237.5q68 268 -8 422z" />
<glyph unicode="&#xd9;" horiz-adv-x="1337" d="M291 522l213 844h121l-215 -858q-104 -418 278 -418q200 0 318.5 101.5t169.5 312.5l217 862h120l-229 -924q-57 -226 -211.5 -345.5t-388.5 -119.5q-253 0 -355 146t-38 399zM762 1730h180l270 -239h-127z" />
<glyph unicode="&#xda;" horiz-adv-x="1337" d="M291 522l213 844h121l-215 -858q-104 -418 278 -418q200 0 318.5 101.5t169.5 312.5l217 862h120l-229 -924q-57 -226 -211.5 -345.5t-388.5 -119.5q-253 0 -355 146t-38 399zM942 1491l262 239h180l-315 -239h-127z" />
<glyph unicode="&#xdb;" horiz-adv-x="1337" d="M291 522l213 844h121l-215 -858q-104 -418 278 -418q200 0 318.5 101.5t169.5 312.5l217 862h120l-229 -924q-57 -226 -211.5 -345.5t-388.5 -119.5q-253 0 -355 146t-38 399zM784 1491l262 293h146l120 -293h-94l-108 198l-215 -198h-111z" />
<glyph unicode="&#xdc;" horiz-adv-x="1337" d="M291 522l213 844h121l-215 -858q-104 -418 278 -418q200 0 318.5 101.5t169.5 312.5l217 862h120l-229 -924q-57 -226 -211.5 -345.5t-388.5 -119.5q-253 0 -355 146t-38 399zM805 1511l37 150h137l-37 -150h-137zM1159 1511l37 150h137l-37 -150h-137z" />
<glyph unicode="&#xdd;" horiz-adv-x="1193" d="M397 1366h131l230 -672l571 672h148l-676 -780l-146 -586h-120l145 586zM860 1491l262 239h180l-315 -239h-127z" />
<glyph unicode="&#xde;" horiz-adv-x="1175" d="M164 0l340 1366h121l-68 -272h328q193 0 276.5 -115t48.5 -309q-32 -173 -162.5 -285.5t-316.5 -112.5h-381l-65 -272h-121zM379 383h358q137 0 229.5 78t127.5 211q32 134 -24.5 223.5t-192.5 89.5h-349z" />
<glyph unicode="&#xdf;" horiz-adv-x="1081" d="M164 0l280 1126q40 161 135.5 242.5t270.5 81.5q132 0 202 -63t72 -166q1 -66 -25.5 -123.5t-66.5 -94.5t-87 -73.5t-87.5 -64t-67 -62.5t-26.5 -72q1 -38 30 -72t70 -63.5t82 -63t70.5 -85.5t30.5 -117q2 -152 -100 -252.5t-281 -100.5q-155 0 -256 72l61 96 q38 -33 95.5 -51t101.5 -18q115 0 190 63t74 176q-1 24 -8.5 46.5t-15.5 36.5t-30 34.5t-32 29t-41 32.5q-82 65 -119.5 112.5t-38.5 112.5q-1 51 19 94.5t52 75.5t71.5 61.5t78.5 57.5t71 57t52 67.5t19 81.5q-1 62 -48 95.5t-126 33.5q-110 0 -180 -53.5t-101 -173.5 l-279 -1116h-112z" />
<glyph unicode="&#xe0;" d="M178 315q21 139 130 206t272 67h350l20 69q65 256 -215 256q-109 0 -177 -25t-128 -71l-47 96q83 55 165.5 79t205.5 24q200 0 274 -107t27 -293l-156 -616h-80l4 104q-27 -23 -53 -41.5t-52 -31.5t-46.5 -22.5t-46 -15.5t-40.5 -9.5t-40 -5t-33.5 -2t-33 0t-27.5 0.5 q-140 0 -218 94t-55 244zM293 295q-18 -105 41 -162t176 -57q79 0 149.5 24.5t127.5 82t79 139.5l39 165h-299q-145 0 -220 -43.5t-93 -148.5zM524 1378h181l270 -239h-127z" />
<glyph unicode="&#xe1;" d="M178 315q21 139 130 206t272 67h350l20 69q65 256 -215 256q-109 0 -177 -25t-128 -71l-47 96q83 55 165.5 79t205.5 24q200 0 274 -107t27 -293l-156 -616h-80l4 104q-27 -23 -53 -41.5t-52 -31.5t-46.5 -22.5t-46 -15.5t-40.5 -9.5t-40 -5t-33.5 -2t-33 0t-27.5 0.5 q-140 0 -218 94t-55 244zM293 295q-18 -105 41 -162t176 -57q79 0 149.5 24.5t127.5 82t79 139.5l39 165h-299q-145 0 -220 -43.5t-93 -148.5zM705 1139l262 239h180l-316 -239h-126z" />
<glyph unicode="&#xe2;" d="M178 315q21 139 130 206t272 67h350l20 69q65 256 -215 256q-109 0 -177 -25t-128 -71l-47 96q83 55 165.5 79t205.5 24q200 0 274 -107t27 -293l-156 -616h-80l4 104q-27 -23 -53 -41.5t-52 -31.5t-46.5 -22.5t-46 -15.5t-40.5 -9.5t-40 -5t-33.5 -2t-33 0t-27.5 0.5 q-140 0 -218 94t-55 244zM293 295q-18 -105 41 -162t176 -57q79 0 149.5 24.5t127.5 82t79 139.5l39 165h-299q-145 0 -220 -43.5t-93 -148.5zM547 1139l262 293h145l121 -293h-94l-109 198l-215 -198h-110z" />
<glyph unicode="&#xe3;" d="M178 315q21 139 130 206t272 67h350l20 69q65 256 -215 256q-109 0 -177 -25t-128 -71l-47 96q83 55 165.5 79t205.5 24q200 0 274 -107t27 -293l-156 -616h-80l4 104q-27 -23 -53 -41.5t-52 -31.5t-46.5 -22.5t-46 -15.5t-40.5 -9.5t-40 -5t-33.5 -2t-33 0t-27.5 0.5 q-140 0 -218 94t-55 244zM293 295q-18 -105 41 -162t176 -57q79 0 149.5 24.5t127.5 82t79 139.5l39 165h-299q-145 0 -220 -43.5t-93 -148.5zM508 1206q35 82 97.5 131t131.5 49q52 0 87.5 -21t72.5 -62q13 -13 21 -19.5t23.5 -13t33.5 -6.5q76 0 121 110l73 -37 q-87 -178 -221 -178q-73 0 -129 60q-3 3 -13 14t-13 14t-12 11t-14 10.5l-13 6.5t-16.5 5.5t-18.5 1.5q-75 0 -133 -115z" />
<glyph unicode="&#xe4;" d="M178 315q21 139 130 206t272 67h350l20 69q65 256 -215 256q-109 0 -177 -25t-128 -71l-47 96q83 55 165.5 79t205.5 24q200 0 274 -107t27 -293l-156 -616h-80l4 104q-27 -23 -53 -41.5t-52 -31.5t-46.5 -22.5t-46 -15.5t-40.5 -9.5t-40 -5t-33.5 -2t-33 0t-27.5 0.5 q-140 0 -218 94t-55 244zM293 295q-18 -105 41 -162t176 -57q79 0 149.5 24.5t127.5 82t79 139.5l39 165h-299q-145 0 -220 -43.5t-93 -148.5zM567 1159l37 150h137l-36 -150h-138zM922 1159l36 150h138l-37 -150h-137z" />
<glyph unicode="&#xe5;" d="M178 315q21 139 130 206t272 67h350l20 69q65 256 -215 256q-109 0 -177 -25t-128 -71l-47 96q83 55 165.5 79t205.5 24q200 0 274 -107t27 -293l-156 -616h-80l4 104q-27 -23 -53 -41.5t-52 -31.5t-46.5 -22.5t-46 -15.5t-40.5 -9.5t-40 -5t-33.5 -2t-33 0t-27.5 0.5 q-140 0 -218 94t-55 244zM293 295q-18 -105 41 -162t176 -57q79 0 149.5 24.5t127.5 82t79 139.5l39 165h-299q-145 0 -220 -43.5t-93 -148.5zM629 1313q-2 78 53 134t133 56t134.5 -56t58.5 -134q1 -78 -54 -133.5t-133 -55.5t-134 55.5t-58 133.5zM705 1313 q2 -46 35.5 -79.5t78.5 -33.5q47 0 81 33.5t32 79.5q0 47 -34.5 80.5t-82.5 33.5q-46 0 -78 -33.5t-32 -80.5z" />
<glyph unicode="&#xe6;" horiz-adv-x="1798" d="M180 328q52 258 416 258h342l16 78q30 118 -25 183.5t-198 65.5q-176 0 -311 -98l-45 90q151 111 366 111q260 0 316 -182q138 182 385 182q124 0 208.5 -36.5t124 -102t47.5 -155.5t-22 -198l-16 -65h-760l-8 -25q-39 -163 26 -258.5t242 -95.5q82 0 151.5 28.5 t143.5 88.5l49 -91q-159 -129 -364 -129q-133 0 -216.5 44t-121.5 149q-89 -119 -185 -157t-262 -38q-161 0 -245.5 98t-53.5 255zM287 309q-20 -107 39.5 -171t177.5 -64q306 0 366 239l41 174h-309q-130 0 -213 -39t-102 -139zM1049 563h647l6 21q40 146 -26 237.5 t-244 91.5q-294 0 -377 -323z" />
<glyph unicode="&#xe7;" horiz-adv-x="1019" d="M225.5 321.5q-4.5 92.5 22.5 198.5q56 226 204.5 361t370.5 135q118 0 198 -34t136 -105l-88 -76q-76 112 -254 112q-172 0 -290 -113.5t-165 -303.5q-48 -199 13.5 -307.5t238.5 -108.5q87 0 160 26t148 89l59 -86q-97 -75 -181 -102.5t-198 -29.5l-76 -90q42 13 94 13 q77 0 112.5 -54t19.5 -120q-18 -74 -88 -113t-173 -39q-60 0 -112.5 14.5t-81.5 36.5l47 68q48 -37 139 -37q58 0 100.5 20t49.5 60q6 39 -17.5 62.5t-66.5 23.5q-55 0 -94 -25l-58 45l113 142q-90 12 -153.5 58t-94 116.5t-35 163z" />
<glyph unicode="&#xe8;" horiz-adv-x="1165" d="M232 349q1 81 20 173q53 223 199.5 358.5t359.5 135.5q230 0 323 -133t35 -361l-16 -63h-793q-40 -180 27.5 -278.5t235.5 -98.5q93 0 166.5 24.5t144.5 83.5l59 -88q-91 -69 -185 -97t-206 -28q-91 0 -162 27.5t-115 77t-69 118t-24 149.5zM387 563h676 q42 159 -18.5 253.5t-237.5 94.5q-75 0 -140 -22.5t-110 -58t-80.5 -83t-56 -92.5t-33.5 -92zM584 1378h180l270 -239h-127z" />
<glyph unicode="&#xe9;" horiz-adv-x="1165" d="M232 349q1 81 20 173q53 223 199.5 358.5t359.5 135.5q230 0 323 -133t35 -361l-16 -63h-793q-40 -180 27.5 -278.5t235.5 -98.5q93 0 166.5 24.5t144.5 83.5l59 -88q-91 -69 -185 -97t-206 -28q-91 0 -162 27.5t-115 77t-69 118t-24 149.5zM387 563h676 q42 159 -18.5 253.5t-237.5 94.5q-75 0 -140 -22.5t-110 -58t-80.5 -83t-56 -92.5t-33.5 -92zM737 1139l262 239h181l-316 -239h-127z" />
<glyph unicode="&#xea;" horiz-adv-x="1165" d="M232 349q1 81 20 173q53 223 199.5 358.5t359.5 135.5q230 0 323 -133t35 -361l-16 -63h-793q-40 -180 27.5 -278.5t235.5 -98.5q93 0 166.5 24.5t144.5 83.5l59 -88q-91 -69 -185 -97t-206 -28q-91 0 -162 27.5t-115 77t-69 118t-24 149.5zM387 563h676 q42 159 -18.5 253.5t-237.5 94.5q-75 0 -140 -22.5t-110 -58t-80.5 -83t-56 -92.5t-33.5 -92zM606 1139l262 293h146l121 -293h-95l-108 198l-215 -198h-111z" />
<glyph unicode="&#xeb;" horiz-adv-x="1165" d="M232 349q1 81 20 173q53 223 199.5 358.5t359.5 135.5q230 0 323 -133t35 -361l-16 -63h-793q-40 -180 27.5 -278.5t235.5 -98.5q93 0 166.5 24.5t144.5 83.5l59 -88q-91 -69 -185 -97t-206 -28q-91 0 -162 27.5t-115 77t-69 118t-24 149.5zM387 563h676 q42 159 -18.5 253.5t-237.5 94.5q-75 0 -140 -22.5t-110 -58t-80.5 -83t-56 -92.5t-33.5 -92zM627 1159l37 150h137l-37 -150h-137zM981 1159l37 150h137l-37 -150h-137z" />
<glyph unicode="&#xec;" horiz-adv-x="440" d="M162 0l250 993h112l-250 -993h-112zM219 1378h180l271 -239h-127z" />
<glyph unicode="&#xed;" horiz-adv-x="440" d="M162 0l250 993h112l-250 -993h-112zM399 1139l263 239h180l-316 -239h-127z" />
<glyph unicode="&#xee;" horiz-adv-x="440" d="M162 0l250 993h112l-250 -993h-112zM242 1139l262 293h145l121 -293h-94l-109 198l-215 -198h-110z" />
<glyph unicode="&#xef;" horiz-adv-x="440" d="M162 0l250 993h112l-250 -993h-112zM262 1159l37 150h137l-37 -150h-137zM616 1159l37 150h138l-37 -150h-138z" />
<glyph unicode="&#xf0;" horiz-adv-x="1226" d="M231 358q0 120 43.5 233.5t119.5 202.5t189.5 143t243.5 54q205 0 293 -96q-26 175 -139 305l-197 -125l-45 74l185 115q-66 61 -146 102l80 70q100 -59 154 -111l170 107l45 -74l-158 -96q93 -120 131.5 -235t38.5 -320q0 -110 -23.5 -215t-73.5 -198.5t-121.5 -164 t-173.5 -111.5t-222 -41q-187 0 -290.5 103.5t-103.5 277.5zM346 358q0 -131 72 -204.5t211 -73.5q106 0 199.5 48t156.5 127.5t99 181t36 208.5q0 246 -289 246q-140 0 -252 -73.5t-172.5 -195t-60.5 -264.5z" />
<glyph unicode="&#xf1;" horiz-adv-x="1110" d="M164 0l246 993h84v-110q68 79 148 106t194 27q156 0 235 -104.5t41 -262.5l-158 -649h-112l157 643q37 147 -22 207.5t-191 60.5q-126 0 -221 -65.5t-125 -188.5l-164 -657h-112zM541 1206q35 82 97.5 131t131.5 49q52 0 87.5 -21t72.5 -62q13 -13 21 -19.5t23.5 -13 t33.5 -6.5q75 0 120 110l74 -37q-87 -178 -221 -178q-73 0 -129 60q-3 3 -13 14t-13 14t-12 11t-14 10.5l-13 6.5t-16.5 5.5t-18.5 1.5q-76 0 -134 -115z" />
<glyph unicode="&#xf2;" horiz-adv-x="1206" d="M252 520q17 79 48.5 150.5t81 135.5t112.5 110t147 73t180 27q243 0 339 -149.5t32 -405.5q-60 -237 -215.5 -360.5t-370.5 -123.5t-310 148.5t-44 394.5zM362 496q-42 -195 20 -304.5t241 -109.5q183 0 298 107.5t164 306.5q51 197 -16.5 306t-255.5 109 q-183 0 -296.5 -113.5t-154.5 -301.5zM602 1378h180l271 -239h-127z" />
<glyph unicode="&#xf3;" horiz-adv-x="1206" d="M252 520q17 79 48.5 150.5t81 135.5t112.5 110t147 73t180 27q243 0 339 -149.5t32 -405.5q-60 -237 -215.5 -360.5t-370.5 -123.5t-310 148.5t-44 394.5zM362 496q-42 -195 20 -304.5t241 -109.5q183 0 298 107.5t164 306.5q51 197 -16.5 306t-255.5 109 q-183 0 -296.5 -113.5t-154.5 -301.5zM782 1139l262 239h181l-316 -239h-127z" />
<glyph unicode="&#xf4;" horiz-adv-x="1206" d="M252 520q17 79 48.5 150.5t81 135.5t112.5 110t147 73t180 27q243 0 339 -149.5t32 -405.5q-60 -237 -215.5 -360.5t-370.5 -123.5t-310 148.5t-44 394.5zM362 496q-42 -195 20 -304.5t241 -109.5q183 0 298 107.5t164 306.5q51 197 -16.5 306t-255.5 109 q-183 0 -296.5 -113.5t-154.5 -301.5zM625 1139l262 293h145l121 -293h-94l-109 198l-215 -198h-110z" />
<glyph unicode="&#xf5;" horiz-adv-x="1206" d="M252 520q17 79 48.5 150.5t81 135.5t112.5 110t147 73t180 27q243 0 339 -149.5t32 -405.5q-60 -237 -215.5 -360.5t-370.5 -123.5t-310 148.5t-44 394.5zM362 496q-42 -195 20 -304.5t241 -109.5q183 0 298 107.5t164 306.5q51 197 -16.5 306t-255.5 109 q-183 0 -296.5 -113.5t-154.5 -301.5zM586 1206q35 82 97.5 131t131.5 49q52 0 87.5 -21t72.5 -62q13 -13 21 -19.5t23.5 -13t33.5 -6.5q76 0 121 110l73 -37q-87 -178 -221 -178q-73 0 -129 60q-3 3 -13 14t-13 14t-12 11t-14 10.5l-13 6.5t-16.5 5.5t-18.5 1.5 q-75 0 -133 -115z" />
<glyph unicode="&#xf6;" horiz-adv-x="1206" d="M252 520q17 79 48.5 150.5t81 135.5t112.5 110t147 73t180 27q243 0 339 -149.5t32 -405.5q-60 -237 -215.5 -360.5t-370.5 -123.5t-310 148.5t-44 394.5zM362 496q-42 -195 20 -304.5t241 -109.5q183 0 298 107.5t164 306.5q51 197 -16.5 306t-255.5 109 q-183 0 -296.5 -113.5t-154.5 -301.5zM645 1159l37 150h137l-37 -150h-137zM999 1159l37 150h138l-37 -150h-138z" />
<glyph unicode="&#xf7;" horiz-adv-x="1241" d="M250 432l24 103h943l-25 -103h-942zM549 43l41 160h137l-41 -160h-137zM731 766l41 160h137l-41 -160h-137z" />
<glyph unicode="&#xf8;" horiz-adv-x="1206" d="M162 -23l139 142q-102 146 -49 401q17 79 48.5 150.5t81 135.5t112.5 110t147 73t180 27q174 0 279 -84l84 84h100l-135 -137q109 -146 43 -418q-60 -237 -215.5 -360.5t-370.5 -123.5q-163 0 -258 86l-86 -86h-100zM362 496q-42 -192 17 -299l643 655q-75 59 -209 59 q-183 0 -296.5 -113.5t-154.5 -301.5zM424 141q68 -59 199 -59q183 0 298 107.5t164 306.5q51 195 -14 303z" />
<glyph unicode="&#xf9;" horiz-adv-x="1110" d="M233.5 190q-12.5 66 8.5 144l159 659h113l-158 -645q-38 -145 20 -204.5t187 -59.5q125 0 224.5 69t130.5 191l161 649h113l-246 -993h-80v113q-90 -80 -169 -108t-185 -28q-73 0 -133 26.5t-96.5 73.5t-49 113zM549 1378h180l270 -239h-127z" />
<glyph unicode="&#xfa;" horiz-adv-x="1110" d="M233.5 190q-12.5 66 8.5 144l159 659h113l-158 -645q-38 -145 20 -204.5t187 -59.5q125 0 224.5 69t130.5 191l161 649h113l-246 -993h-80v113q-90 -80 -169 -108t-185 -28q-73 0 -133 26.5t-96.5 73.5t-49 113zM729 1139l262 239h180l-315 -239h-127z" />
<glyph unicode="&#xfb;" horiz-adv-x="1110" d="M233.5 190q-12.5 66 8.5 144l159 659h113l-158 -645q-38 -145 20 -204.5t187 -59.5q125 0 224.5 69t130.5 191l161 649h113l-246 -993h-80v113q-90 -80 -169 -108t-185 -28q-73 0 -133 26.5t-96.5 73.5t-49 113zM571 1139l263 293h145l121 -293h-94l-109 198l-215 -198 h-111z" />
<glyph unicode="&#xfc;" horiz-adv-x="1110" d="M233.5 190q-12.5 66 8.5 144l159 659h113l-158 -645q-38 -145 20 -204.5t187 -59.5q125 0 224.5 69t130.5 191l161 649h113l-246 -993h-80v113q-90 -80 -169 -108t-185 -28q-73 0 -133 26.5t-96.5 73.5t-49 113zM592 1159l37 150h137l-37 -150h-137zM946 1159l37 150h137 l-37 -150h-137z" />
<glyph unicode="&#xfd;" horiz-adv-x="1021" d="M33 -406l45 101q38 -14 72 -14q59 0 107.5 33.5t94.5 105.5l117 182l-166 991h119l131 -862l532 862h125l-764 -1212q-69 -108 -138.5 -155.5t-172.5 -47.5q-40 0 -102 16zM705 1139l262 239h180l-316 -239h-126z" />
<glyph unicode="&#xfe;" horiz-adv-x="1173" d="M59 -408l461 1840h113l-117 -482q94 42 159 54t144 12q144 0 236 -69.5t117.5 -190.5t-9.5 -285q-53 -231 -208.5 -362.5t-358.5 -131.5q-33 0 -55.5 1t-59.5 8.5t-64 20.5t-58 39.5t-54 64.5l-133 -519h-113zM362 356q-30 -124 30.5 -201t203.5 -77q169 0 290.5 107 t170.5 304q51 203 -17 314.5t-249 111.5q-154 0 -308 -81z" />
<glyph unicode="&#xff;" horiz-adv-x="1021" d="M33 -406l45 101q38 -14 72 -14q59 0 107.5 33.5t94.5 105.5l117 182l-166 991h119l131 -862l532 862h125l-764 -1212q-69 -108 -138.5 -155.5t-172.5 -47.5q-40 0 -102 16zM567 1159l37 150h137l-36 -150h-138zM922 1159l36 150h138l-37 -150h-137z" />
<glyph unicode="&#x152;" horiz-adv-x="2168" d="M268.5 483.5q1.5 107.5 30.5 223.5q80 320 281.5 501t506.5 181q346 0 439 -267l61 244h791l-27 -111h-674l-127 -505h623l-29 -111h-622l-131 -528h673l-26 -111h-791l58 233q-143 -145 -269 -200.5t-295 -55.5q-119 0 -211 39t-148 107t-85.5 160.5t-28 200zM387 493.5 q-3 -89.5 18 -164.5t65.5 -128.5t119 -83t174.5 -29.5q162 0 296.5 79.5t222 212.5t130.5 306q36 131 33 240t-39.5 187t-122.5 121.5t-217 43.5q-130 0 -238.5 -43.5t-188 -124t-135.5 -186.5t-89 -238q-26 -103 -29 -192.5z" />
<glyph unicode="&#x153;" horiz-adv-x="1986" d="M258 516q61 240 213.5 370t380.5 130q287 0 350 -240q173 240 455 240q116 0 195 -36t116 -101t44 -155t-23 -198l-15 -63h-782l-6 -25q-42 -167 22.5 -264.5t231.5 -97.5q85 0 154 27t147 87l51 -86q-165 -129 -375 -129q-147 0 -227 57t-113 179q-206 -236 -481 -236 q-220 0 -309.5 147.5t-28.5 393.5zM365 496q-49 -199 13.5 -309.5t242.5 -110.5t301.5 111.5t169.5 308.5l4 16q42 190 -23 298t-239 108q-176 0 -297 -112.5t-172 -309.5zM1214 561h674l6 23q78 334 -258 334q-76 0 -142 -24t-111 -61t-81 -86.5t-56.5 -95t-31.5 -90.5z " />
<glyph unicode="&#x178;" horiz-adv-x="1193" d="M397 1366h131l230 -672l571 672h148l-676 -780l-146 -586h-120l145 586zM723 1511l37 150h137l-37 -150h-137zM1077 1511l37 150h137l-37 -150h-137z" />
<glyph unicode="&#x2c6;" horiz-adv-x="655" d="M346 1139l262 293h146l120 -293h-94l-108 198l-215 -198h-111z" />
<glyph unicode="&#x2dc;" horiz-adv-x="655" d="M311 1206q35 82 98 131t132 49q52 0 87 -21t72 -62q13 -13 21 -19.5t23.5 -13t33.5 -6.5q76 0 121 110l74 -37q-87 -178 -221 -178q-73 0 -129 60q-2 2 -11.5 12t-12 12.5l-10.5 10.5t-11.5 10t-11 7t-13.5 6.5t-14 3t-17 1.5q-76 0 -133 -115z" />
<glyph unicode="&#x2000;" horiz-adv-x="927" />
<glyph unicode="&#x2001;" horiz-adv-x="1855" />
<glyph unicode="&#x2002;" horiz-adv-x="927" />
<glyph unicode="&#x2003;" horiz-adv-x="1855" />
<glyph unicode="&#x2004;" horiz-adv-x="618" />
<glyph unicode="&#x2005;" horiz-adv-x="463" />
<glyph unicode="&#x2006;" horiz-adv-x="309" />
<glyph unicode="&#x2007;" horiz-adv-x="309" />
<glyph unicode="&#x2008;" horiz-adv-x="231" />
<glyph unicode="&#x2009;" horiz-adv-x="371" />
<glyph unicode="&#x200a;" horiz-adv-x="103" />
<glyph unicode="&#x2010;" horiz-adv-x="671" d="M244 567l30 121h467l-30 -121h-467z" />
<glyph unicode="&#x2011;" horiz-adv-x="671" d="M244 567l30 121h467l-30 -121h-467z" />
<glyph unicode="&#x2012;" horiz-adv-x="671" d="M244 567l30 121h467l-30 -121h-467z" />
<glyph unicode="&#x2013;" horiz-adv-x="1150" d="M246 567l30 121h926l-31 -121h-925z" />
<glyph unicode="&#x2014;" horiz-adv-x="1781" d="M250 567l31 121h1566l-30 -121h-1567z" />
<glyph unicode="&#x2018;" horiz-adv-x="276" d="M326 975l39 160l110 231h64l-93 -231h56l-39 -160h-137z" />
<glyph unicode="&#x2019;" horiz-adv-x="276" d="M326 975l92 231h-56l39 160h138l-39 -160l-111 -231h-63z" />
<glyph unicode="&#x201a;" horiz-adv-x="276" d="M25 -231l92 231h-56l39 160h138l-39 -160l-111 -231h-63z" />
<glyph unicode="&#x201c;" horiz-adv-x="610" d="M346 975l39 160l111 231h63l-92 -231h55l-39 -160h-137zM616 975l39 160l111 231h63l-92 -231h56l-39 -160h-138z" />
<glyph unicode="&#x201d;" horiz-adv-x="610" d="M367 975l92 231h-56l39 160h138l-39 -160l-111 -231h-63zM637 975l92 231h-55l39 160h137l-39 -160l-111 -231h-63z" />
<glyph unicode="&#x201e;" horiz-adv-x="610" d="M68 -231l92 231h-56l39 160h138l-39 -160l-111 -231h-63zM338 -231l92 231h-55l39 160h137l-39 -160l-111 -231h-63z" />
<glyph unicode="&#x2022;" horiz-adv-x="727" d="M367 606q0 66 45.5 113t111.5 47t113 -47t47 -113t-47 -111.5t-113 -45.5t-111.5 45.5t-45.5 111.5z" />
<glyph unicode="&#x2026;" horiz-adv-x="1202" d="M121 0l39 160h137l-39 -160h-137zM532 0l39 160h138l-39 -160h-138zM944 0l39 160h137l-39 -160h-137z" />
<glyph unicode="&#x202f;" horiz-adv-x="371" />
<glyph unicode="&#x2039;" horiz-adv-x="483" d="M154 506l340 334h127l-320 -359l139 -372h-106z" />
<glyph unicode="&#x203a;" horiz-adv-x="483" d="M100 109l320 358l-139 373h106l180 -398l-340 -333h-127z" />
<glyph unicode="&#x205f;" horiz-adv-x="463" />
<glyph unicode="&#x20ac;" horiz-adv-x="1357" d="M219 481l25 92h116q5 37 20.5 102.5t27.5 94.5h-115l20 92h121q185 527 701 527q137 0 234 -30.5t171 -101.5l-84 -90q-57 68 -136.5 93.5t-197.5 25.5q-209 0 -345 -103.5t-216 -320.5h580l-56 -92h-553q-30 -77 -49 -197h473l-57 -92h-430q-18 -197 61.5 -298 t276.5 -101q111 0 204 32t195 111l58 -92q-73 -52 -133 -83t-146.5 -52t-191.5 -21q-479 0 -447 504h-127z" />
<glyph unicode="&#x2122;" horiz-adv-x="972" d="M418 1309l14 57h320l-15 -57h-125l-106 -394h-68l107 394h-127zM733 915l121 451h107l22 -315l193 315h114l-121 -451h-67l108 402l-241 -402h-35l-31 402l-100 -402h-70z" />
<glyph unicode="&#x25fc;" horiz-adv-x="993" d="M0 0v993h993v-993h-993z" />
</font>
</defs>
</svg>
