<?xml version="1.0" standalone="no"?>
<!DOCTYPE svg PUBLIC "-//W3C//DTD SVG 1.1//EN" "http://www.w3.org/Graphics/SVG/1.1/DTD/svg11.dtd" >
<svg xmlns="http://www.w3.org/2000/svg">
<metadata></metadata>
<defs>
<font id="mirum_sansbold" horiz-adv-x="1484" >
<font-face units-per-em="2048" ascent="1638" descent="-410" />
<missing-glyph horiz-adv-x="530" />
<glyph unicode="&#xfb01;" horiz-adv-x="1150" d="M70 797v196h133v129q0 156 115 245t286 89q185 0 296.5 -88t111.5 -242h-238q1 60 -45.5 95.5t-120.5 35.5q-64 0 -117 -37.5t-53 -103.5v-123h185v-196h-185v-797h-235v797h-133zM776 0v993h236v-993h-236z" />
<glyph unicode="&#xfb02;" horiz-adv-x="1183" d="M70 797v196h133v133q0 154 113.5 241t283.5 87q136 0 248 -24t164 -50v-1108q0 -44 30.5 -67t108.5 -23l-39 -194q-171 0 -253.5 70t-82.5 194v981q-81 18 -164 18q-74 0 -124 -35t-50 -104v-119h183v-196h-183v-797h-235v797h-133z" />
<glyph horiz-adv-x="0" />
<glyph horiz-adv-x="682" />
<glyph unicode=" "  horiz-adv-x="530" />
<glyph unicode="&#x09;" horiz-adv-x="530" />
<glyph unicode="&#xa0;" horiz-adv-x="530" />
<glyph unicode="!" horiz-adv-x="466" d="M119 1366h266l-35 -975h-198zM123 0v248h262v-248h-262z" />
<glyph unicode="&#x22;" horiz-adv-x="739" d="M88 1366h223l-43 -475h-135zM428 1366h223l-43 -475h-135z" />
<glyph unicode="#" horiz-adv-x="1118" d="M39 436l29 164h188l49 287h-188l28 160h191l55 319h168l-59 -319h207l55 319h168l-62 -319h199l-29 -160h-192l-53 -287h196l-31 -164h-198l-51 -315h-170l59 315h-205l-57 -315h-168l59 315h-188zM424 600h201l53 287h-205z" />
<glyph unicode="$" horiz-adv-x="1173" d="M55 172l148 176q50 -76 119.5 -114.5t162.5 -51.5v428q-383 111 -383 404q0 159 100.5 262t282.5 113v176h191v-179q242 -24 379 -172l-140 -172q-23 30 -49.5 53t-46.5 35.5t-51 23t-45 14t-47 10.5v-387q63 -20 114 -42t104.5 -57t89 -77t58.5 -102.5t23 -131.5 q0 -55 -11.5 -106.5t-40 -102.5t-72 -90.5t-111.5 -67.5t-154 -37v-174h-191v174q-295 29 -430 195zM342 1016q0 -63 34 -98t109 -66v324q-68 -9 -105.5 -54t-37.5 -106zM676 188q41 4 72 24t48 48t25 56.5t8 56.5q0 116 -153 178v-363z" />
<glyph unicode="%" horiz-adv-x="1810" d="M102 1030q0 163 91 256.5t245 93.5q155 0 246.5 -93.5t91.5 -256.5q0 -164 -91.5 -257t-246.5 -93q-154 0 -245 93t-91 257zM285 1030q0 -91 39 -142.5t114 -51.5q76 0 117 52t41 142q0 91 -41.5 143t-116.5 52t-114 -52t-39 -143zM406 0l829 1366h174l-831 -1366h-172z M1034 334q0 163 91 257.5t245 94.5t246 -94.5t92 -257.5t-92 -256.5t-246 -93.5q-155 0 -245.5 93.5t-90.5 256.5zM1214 334q0 -91 40.5 -143t115.5 -52q74 0 115 52.5t41 142.5t-41 142t-115 52q-75 0 -115.5 -51.5t-40.5 -142.5z" />
<glyph unicode="&#x26;" horiz-adv-x="1232" d="M82 369q0 137 67.5 232.5t184.5 166.5q-96 143 -96 287q0 151 97 242.5t261 91.5q166 0 254 -78.5t88 -218.5q0 -70 -21 -127.5t-62.5 -102.5t-87 -78t-110.5 -69l209 -271q46 101 58 166q12 61 12 95l211 -91q-24 -114 -54.5 -194.5t-86.5 -157.5l206 -262h-286l-70 96 q-70 -64 -149.5 -92.5t-192.5 -28.5q-193 0 -312.5 101.5t-119.5 292.5zM324 379q0 -108 50 -157.5t150 -49.5q103 0 199 86l-268 348q-131 -86 -131 -227zM477 1053q0 -75 64 -174q79 43 119 88.5t40 113.5q0 50 -27 77.5t-79 27.5q-55 0 -86 -34t-31 -99z" />
<glyph unicode="'" horiz-adv-x="399" d="M88 1366h223l-43 -475h-135z" />
<glyph unicode="(" horiz-adv-x="534" d="M72 510q0 244 72.5 479.5t213.5 440.5l125 -74q-99 -207 -149.5 -409.5t-50.5 -436.5q0 -428 200 -844l-127 -76q-284 448 -284 920z" />
<glyph unicode=")" horiz-adv-x="534" d="M51 -336q201 418 201 844q0 234 -51 436.5t-150 409.5l125 73q141 -205 214 -440.5t73 -478.5q0 -471 -285 -920z" />
<glyph unicode="*" horiz-adv-x="784" d="M109 973l208 94l-204 94l73 133l176 -137l-28 232h158l-29 -234l182 139l72 -133l-207 -94l207 -98l-70 -129l-182 137l29 -234h-160l28 232l-178 -135z" />
<glyph unicode="+" horiz-adv-x="1239" d="M129 406v169h397v402h191v-402h397v-169h-397v-406h-191v406h-397z" />
<glyph unicode="," horiz-adv-x="442" d="M96 0v248h250v-211l-61 -268h-129l45 231h-105z" />
<glyph unicode="-" horiz-adv-x="673" d="M78 510v186h518v-186h-518z" />
<glyph unicode="." horiz-adv-x="477" d="M113 0v248h252v-248h-252z" />
<glyph unicode="/" horiz-adv-x="751" d="M35 -59l489 1482h193l-490 -1482h-192z" />
<glyph unicode="0" horiz-adv-x="1226" d="M102 684q0 115 14.5 213t50.5 191t92.5 158t146 104t204.5 39q98 0 177.5 -26.5t135 -76t95.5 -113.5t62.5 -145.5t33 -165t10.5 -178.5q0 -115 -14 -213t-50.5 -190.5t-93 -157.5t-147 -104t-207.5 -39t-207.5 39t-146.5 104t-92 157.5t-50 190.5t-14 213zM346 684 q0 -500 266 -500q269 0 269 500q0 498 -269 498q-266 0 -266 -498z" />
<glyph unicode="1" horiz-adv-x="630" d="M43 1165v201h451v-1366h-242v1165h-209z" />
<glyph unicode="2" horiz-adv-x="1097" d="M82 1182q94 119 198 163t259 44q196 0 313 -106t117 -312q0 -93 -36 -185.5t-111 -190t-164 -187t-222 -207.5h539v-201h-879v174q102 92 169.5 154t140 132.5t117.5 120.5t88 105.5t66 100t36.5 91t13.5 91.5q0 103 -54.5 157t-146.5 54q-94 0 -161 -36t-115 -120z" />
<glyph unicode="3" horiz-adv-x="1091" d="M53 201l160 159q60 -92 130 -135t169 -43q112 0 172.5 58.5t60.5 160.5q0 103 -55.5 152t-173.5 49h-137v199h137q94 0 152.5 50.5t58.5 139.5q0 93 -55.5 144t-157.5 51q-191 0 -303 -156l-145 158q152 201 454 201q206 0 323.5 -102t117.5 -283q0 -104 -43.5 -183 t-118.5 -114q186 -77 186 -312q0 -179 -127 -297t-340 -118q-162 0 -281.5 57.5t-183.5 163.5z" />
<glyph unicode="4" horiz-adv-x="1118" d="M82 336v172l545 858h260v-829h141v-201h-141v-336h-238v336h-567zM340 537h309v487z" />
<glyph unicode="5" horiz-adv-x="1165" d="M127 180l152 160q67 -94 134.5 -129t174.5 -35q102 0 160.5 72t58.5 190t-61.5 186t-170.5 68q-79 0 -140.5 -23.5t-106.5 -88.5l-168 63l43 723h768v-201h-551l-23 -309q84 35 205 35q190 0 314 -117.5t124 -327.5q0 -213 -127.5 -339.5t-337.5 -126.5 q-169 0 -270.5 43.5t-177.5 156.5z" />
<glyph unicode="6" horiz-adv-x="1191" d="M125 618q0 376 130.5 571t393.5 195q136 0 232 -38t168 -132l-148 -151q-54 69 -113.5 97t-140.5 28q-133 0 -207.5 -109t-79.5 -291q108 93 275 93q199 0 320.5 -114.5t121.5 -324.5q0 -92 -31 -174.5t-88.5 -147t-147 -102.5t-198.5 -38q-487 0 -487 638zM379 434 q0 -115 61 -185.5t164 -70.5q107 0 172.5 71.5t65.5 184.5q0 114 -61.5 182t-172.5 68q-104 0 -166.5 -68.5t-62.5 -181.5z" />
<glyph unicode="7" horiz-adv-x="976" d="M49 1165v201h860v-154l-403 -1212h-250l399 1165h-606z" />
<glyph unicode="8" horiz-adv-x="1216" d="M129 381q0 100 55.5 182t151.5 133q-86 43 -135 121t-49 187q0 119 63.5 208t166.5 133t228 44q200 0 330.5 -100.5t130.5 -284.5q0 -99 -51 -177.5t-133 -124.5q96 -42 149.5 -127t53.5 -192q0 -183 -129 -293t-351 -110q-220 0 -350.5 109t-130.5 292zM369 389 q0 -102 68 -156.5t173 -54.5q104 0 172 56.5t68 154.5q0 106 -68.5 157.5t-171.5 51.5q-45 0 -86.5 -12t-77 -36t-56.5 -65.5t-21 -95.5zM387 991q0 -96 64.5 -143t158.5 -47q56 0 104.5 18t84 62.5t35.5 109.5q0 93 -63.5 144t-160.5 51t-160 -51t-63 -144z" />
<glyph unicode="9" horiz-adv-x="1191" d="M115 926q0 129 50 232t155.5 167t250.5 64q114 0 200 -32.5t142 -90.5t90.5 -147t49 -192.5t14.5 -236.5q0 -156 -30.5 -283.5t-91.5 -224t-161.5 -149.5t-232.5 -53t-231.5 42.5t-172.5 137.5l152 153q56 -72 116 -104.5t138 -32.5q130 0 199 104.5t82 292.5 q-63 -45 -124.5 -68.5t-146.5 -23.5q-201 0 -324.5 117t-123.5 328zM352 932q0 -115 59.5 -181.5t170.5 -66.5q104 0 165.5 67.5t61.5 180.5q0 114 -61 184t-164 70q-108 0 -170 -68t-62 -186z" />
<glyph unicode=":" horiz-adv-x="448" d="M125 0v248h252v-248h-252zM125 664v247h252v-247h-252z" />
<glyph unicode=";" horiz-adv-x="448" d="M125 0v248h252v-211l-62 -268h-129l45 231h-106zM125 664v247h252v-247h-252z" />
<glyph unicode="&#x3c;" horiz-adv-x="1236" d="M125 416v151l983 443v-203l-715 -315l715 -314v-198z" />
<glyph unicode="=" horiz-adv-x="1239" d="M127 201v166h985v-166h-985zM127 616v172h985v-172h-985z" />
<glyph unicode="&#x3e;" horiz-adv-x="1236" d="M129 -20v198l713 314l-713 315v203l983 -443v-151z" />
<glyph unicode="?" horiz-adv-x="923" d="M51 1161q63 125 159.5 176.5t256.5 51.5q108 0 188 -34t123.5 -92t63.5 -124t20 -142q0 -90 -25.5 -163t-69 -118.5t-94.5 -72.5t-108 -35l-18 -217h-197l-26 400h73h35q82 0 132 52.5t50 155.5q0 74 -40.5 128.5t-122.5 54.5q-76 0 -123.5 -31t-79.5 -104zM319 0v248 h263v-248h-263z" />
<glyph unicode="@" horiz-adv-x="1613" d="M92 616q0 216 102 393t280 277t394 100q311 0 482.5 -166.5t171.5 -443.5q0 -117 -32.5 -215t-86 -160.5t-120 -96.5t-136.5 -34q-62 0 -108.5 29.5t-65.5 77.5q-51 -51 -124.5 -79t-148.5 -28q-130 0 -210 95t-80 243q0 108 35.5 202t94.5 158t137 101t163 37 q149 0 223 -86l27 53h147l-102 -526q-1 -4 -3 -16t-3 -20.5t-1 -12.5q0 -45 16 -65.5t54 -20.5q24 0 54.5 23.5t61 66.5t51.5 117t21 161q0 228 -138 360t-380 132q-123 0 -234.5 -50t-193.5 -136t-130 -209.5t-48 -264.5q0 -235 142.5 -376.5t361.5 -141.5q195 0 356 111 l60 -94q-96 -64 -211 -99t-221 -35q-295 0 -476.5 177.5t-181.5 461.5zM604 612q0 -86 33 -135t100 -49q130 0 209 141l58 297q-40 99 -142 99q-113 0 -185.5 -105t-72.5 -248z" />
<glyph unicode="A" horiz-adv-x="1267" d="M18 0l484 1366h262l485 -1366h-266l-102 297h-498l-102 -297h-263zM461 522h342l-172 504z" />
<glyph unicode="B" horiz-adv-x="1234" d="M147 0v1366h555q198 0 304 -100t106 -267q0 -100 -44.5 -178t-117.5 -119q91 -41 139 -123t48 -190q0 -172 -116.5 -280.5t-301.5 -108.5h-572zM399 211h287q86 0 138.5 50.5t52.5 139.5q0 82 -52 134.5t-147 52.5h-279v-377zM399 799h267q88 0 137 52t49 130 q0 172 -174 172h-279v-354z" />
<glyph unicode="C" horiz-adv-x="1255" d="M102 680q0 328 168.5 518.5t460.5 190.5q170 0 283 -40.5t207 -134.5l-154 -174q-74 81 -149.5 106t-176.5 25q-188 0 -284.5 -130.5t-96.5 -360.5q0 -221 95 -352t282 -131q71 0 109 6t93.5 36t129.5 95l152 -178q-104 -94 -213 -136.5t-277 -42.5q-304 0 -466.5 186 t-162.5 517z" />
<glyph unicode="D" horiz-adv-x="1363" d="M147 0v1366h482q198 0 343 -91.5t217.5 -244.5t72.5 -348q0 -196 -72.5 -349t-217.5 -243t-343 -90h-482zM399 211h226q122 0 211 64.5t131.5 170t42.5 236.5q0 133 -41.5 237.5t-130 169t-213.5 64.5h-226v-942z" />
<glyph unicode="E" horiz-adv-x="1128" d="M147 0v1366h879v-213h-627v-354h580v-213h-580v-375h627v-211h-879z" />
<glyph unicode="F" horiz-adv-x="1091" d="M147 0v1366h875v-213h-623v-354h576v-211h-576v-588h-252z" />
<glyph unicode="G" horiz-adv-x="1417" d="M102 682q0 331 168 519t469 188q179 0 289.5 -40.5t198.5 -140.5l-160 -172q-56 82 -136 110t-183 28q-189 0 -288.5 -128t-99.5 -364q0 -238 97.5 -363.5t294.5 -125.5q196 0 280 75v275h-268v213h518v-576q-108 -117 -231.5 -158.5t-300.5 -41.5q-313 0 -480.5 179.5 t-167.5 522.5z" />
<glyph unicode="H" horiz-adv-x="1390" d="M147 0v1366h252v-565h594v565h250v-1366h-250v588h-594v-588h-252z" />
<glyph unicode="I" horiz-adv-x="546" d="M147 0v1366h252v-1366h-252z" />
<glyph unicode="J" horiz-adv-x="995" d="M31 100l131 199q47 -46 97 -70t77 -27t70 -3q96 0 147 59.5t51 171.5v936h252v-948q0 -222 -120.5 -331.5t-327.5 -109.5q-246 0 -377 123z" />
<glyph unicode="K" horiz-adv-x="1239" d="M147 0v1366h252v-528l506 528h318l-641 -664l651 -702h-320l-514 549v-549h-252z" />
<glyph unicode="L" horiz-adv-x="1026" d="M147 0v1366h252v-1155h570v-211h-822z" />
<glyph unicode="M" horiz-adv-x="1605" d="M147 0v1366h304l354 -852l352 852h301v-1366h-239v944l-326 -782h-180l-324 782v-944h-242z" />
<glyph unicode="N" horiz-adv-x="1376" d="M147 0v1366h232l606 -909v909h244v-1366h-217l-623 926v-926h-242z" />
<glyph unicode="O" d="M102 686q0 157 41 285.5t121 222t203 144.5t281 51t280 -51t199 -145t116 -221.5t39 -285.5q0 -153 -39 -281t-115.5 -224.5t-199 -150t-280.5 -53.5q-157 0 -281.5 54t-203.5 150t-120 224t-41 281zM358 686q0 -109 21.5 -196.5t66 -154.5t120 -103.5t177.5 -36.5 q101 0 176 36.5t119.5 103.5t66 154.5t21.5 196.5q0 224 -94 354.5t-289 130.5q-100 0 -175 -35.5t-120.5 -101t-67.5 -152.5t-22 -196z" />
<glyph unicode="P" horiz-adv-x="1187" d="M147 0v1366h521q198 0 313 -120t115 -306q0 -188 -116.5 -312t-311.5 -124h-269v-504h-252zM399 717h248q92 0 143.5 62t51.5 161q0 96 -51 154.5t-144 58.5h-248v-436z" />
<glyph unicode="Q" d="M102 686q0 211 70 366.5t216 244.5t355 89q311 0 475 -189.5t164 -510.5q0 -249 -103 -427t-304 -247l102 -248h-215l-84 213h-20q-166 0 -293.5 53.5t-206 150.5t-117.5 224t-39 281zM358 686q0 -203 82 -336t246 -151l-80 204h217l70 -180q116 44 174.5 168t58.5 295 q0 87 -13.5 159.5t-42.5 133t-73.5 102.5t-108.5 65t-145 23q-100 0 -174.5 -35.5t-120 -100.5t-68 -152t-22.5 -195z" />
<glyph unicode="R" horiz-adv-x="1200" d="M147 0v1366h529q188 0 304 -112.5t116 -313.5q0 -87 -22.5 -158.5t-61 -118.5t-82 -76.5t-92.5 -45.5l288 -541h-274l-262 512h-191v-512h-252zM399 727h244q87 0 141 55.5t54 157.5t-53 157.5t-140 55.5h-246v-426z" />
<glyph unicode="S" horiz-adv-x="1140" d="M68 186l159 193q70 -98 152 -140t211 -42q63 0 110 17.5t71 46.5t35 60.5t11 65.5q0 29 -7 52.5t-24 41.5t-34 31t-48 26t-53.5 20.5t-62.5 19.5l-88 26q-58 17 -95.5 30t-82.5 32.5t-73 39t-56.5 48t-44 62.5t-25.5 79t-10 100q0 177 127.5 285.5t337.5 108.5 q166 0 277 -36.5t202 -138.5l-154 -184q-69 80 -145.5 110.5t-175.5 30.5q-92 0 -152.5 -39.5t-60.5 -111.5q0 -26 7.5 -47t26 -38.5t36.5 -30t52 -26t59.5 -22t70.5 -22.5l53 -17q52 -16 89.5 -29.5t82 -34t75.5 -42t61.5 -53t49 -67.5t30 -84.5t11.5 -105.5 q0 -64 -16.5 -123t-54.5 -114.5t-93.5 -96.5t-139.5 -65.5t-187 -24.5q-185 0 -309 50t-205 159z" />
<glyph unicode="T" horiz-adv-x="1103" d="M55 1153v213h994v-213h-373v-1153h-252v1153h-369z" />
<glyph unicode="U" horiz-adv-x="1357" d="M147 510v856h252v-858q0 -160 65.5 -233.5t209.5 -73.5q142 0 212 74.5t70 232.5v858h254v-854q0 -261 -136 -398t-400 -137q-263 0 -395 137t-132 396z" />
<glyph unicode="V" horiz-adv-x="1294" d="M35 1366h264l346 -1006l344 1006h271l-492 -1366h-246z" />
<glyph unicode="W" horiz-adv-x="1742" d="M35 1366h258l237 -956l238 804h209l235 -804l236 956h260l-367 -1366h-237l-232 772l-235 -772h-236z" />
<glyph unicode="X" horiz-adv-x="1333" d="M29 0l491 696l-463 670h295l316 -467l313 467h297l-461 -670l488 -696h-295l-342 498l-338 -498h-301z" />
<glyph unicode="Y" horiz-adv-x="1275" d="M29 1366h280l328 -545l328 545h282l-485 -786v-580h-250v582z" />
<glyph unicode="Z" horiz-adv-x="1146" d="M92 0v176l641 977h-641v213h952v-178l-643 -975h658v-213h-967z" />
<glyph unicode="[" horiz-adv-x="561" d="M92 -408v1797h408v-162h-209v-1471h209v-164h-408z" />
<glyph unicode="\" horiz-adv-x="751" d="M35 1425h192l490 -1486h-193z" />
<glyph unicode="]" horiz-adv-x="559" d="M61 -246h207v1473h-207v162h406v-1799h-406v164z" />
<glyph unicode="^" horiz-adv-x="1218" d="M109 553l417 813h172l412 -813h-229l-273 557l-270 -557h-229z" />
<glyph unicode="_" horiz-adv-x="1155" d="M-18 -143h1194v-144h-1194v144z" />
<glyph unicode="`" horiz-adv-x="655" d="M125 1409h244l190 -274h-178z" />
<glyph unicode="a" horiz-adv-x="1056" d="M86 301q0 155 107.5 238.5t269.5 83.5h225v26q0 174 -180 174q-83 0 -143 -19.5t-119 -74.5l-123 156q78 69 171.5 99t229.5 30q187 0 294.5 -90.5t107.5 -270.5v-653h-201l-12 76q-129 -99 -279 -99q-73 0 -134.5 19t-110 57t-76 101.5t-27.5 146.5zM326 305 q0 -64 45.5 -96.5t124.5 -32.5q81 0 136.5 39.5t55.5 118.5v98h-196q-76 0 -121 -31t-45 -96z" />
<glyph unicode="b" horiz-adv-x="1159" d="M139 0v1432h238v-453q110 35 207 35q231 0 354 -138.5t123 -383.5q0 -236 -131.5 -374t-343.5 -138q-141 0 -236 92l-12 -72h-199zM377 373q0 -86 52 -140.5t146 -54.5q116 0 180 80.5t64 230.5q0 318 -254 318q-101 0 -188 -49v-385z" />
<glyph unicode="c" horiz-adv-x="1050" d="M98 496q0 232 130.5 375t353.5 143q135 0 231 -42t170 -136l-168 -154q-50 72 -105 96.5t-122 24.5q-123 0 -186.5 -81.5t-63.5 -225.5q0 -148 64 -228t188 -80q69 0 126 25t118 98l155 -159q-94 -96 -187.5 -134t-228.5 -38q-229 0 -352 140t-123 376z" />
<glyph unicode="d" horiz-adv-x="1155" d="M98 492q0 242 129.5 382t356.5 140q85 0 198 -31v449h238v-1432h-199l-12 74q-117 -94 -256 -94q-219 0 -337 131.5t-118 380.5zM336 489q0 -151 64 -231t184 -80q94 0 146 54.5t52 140.5v393q-94 43 -192 43q-124 0 -189 -82t-65 -238z" />
<glyph unicode="e" horiz-adv-x="1144" d="M98 494q0 151 53 267.5t161.5 185.5t258.5 69q244 0 362 -133t118 -367v-104h-709q20 -236 244 -236q76 0 135 20.5t117 82.5l143 -162q-90 -78 -177 -109t-212 -31q-246 0 -370 134.5t-124 382.5zM342 608h469q-6 101 -65.5 155t-172.5 54q-108 0 -166 -61t-65 -148z " />
<glyph unicode="f" horiz-adv-x="749" d="M70 797v196h133v142q0 143 85.5 227t225.5 84q76 0 139.5 -17t118.5 -69l-108 -176q-31 57 -117 57q-47 0 -77 -26t-30 -82v-140h238v-196h-238v-797h-237v797h-133z" />
<glyph unicode="g" horiz-adv-x="1153" d="M98 502q0 238 117.5 376t339.5 138q157 0 250 -98l12 75h201v-995q0 -186 -122.5 -303t-354.5 -117q-133 0 -233.5 31.5t-172.5 111.5l135 173q53 -71 117 -95t154 -26h3q105 0 170 69q66 69 66 170v4q-111 -34 -205 -34q-233 0 -355 130t-122 390zM336 512 q0 -326 248 -326q95 0 196 43v389q0 92 -52 143.5t-150 51.5q-119 0 -180.5 -77t-61.5 -224z" />
<glyph unicode="h" horiz-adv-x="1107" d="M139 0v1432h238v-451q100 33 223 33q167 0 272 -90.5t105 -253.5v-670h-236v631q0 96 -48.5 139t-131.5 43q-121 0 -184 -63v-750h-238z" />
<glyph unicode="i" horiz-adv-x="516" d="M139 0v993h238v-993h-238zM139 1143v223h238v-223h-238z" />
<glyph unicode="j" horiz-adv-x="542" d="M-119 -350l103 194q53 -53 118 -53q29 0 49.5 20t20.5 68v1114h236v-1118q0 -297 -275 -297q-149 0 -252 72zM172 1141v225h236v-225h-236z" />
<glyph unicode="k" horiz-adv-x="1030" d="M139 0v1432h238v-756l330 317h311l-473 -446l489 -547h-297l-360 401v-401h-238z" />
<glyph unicode="l" horiz-adv-x="540" d="M131 252v1180h238v-1156q0 -92 143 -92l-39 -196q-170 0 -256 70.5t-86 193.5z" />
<glyph unicode="m" horiz-adv-x="1673" d="M139 0v993h199l14 -75q43 42 110 70t140 28q97 0 156 -26t104 -81q102 105 307 105q170 0 271.5 -88t101.5 -242v-684h-237v653q0 78 -45 119t-127 41q-73 0 -122.5 -41.5t-49.5 -103.5v-668h-238v672q0 72 -45.5 106.5t-120.5 34.5q-74 0 -127 -43.5t-53 -116.5v-653 h-238z" />
<glyph unicode="n" horiz-adv-x="1114" d="M139 0v993h201l12 -73q52 53 115.5 73.5t157.5 20.5q172 0 265 -86.5t93 -251.5v-676h-235v631q0 182 -185 182q-81 0 -134.5 -44.5t-53.5 -127.5v-641h-236z" />
<glyph unicode="o" horiz-adv-x="1185" d="M98 496q0 241 133.5 380.5t360.5 139.5t361 -140t134 -380t-134 -379.5t-361 -139.5t-360.5 139.5t-133.5 379.5zM338 496q0 -145 64.5 -227.5t189.5 -82.5t189.5 82.5t64.5 227.5t-64.5 227t-189.5 82t-189.5 -82t-64.5 -227z" />
<glyph unicode="p" horiz-adv-x="1157" d="M139 -408v1401h199l12 -75q101 98 281 98q207 0 317.5 -137.5t110.5 -376.5q0 -238 -124.5 -380t-340.5 -142q-100 0 -217 30v-418h-238zM377 229q86 -45 194 -45q122 0 185 82t63 238q0 154 -57.5 232.5t-181.5 78.5q-89 0 -146 -54t-57 -138v-394z" />
<glyph unicode="q" horiz-adv-x="1155" d="M98 500q0 238 126 376t341 138q165 0 242 -94l14 73h199v-1401h-238v418q-104 -33 -196 -33q-237 0 -362.5 139.5t-125.5 383.5zM336 502q0 -316 254 -316q96 0 192 47v388q0 86 -52 139t-146 53q-117 0 -182.5 -81t-65.5 -230z" />
<glyph unicode="r" horiz-adv-x="821" d="M139 0v993h199l12 -78q97 101 219 101q131 0 226 -76l-95 -195q-75 68 -159 68q-78 0 -122 -47.5t-44 -144.5v-621h-236z" />
<glyph unicode="s" horiz-adv-x="937" d="M47 113l125 188q97 -121 291 -121q78 0 120 29t42 82q0 12 -3 23t-10.5 19.5t-14 15.5t-20 13.5t-23 10.5t-28 9t-28.5 8t-32 8t-32 8q-149 38 -205 66q-125 62 -142 194q-3 23 -3 49q0 132 99 216.5t278 84.5q240 0 385 -117l-105 -174q-88 90 -270 90q-66 0 -107.5 -22 t-41.5 -64q0 -43 46 -67.5t132 -45.5q151 -38 210 -67q134 -67 151 -210q3 -23 3 -48q0 -136 -101 -225t-284 -89q-52 0 -85 1t-86 8.5t-92.5 21t-85 40.5t-83.5 65z" />
<glyph unicode="t" horiz-adv-x="749" d="M51 797v196h152v236h237v-236h222v-196h-222v-541q0 -39 16 -60.5t44 -21.5q64 0 123 51l75 -188q-94 -60 -237 -60q-118 0 -188 70t-70 189v561h-152z" />
<glyph unicode="u" horiz-adv-x="1110" d="M131 317v676h238v-633q0 -99 47.5 -138.5t132.5 -39.5q83 0 135.5 43t52.5 125v643h238v-993h-199l-16 76q-110 -99 -258 -99q-163 0 -267 89t-104 251z" />
<glyph unicode="v" horiz-adv-x="1056" d="M29 993h250l249 -678l248 678h252l-391 -993h-217z" />
<glyph unicode="w" horiz-adv-x="1521" d="M31 993h241l197 -676l190 676h205l189 -678l196 678h242l-320 -993h-247l-164 596l-162 -596h-246z" />
<glyph unicode="x" horiz-adv-x="1062" d="M20 0l371 510l-360 483h280l219 -307l222 307h274l-356 -483l372 -510h-278l-234 328l-231 -328h-279z" />
<glyph unicode="y" horiz-adv-x="1048" d="M27 993h252l262 -661l227 661h254l-444 -1196q-81 -216 -291 -219q-30 0 -87 6.5t-89 16.5l47 223q53 -35 114 -35q57 0 93 82l63 160z" />
<glyph unicode="z" horiz-adv-x="974" d="M82 0v154l483 643h-475v196h791v-153l-486 -643h498v-197h-811z" />
<glyph unicode="{" horiz-adv-x="630" d="M72 414v157q66 0 95.5 30t29.5 77v418q0 138 71.5 215.5t206.5 77.5h105v-162h-97q-37 0 -60.5 -29t-23.5 -82v-450q0 -51 -22 -96.5t-60 -75.5q82 -63 82 -175v-452q0 -53 20.5 -81t55.5 -28h105v-164h-97q-135 0 -210.5 78t-75.5 213v422q0 47 -29.5 77t-95.5 30z" />
<glyph unicode="|" horiz-adv-x="495" d="M154 -266v1773h188v-1773h-188z" />
<glyph unicode="}" horiz-adv-x="630" d="M51 -242h105q35 0 55 28t20 81v452q0 112 82 175q-38 30 -60 75.5t-22 96.5v450q0 53 -23.5 82t-60.5 29h-96v162h105q135 0 206.5 -77.5t71.5 -215.5v-418q0 -47 29.5 -77t95.5 -30v-157q-66 0 -95.5 -30t-29.5 -77v-422q0 -135 -76 -213t-211 -78h-96v164z" />
<glyph unicode="~" horiz-adv-x="1265" d="M123 571q18 129 106 215t213 86q47 0 86.5 -9.5t74 -30t54 -35t50.5 -41.5q27 -23 41 -34t34.5 -21.5t36.5 -10.5q60 0 96.5 51t42.5 142l179 -86q-18 -125 -107.5 -211t-210.5 -86q-56 0 -105.5 18t-77 37.5t-67.5 54.5q-31 27 -45 38.5t-37.5 23.5t-42.5 12 q-57 0 -95 -56.5t-46 -142.5z" />
<glyph unicode="&#xa1;" horiz-adv-x="466" d="M82 0l35 975h198l33 -975h-266zM82 1118v248h262v-248h-262z" />
<glyph unicode="&#xa2;" horiz-adv-x="1042" d="M82 705q0 206 109 346t303 166v149h174v-147q187 -19 309 -177l-168 -133q-69 97 -141 117v-637q81 27 161 121l152 -145q-81 -84 -152.5 -122.5t-160.5 -49.5v-152h-174v154q-131 12 -225 82t-140.5 180t-46.5 248zM313 705q0 -77 18.5 -142.5t60.5 -114t102 -59.5v635 q-86 -16 -133.5 -108.5t-47.5 -210.5z" />
<glyph unicode="&#xa3;" horiz-adv-x="1089" d="M88 524v170h148q-78 139 -78 281q0 179 115 295t309 116q146 0 245 -48t174 -177l-182 -133q-47 85 -96 119.5t-131 34.5q-83 0 -134.5 -56t-51.5 -151q0 -130 94 -281h307v-170h-236q7 -27 7 -69q0 -123 -64 -217q53 -2 133 -31t119 -29q41 0 90 37.5t84 85.5l111 -205 q-111 -114 -281 -114q-56 0 -161 35.5t-163 35.5q-80 0 -229 -82l-96 183q223 110 223 282q0 57 -10 88h-246z" />
<glyph unicode="&#xa4;" horiz-adv-x="970" d="M68 424l143 143q-39 70 -39 154q0 83 39 156l-143 143l114 123l148 -148q70 37 155 37q65 0 152 -37l147 148l119 -121l-143 -143q41 -64 41 -158q0 -92 -41 -156l143 -143l-119 -119l-145 146q-70 -37 -154 -37q-87 0 -155 39l-148 -148zM336 721q0 -63 43 -106.5 t106 -43.5t105.5 43.5t42.5 106.5t-42.5 107t-105.5 44t-106 -44t-43 -107z" />
<glyph unicode="&#xa5;" horiz-adv-x="1249" d="M16 1366h273l334 -528l331 528h279l-408 -608h256v-172h-333v-125h333v-170h-333v-291h-250v291h-332v170h332v125h-332v172h252z" />
<glyph unicode="&#xa6;" horiz-adv-x="491" d="M154 -63v643h184v-643h-184zM154 784v643h184v-643h-184z" />
<glyph unicode="&#xa7;" horiz-adv-x="972" d="M76 0l123 197q60 -74 135.5 -117t157.5 -43q153 0 153 104q0 30 -15.5 52.5t-50.5 40t-62.5 27t-80.5 24.5q-63 18 -101.5 31t-91 40t-82.5 57t-51.5 79t-21.5 110q0 91 46.5 154.5t127.5 97.5q-143 89 -143 231q0 135 98.5 218t274.5 83q138 0 227 -30.5t164 -104.5 l-123 -184q-98 121 -252 121q-148 0 -148 -86q0 -21 11 -38.5t25.5 -29t43 -23t48.5 -18t57 -16.5q37 -11 56 -16.5t54 -17.5t54.5 -21.5t49 -26t46.5 -32.5t37 -39t30.5 -48.5t17.5 -58.5t7 -70q0 -74 -42 -140t-112 -110q70 -43 108 -99.5t38 -139.5q0 -158 -107 -240 t-290 -82q-129 0 -235.5 43.5t-180.5 120.5zM328 627q0 -108 221 -156q46 24 78 65.5t32 90.5q0 25 -13 46.5t-26.5 33.5t-42 24.5t-39.5 16t-39 11.5q-7 2 -10 3q-80 -13 -120.5 -49t-40.5 -86z" />
<glyph unicode="&#xa8;" horiz-adv-x="657" d="M57 1159v197h193v-197h-193zM408 1159v197h192v-197h-192z" />
<glyph unicode="&#xa9;" horiz-adv-x="1605" d="M92 684q0 143 56.5 273t151.5 224t226.5 149.5t276.5 55.5t276.5 -55.5t226.5 -149.5t151 -224t56 -273t-56 -273.5t-151 -225t-226.5 -150t-276.5 -55.5t-276.5 55.5t-226.5 150t-151.5 225t-56.5 273.5zM233 684q0 -118 45 -225t121.5 -185t182 -124t221.5 -46 q155 0 286 78t207 211.5t76 290.5q0 156 -76 289.5t-207 212t-286 78.5t-286.5 -78.5t-207.5 -212t-76 -289.5zM393 686q0 199 115.5 323t300.5 124q206 0 332 -154l-111 -121q-88 129 -223 129q-111 0 -177.5 -81.5t-66.5 -219.5q0 -134 69 -218.5t175 -84.5 q56 0 118.5 34.5t106.5 96.5l115 -121q-164 -157 -338 -157q-184 0 -300 126.5t-116 323.5z" />
<glyph unicode="&#xaa;" horiz-adv-x="710" d="M90 920q0 98 67 151t171 53h164v25q0 56 -34.5 87.5t-101.5 31.5q-105 0 -170 -74l-73 96q52 49 111 69.5t143 20.5q113 0 183.5 -57.5t70.5 -171.5v-432h-107l-10 47q-81 -61 -185 -61q-98 0 -163.5 55t-65.5 160zM219 920q0 -48 35 -74.5t92 -26.5q62 0 104 29t42 88 v76h-148q-55 0 -90 -23.5t-35 -68.5z" />
<glyph unicode="&#xab;" horiz-adv-x="942" d="M61 485l267 375h196l-241 -377l239 -379h-194zM428 485l266 375h197l-242 -377l240 -379h-195z" />
<glyph unicode="&#xac;" horiz-adv-x="1232" d="M127 741v170h979v-587h-191v417h-788z" />
<glyph unicode="&#xad;" horiz-adv-x="673" d="M78 510v186h518v-186h-518z" />
<glyph unicode="&#xae;" horiz-adv-x="917" d="M115 1034q0 150 103.5 253.5t252.5 103.5q152 0 255 -103t103 -254q0 -149 -103.5 -251.5t-254.5 -102.5t-253.5 102.5t-102.5 251.5zM168 1034q0 -128 88 -215.5t215 -87.5t215 87.5t88 215.5t-88 215.5t-215 87.5t-215 -87.5t-88 -215.5zM330 821v428h180q59 0 95 -36 t36 -97q0 -57 -26.5 -88t-59.5 -39l76 -168h-86l-70 158h-65v-158h-80zM410 1053h92q25 0 41 17.5t16 45.5q0 26 -16 44t-41 18h-92v-125z" />
<glyph unicode="&#xaf;" horiz-adv-x="655" d="M66 1184v143h530v-143h-530z" />
<glyph unicode="&#xb0;" horiz-adv-x="557" d="M61 1171q0 91 62.5 154.5t152.5 63.5q91 0 154.5 -63.5t63.5 -154.5q0 -90 -63.5 -152.5t-154.5 -62.5t-153 62t-62 153zM170 1171q0 -44 31 -75t75 -31q45 0 77 31t32 75q0 46 -30.5 77.5t-78.5 31.5q-44 0 -75 -32t-31 -77z" />
<glyph unicode="&#xb1;" horiz-adv-x="1243" d="M129 0v168h985v-168h-985zM129 635v168h397v338h189v-338h397v-168h-397v-344h-189v344h-397z" />
<glyph unicode="&#xb2;" horiz-adv-x="737" d="M88 1268q62 66 130.5 88t156.5 22q132 0 203 -64.5t71 -189.5q0 -45 -16.5 -90t-39.5 -81.5t-68.5 -84.5t-82 -82t-100.5 -90h311v-145h-561v123q69 58 104.5 88.5t85.5 74.5t74 69t53.5 58t42.5 56.5t22 49.5t9 50q0 55 -32.5 83t-92.5 28q-55 0 -87 -14.5t-64 -55.5z " />
<glyph unicode="&#xb3;" horiz-adv-x="724" d="M53 664l113 104q32 -55 76 -71.5t108 -16.5q69 0 103 32.5t34 86.5q0 100 -139 100h-86v145h86q56 0 91.5 26.5t35.5 72.5q0 92 -129 92q-56 0 -100.5 -15.5t-81.5 -64.5l-101 107q49 63 120 89.5t171 26.5q139 0 210 -60t71 -171q0 -52 -24.5 -97t-63.5 -73 q45 -24 73.5 -71t28.5 -113q0 -111 -79.5 -183.5t-217.5 -72.5q-116 0 -185.5 29.5t-113.5 97.5z" />
<glyph unicode="&#xb4;" horiz-adv-x="655" d="M104 1135l191 276h244l-256 -276h-179z" />
<glyph unicode="&#xb5;" horiz-adv-x="1122" d="M139 -305v1298h236v-633q0 -99 48.5 -138.5t133.5 -39.5q82 0 136.5 44.5t54.5 123.5v643h235v-993h-207l-12 96q-92 -116 -238 -116q-108 0 -164 38l19 -323h-242z" />
<glyph unicode="&#xb6;" horiz-adv-x="1062" d="M70 987q0 167 88 273t239 106h547v-1571h-174v1419h-125v-1419h-176v817h-68q-153 0 -242 104.5t-89 270.5z" />
<glyph unicode="&#xb7;" horiz-adv-x="518" d="M133 524v248h252v-248h-252z" />
<glyph unicode="&#xb8;" horiz-adv-x="655" d="M96 -381l51 102q31 -27 63 -36t77 -9q39 0 73.5 25.5t34.5 58.5q0 28 -19 45t-50 17q-49 0 -78 -33l-98 61l100 177h135l-59 -107q14 2 45 2q83 0 134.5 -43.5t51.5 -114.5q0 -84 -66.5 -142t-173.5 -58q-155 0 -221 55z" />
<glyph unicode="&#xb9;" horiz-adv-x="450" d="M47 1223v143h295v-815h-166v672h-129z" />
<glyph unicode="&#xba;" horiz-adv-x="829" d="M86 1047q0 156 86 246.5t229 90.5t228.5 -90.5t85.5 -246.5t-85.5 -247t-228.5 -91t-229 91t-86 247zM217 1047q0 -104 46.5 -163t137.5 -59q90 0 139.5 59.5t49.5 162.5q0 101 -50 161t-139 60q-91 0 -137.5 -59t-46.5 -162z" />
<glyph unicode="&#xbb;" horiz-adv-x="942" d="M51 860h197l266 -375l-266 -381h-195l240 379zM418 860h196l267 -375l-267 -381h-194l239 379z" />
<glyph unicode="&#xbc;" horiz-adv-x="1378" d="M47 1223v143h295v-815h-166v672h-129zM133 0l828 1366h167l-829 -1366h-166zM696 203v125l348 487h173v-471h92v-141h-92v-203h-156v203h-365zM870 344h191v272z" />
<glyph unicode="&#xbd;" horiz-adv-x="1515" d="M47 1223v143h295v-815h-166v672h-129zM133 0l828 1366h167l-829 -1366h-166zM866 717q62 66 130.5 88t156.5 22q132 0 203 -64.5t71 -189.5q0 -45 -16.5 -90t-39.5 -81.5t-68.5 -84.5t-82 -82t-100.5 -90h312v-145h-562v123q97 82 143 121.5t105 95t83.5 88t42.5 70 t18 71.5q0 55 -33 83t-92 28q-101 0 -152 -70z" />
<glyph unicode="&#xbe;" horiz-adv-x="1619" d="M61 676l113 104q32 -55 76 -71.5t108 -16.5q69 0 103.5 32.5t34.5 86.5q0 100 -140 100h-86v146h86q56 0 91.5 26t35.5 72q0 92 -129 92q-56 0 -100.5 -15.5t-81.5 -64.5l-100 107q49 64 119.5 90.5t170.5 26.5q139 0 210 -60.5t71 -171.5q0 -52 -24.5 -97t-63.5 -73 q45 -24 73.5 -71t28.5 -113q0 -111 -79.5 -183.5t-217.5 -72.5q-116 0 -185.5 29.5t-113.5 97.5zM375 0l827 1366h168l-829 -1366h-166zM938 203v125l348 487h172v-471h92v-141h-92v-203h-155v203h-365zM1112 344h191v272z" />
<glyph unicode="&#xbf;" horiz-adv-x="923" d="M61 371q0 90 25.5 163t69 118.5t94.5 72.5t108 35l19 217h196l27 -399h-74h-34q-82 0 -132.5 -53t-50.5 -156q0 -74 41 -128.5t123 -54.5q76 0 123.5 31.5t79.5 104.5l196 -115q-63 -125 -159 -176t-256 -51q-87 0 -156.5 22.5t-113.5 60t-73 89t-41 105.5t-12 114z M342 1120v248h262v-248h-262z" />
<glyph unicode="&#xc0;" horiz-adv-x="1267" d="M18 0l484 1366h262l485 -1366h-266l-102 297h-498l-102 -297h-263zM365 1763h244l190 -274h-178zM461 522h342l-172 504z" />
<glyph unicode="&#xc1;" horiz-adv-x="1267" d="M18 0l484 1366h262l485 -1366h-266l-102 297h-498l-102 -297h-263zM461 522h342l-172 504zM491 1489l191 276h244l-256 -276h-179z" />
<glyph unicode="&#xc2;" horiz-adv-x="1267" d="M18 0l484 1366h262l485 -1366h-266l-102 297h-498l-102 -297h-263zM327 1489l222 325h172l227 -325h-166l-149 172l-140 -172h-166zM461 522h342l-172 504z" />
<glyph unicode="&#xc3;" horiz-adv-x="1267" d="M18 0l484 1366h262l485 -1366h-266l-102 297h-498l-102 -297h-263zM315 1569q11 87 65.5 147.5t135.5 60.5q39 0 73 -12.5t51 -25.5t44 -37q19 -18 27 -24.5t23.5 -14.5t29.5 -8q62 0 75 120l123 -69q-13 -87 -66.5 -147t-133.5 -60q-35 0 -68 15t-46 26.5t-42 38.5 q-50 47 -88 47q-33 0 -54.5 -35.5t-29.5 -93.5zM461 522h342l-172 504z" />
<glyph unicode="&#xc4;" horiz-adv-x="1267" d="M18 0l484 1366h262l485 -1366h-266l-102 297h-498l-102 -297h-263zM366 1511v197h193v-197h-193zM461 522h342l-172 504zM717 1511v197h192v-197h-192z" />
<glyph unicode="&#xc5;" horiz-adv-x="1267" d="M18 0l484 1366h262l485 -1366h-266l-102 297h-498l-102 -297h-263zM426 1681q0 88 59.5 148.5t147.5 60.5t149.5 -60.5t61.5 -148.5q0 -86 -61.5 -145.5t-149.5 -59.5t-147.5 59.5t-59.5 145.5zM461 522h342l-172 504zM547 1681q0 -37 25.5 -62.5t60.5 -25.5 q38 0 63 25.5t25 62.5q0 39 -25 65.5t-63 26.5q-35 0 -60.5 -27t-25.5 -65z" />
<glyph unicode="&#xc6;" horiz-adv-x="1906" d="M29 0l839 1366h936v-213h-626v-354h579v-213h-579v-375h626v-211h-878v311h-420l-187 -311h-290zM633 522h293v490z" />
<glyph unicode="&#xc7;" horiz-adv-x="1255" d="M102 680q0 328 168.5 518.5t460.5 190.5q170 0 283 -40.5t207 -134.5l-154 -174q-74 81 -153 106t-181 25q-187 0 -283 -130.5t-96 -360.5q0 -221 95 -352t282 -131q54 0 84 3t71.5 15.5t84 41t98.5 77.5l152 -178q-95 -87 -194.5 -128.5t-244.5 -47.5l-32 -60q14 2 45 2 q83 0 134.5 -43.5t51.5 -114.5q0 -84 -66.5 -142t-173.5 -58q-155 0 -221 55l51 102q31 -27 63 -36t77 -9q39 0 73.5 25.5t34.5 58.5q0 28 -19 45t-50 17q-49 0 -78 -33l-99 61l74 132q-265 26 -405 208.5t-140 489.5z" />
<glyph unicode="&#xc8;" horiz-adv-x="1128" d="M147 0v1366h879v-213h-627v-354h580v-213h-580v-375h627v-211h-879zM383 1763h244l190 -274h-178z" />
<glyph unicode="&#xc9;" horiz-adv-x="1128" d="M147 0v1366h879v-213h-627v-354h580v-213h-580v-375h627v-211h-879zM428 1489l191 276h244l-256 -276h-179z" />
<glyph unicode="&#xca;" horiz-adv-x="1128" d="M147 0v1366h879v-213h-627v-354h580v-213h-580v-375h627v-211h-879zM284 1489l222 325h172l227 -325h-166l-149 172l-140 -172h-166z" />
<glyph unicode="&#xcb;" horiz-adv-x="1128" d="M147 0v1366h879v-213h-627v-354h580v-213h-580v-375h627v-211h-879zM303 1511v197h193v-197h-193zM654 1511v197h192v-197h-192z" />
<glyph unicode="&#xcc;" horiz-adv-x="546" d="M0 1763h244l190 -274h-178zM147 0v1366h252v-1366h-252z" />
<glyph unicode="&#xcd;" horiz-adv-x="546" d="M127 1489l191 276h244l-256 -276h-179zM147 0v1366h252v-1366h-252z" />
<glyph unicode="&#xce;" horiz-adv-x="546" d="M-37 1489l222 325h172l227 -325h-166l-149 172l-140 -172h-166zM147 0v1366h252v-1366h-252z" />
<glyph unicode="&#xcf;" horiz-adv-x="546" d="M2 1511v197h193v-197h-193zM147 0v1366h252v-1366h-252zM353 1511v197h192v-197h-192z" />
<glyph unicode="&#xd0;" horiz-adv-x="1427" d="M45 580v188h166v598h481q147 0 267.5 -52.5t200 -145t122.5 -217t43 -269.5q0 -196 -73.5 -349t-218.5 -243t-341 -90h-481v580h-166zM463 211h229q92 0 165.5 37t120 102t71 149.5t24.5 182.5q0 134 -40.5 238t-128 168.5t-212.5 64.5h-229v-385h295v-188h-295v-369z " />
<glyph unicode="&#xd1;" horiz-adv-x="1376" d="M147 0v1366h232l606 -909v909h244v-1366h-217l-623 926v-926h-242zM360 1569q11 87 65.5 147.5t135.5 60.5q39 0 73 -12.5t51 -25.5t44 -37q19 -18 27 -24.5t23.5 -14.5t29.5 -8q62 0 75 120l123 -69q-13 -87 -66.5 -147t-133.5 -60q-35 0 -68 15t-46 26.5t-42 38.5 q-50 47 -88 47q-33 0 -54.5 -35.5t-29.5 -93.5z" />
<glyph unicode="&#xd2;" d="M102 686q0 157 41 285.5t121 222t203 144.5t281 51t280 -51t199 -145t116 -221.5t39 -285.5q0 -153 -39 -281t-115.5 -224.5t-199 -150t-280.5 -53.5q-157 0 -281.5 54t-203.5 150t-120 224t-41 281zM358 686q0 -109 21.5 -196.5t66 -154.5t120 -103.5t177.5 -36.5 q101 0 176 36.5t119.5 103.5t66 154.5t21.5 196.5q0 224 -94 354.5t-289 130.5q-100 0 -175 -35.5t-120.5 -101t-67.5 -152.5t-22 -196zM526 1763h244l190 -274h-178z" />
<glyph unicode="&#xd3;" d="M102 686q0 157 41 285.5t121 222t203 144.5t281 51t280 -51t199 -145t116 -221.5t39 -285.5q0 -153 -39 -281t-115.5 -224.5t-199 -150t-280.5 -53.5q-157 0 -281.5 54t-203.5 150t-120 224t-41 281zM358 686q0 -109 21.5 -196.5t66 -154.5t120 -103.5t177.5 -36.5 q101 0 176 36.5t119.5 103.5t66 154.5t21.5 196.5q0 224 -94 354.5t-289 130.5q-100 0 -175 -35.5t-120.5 -101t-67.5 -152.5t-22 -196zM524 1489l191 276h244l-256 -276h-179z" />
<glyph unicode="&#xd4;" d="M102 686q0 157 41 285.5t121 222t203 144.5t281 51t280 -51t199 -145t116 -221.5t39 -285.5q0 -153 -39 -281t-115.5 -224.5t-199 -150t-280.5 -53.5q-157 0 -281.5 54t-203.5 150t-120 224t-41 281zM358 686q0 -109 21.5 -196.5t66 -154.5t120 -103.5t177.5 -36.5 q101 0 176 36.5t119.5 103.5t66 154.5t21.5 196.5q0 224 -94 354.5t-289 130.5q-100 0 -175 -35.5t-120.5 -101t-67.5 -152.5t-22 -196zM428 1489l222 325h172l227 -325h-166l-149 172l-140 -172h-166z" />
<glyph unicode="&#xd5;" d="M102 686q0 157 41 285.5t121 222t203 144.5t281 51t280 -51t199 -145t116 -221.5t39 -285.5q0 -153 -39 -281t-115.5 -224.5t-199 -150t-280.5 -53.5q-157 0 -281.5 54t-203.5 150t-120 224t-41 281zM358 686q0 -109 21.5 -196.5t66 -154.5t120 -103.5t177.5 -36.5 q101 0 176 36.5t119.5 103.5t66 154.5t21.5 196.5q0 224 -94 354.5t-289 130.5q-100 0 -175 -35.5t-120.5 -101t-67.5 -152.5t-22 -196zM414 1569q11 87 65.5 147.5t135.5 60.5q39 0 73 -12.5t51 -25.5t44 -37q19 -18 27 -24.5t23.5 -14.5t29.5 -8q62 0 75 120l123 -69 q-13 -87 -66.5 -147t-133.5 -60q-35 0 -68 15t-46 26.5t-42 38.5q-50 47 -88 47q-33 0 -54.5 -35.5t-29.5 -93.5z" />
<glyph unicode="&#xd6;" d="M102 686q0 157 41 285.5t121 222t203 144.5t281 51t280 -51t199 -145t116 -221.5t39 -285.5q0 -153 -39 -281t-115.5 -224.5t-199 -150t-280.5 -53.5q-157 0 -281.5 54t-203.5 150t-120 224t-41 281zM358 686q0 -109 21.5 -196.5t66 -154.5t120 -103.5t177.5 -36.5 q101 0 176 36.5t119.5 103.5t66 154.5t21.5 196.5q0 224 -94 354.5t-289 130.5q-100 0 -175 -35.5t-120.5 -101t-67.5 -152.5t-22 -196zM467 1511v197h193v-197h-193zM818 1511v197h192v-197h-192z" />
<glyph unicode="&#xd7;" horiz-adv-x="1171" d="M104 119l361 368l-361 369l129 129l353 -369l350 365l131 -123l-356 -373l352 -364l-127 -129l-350 364l-348 -362z" />
<glyph unicode="&#xd8;" d="M102 686q0 157 41 285.5t121 222t203 144.5t281 51q210 0 358 -93l70 93h225l-160 -215q141 -185 141 -488q0 -153 -39 -281t-115.5 -224.5t-199 -150t-280.5 -53.5q-196 0 -338 82l-62 -82h-225l145 197q-166 190 -166 512zM354 686q0 -186 64 -311l549 733 q-87 66 -224 66q-133 0 -222 -64t-128 -171t-39 -253zM545 240q80 -47 198 -47q101 0 176.5 37t121 104t67.5 155t22 197q0 159 -49 275z" />
<glyph unicode="&#xd9;" horiz-adv-x="1357" d="M147 510v856h252v-858q0 -160 65.5 -233.5t209.5 -73.5q142 0 212 74.5t70 232.5v858h254v-854q0 -261 -136 -398t-400 -137q-263 0 -395 137t-132 396zM459 1763h244l190 -274h-178z" />
<glyph unicode="&#xda;" horiz-adv-x="1357" d="M147 510v856h252v-858q0 -160 65.5 -233.5t209.5 -73.5q142 0 212 74.5t70 232.5v858h254v-854q0 -261 -136 -398t-400 -137q-263 0 -395 137t-132 396zM458 1489l191 276h244l-256 -276h-179z" />
<glyph unicode="&#xdb;" horiz-adv-x="1357" d="M147 510v856h252v-858q0 -160 65.5 -233.5t209.5 -73.5q142 0 212 74.5t70 232.5v858h254v-854q0 -261 -136 -398t-400 -137q-263 0 -395 137t-132 396zM366 1489l222 325h172l227 -325h-166l-149 172l-140 -172h-166z" />
<glyph unicode="&#xdc;" horiz-adv-x="1357" d="M147 510v856h252v-858q0 -160 65.5 -233.5t209.5 -73.5q142 0 212 74.5t70 232.5v858h254v-854q0 -261 -136 -398t-400 -137q-263 0 -395 137t-132 396zM401 1511v197h193v-197h-193zM752 1511v197h192v-197h-192z" />
<glyph unicode="&#xdd;" horiz-adv-x="1275" d="M29 1366h280l328 -545l328 545h282l-485 -786v-580h-250v582zM428 1489l191 276h244l-256 -276h-179z" />
<glyph unicode="&#xde;" horiz-adv-x="1187" d="M147 0v1366h252v-252h271q198 0 313 -119t115 -305q0 -188 -116.5 -314t-311.5 -126h-271v-250h-252zM399 465h252q92 0 143.5 63t51.5 162q0 95 -51 154t-144 59h-252v-438z" />
<glyph unicode="&#xdf;" horiz-adv-x="1114" d="M139 0v1081q0 166 115 269.5t305 103.5q156 0 257.5 -80.5t101.5 -210.5q0 -94 -34.5 -157.5t-97.5 -118.5q-65 -59 -65 -107q0 -59 100 -118q46 -29 81 -59t69 -73.5t52.5 -102t18.5 -128.5q0 -132 -92 -225.5t-250 -93.5q-52 0 -98.5 7t-77 17t-53.5 20.5t-33 17.5 l-10 7l102 193q27 -28 59 -42.5t52 -17t53 -2.5q50 0 86.5 36t36.5 85q0 33 -8.5 58t-32.5 48t-42 36t-60 40q-46 30 -75.5 53t-61 57.5t-47 77.5t-15.5 95q0 85 34 146t93 116q68 65 68 123q0 46 -35 72t-88 26q-72 0 -121 -39t-49 -114v-1096h-238z" />
<glyph unicode="&#xe0;" horiz-adv-x="1056" d="M86 301q0 155 107.5 238.5t269.5 83.5h225v26q0 174 -180 174q-83 0 -143 -19.5t-119 -74.5l-123 156q78 69 171.5 99t229.5 30q187 0 294.5 -90.5t107.5 -270.5v-653h-201l-12 76q-129 -99 -279 -99q-73 0 -134.5 19t-110 57t-76 101.5t-27.5 146.5zM213 1409h244 l190 -274h-178zM326 305q0 -64 45.5 -96.5t124.5 -32.5q81 0 136.5 39.5t55.5 118.5v98h-196q-76 0 -121 -31t-45 -96z" />
<glyph unicode="&#xe1;" horiz-adv-x="1056" d="M86 301q0 155 107.5 238.5t269.5 83.5h225v26q0 174 -180 174q-83 0 -143 -19.5t-119 -74.5l-123 156q78 69 171.5 99t229.5 30q187 0 294.5 -90.5t107.5 -270.5v-653h-201l-12 76q-129 -99 -279 -99q-73 0 -134.5 19t-110 57t-76 101.5t-27.5 146.5zM326 305 q0 -64 45.5 -96.5t124.5 -32.5q81 0 136.5 39.5t55.5 118.5v98h-196q-76 0 -121 -31t-45 -96zM381 1135l190 276h244l-256 -276h-178z" />
<glyph unicode="&#xe2;" horiz-adv-x="1056" d="M86 301q0 155 107.5 238.5t269.5 83.5h225v26q0 174 -180 174q-83 0 -143 -19.5t-119 -74.5l-123 156q78 69 171.5 99t229.5 30q187 0 294.5 -90.5t107.5 -270.5v-653h-201l-12 76q-129 -99 -279 -99q-73 0 -134.5 19t-110 57t-76 101.5t-27.5 146.5zM209 1135l221 325 h172l227 -325h-165l-150 172l-139 -172h-166zM326 305q0 -64 45.5 -96.5t124.5 -32.5q81 0 136.5 39.5t55.5 118.5v98h-196q-76 0 -121 -31t-45 -96z" />
<glyph unicode="&#xe3;" horiz-adv-x="1056" d="M86 301q0 155 107.5 238.5t269.5 83.5h225v26q0 174 -180 174q-83 0 -143 -19.5t-119 -74.5l-123 156q78 69 171.5 99t229.5 30q187 0 294.5 -90.5t107.5 -270.5v-653h-201l-12 76q-129 -99 -279 -99q-73 0 -134.5 19t-110 57t-76 101.5t-27.5 146.5zM211 1217 q11 87 65.5 147.5t135.5 60.5q39 0 73 -12.5t51 -25.5t44 -37q40 -37 57 -43q11 -4 22 -4q63 0 76 120l123 -69q-13 -87 -67 -147t-134 -60q-27 0 -49 6t-45 22.5t-30 22.5t-31 29q-50 47 -88 47q-33 0 -54.5 -35.5t-29.5 -93.5zM326 305q0 -64 45.5 -96.5t124.5 -32.5 q81 0 136.5 39.5t55.5 118.5v98h-196q-76 0 -121 -31t-45 -96z" />
<glyph unicode="&#xe4;" horiz-adv-x="1056" d="M86 301q0 155 107.5 238.5t269.5 83.5h225v26q0 174 -180 174q-83 0 -143 -19.5t-119 -74.5l-123 156q78 69 171.5 99t229.5 30q187 0 294.5 -90.5t107.5 -270.5v-653h-201l-12 76q-129 -99 -279 -99q-73 0 -134.5 19t-110 57t-76 101.5t-27.5 146.5zM246 1159v197h192 v-197h-192zM326 305q0 -64 45.5 -96.5t124.5 -32.5q81 0 136.5 39.5t55.5 118.5v98h-196q-76 0 -121 -31t-45 -96zM596 1159v197h192v-197h-192z" />
<glyph unicode="&#xe5;" horiz-adv-x="1056" d="M86 301q0 155 107.5 238.5t269.5 83.5h225v26q0 174 -180 174q-83 0 -143 -19.5t-119 -74.5l-123 156q78 69 171.5 99t229.5 30q187 0 294.5 -90.5t107.5 -270.5v-653h-201l-12 76q-129 -99 -279 -99q-73 0 -134.5 19t-110 57t-76 101.5t-27.5 146.5zM297 1325 q0 88 59.5 148.5t147.5 60.5t149.5 -60.5t61.5 -148.5q0 -86 -61.5 -145.5t-149.5 -59.5t-147.5 59.5t-59.5 145.5zM326 305q0 -64 45.5 -96.5t124.5 -32.5q81 0 136.5 39.5t55.5 118.5v98h-196q-76 0 -121 -31t-45 -96zM418 1325q0 -37 25.5 -62.5t60.5 -25.5q38 0 63 25.5 t25 62.5q0 39 -25 65.5t-63 26.5q-35 0 -60.5 -27t-25.5 -65z" />
<glyph unicode="&#xe6;" horiz-adv-x="1736" d="M86 301q0 104 53 178.5t136.5 109t187.5 34.5h231v22q0 81 -52 131.5t-148 50.5q-80 0 -140 -22t-121 -78l-122 158q78 69 173 99t232 30q209 0 318 -133q59 59 145.5 96t187.5 37q237 0 356 -133.5t119 -366.5v-98h-710q3 -107 71 -172.5t177 -65.5q67 0 124 26.5 t117 92.5l150 -166q-79 -82 -173 -116.5t-218 -34.5q-230 0 -353 135q-66 -78 -151 -106.5t-221 -28.5q-73 0 -137.5 18.5t-117 55.5t-83.5 100.5t-31 146.5zM326 303q0 -63 47.5 -95t122.5 -32q83 0 140.5 39.5t57.5 118.5v96h-202q-75 0 -120.5 -31.5t-45.5 -95.5z M932 608h473q-11 105 -67.5 156t-170.5 51q-107 0 -168.5 -63.5t-66.5 -143.5z" />
<glyph unicode="&#xe7;" horiz-adv-x="1050" d="M98 496q0 232 130.5 375t353.5 143q135 0 231 -42t170 -136l-168 -152q-51 72 -107 97.5t-122 25.5q-116 0 -181 -84t-65 -227q0 -149 62 -230.5t186 -81.5q69 0 127 26t119 99l155 -157q-83 -85 -164 -121.5t-192 -44.5l-33 -64q14 2 45 2q83 0 134.5 -43.5t51.5 -113.5 q0 -84 -66 -142.5t-173 -58.5q-155 0 -221 55l51 103q53 -46 139 -46q40 0 74.5 25.5t34.5 58.5q0 28 -19.5 45t-50.5 17q-49 0 -78 -33l-98 62l74 131q-193 24 -296.5 160.5t-103.5 351.5z" />
<glyph unicode="&#xe8;" horiz-adv-x="1144" d="M98 494q0 151 53 267.5t161.5 185.5t258.5 69q244 0 362 -133t118 -367v-104h-709q20 -236 244 -236q76 0 135 20.5t117 82.5l143 -162q-90 -78 -177 -109t-212 -31q-246 0 -370 134.5t-124 382.5zM342 608h469q-6 101 -65.5 155t-172.5 54q-108 0 -166 -61t-65 -148z M358 1409h244l191 -274h-179z" />
<glyph unicode="&#xe9;" horiz-adv-x="1144" d="M98 494q0 151 53 267.5t161.5 185.5t258.5 69q244 0 362 -133t118 -367v-104h-709q20 -236 244 -236q76 0 135 20.5t117 82.5l143 -162q-90 -78 -177 -109t-212 -31q-246 0 -370 134.5t-124 382.5zM342 608h469q-6 101 -65.5 155t-172.5 54q-108 0 -166 -61t-65 -148z M383 1135l190 276h244l-256 -276h-178z" />
<glyph unicode="&#xea;" horiz-adv-x="1144" d="M98 494q0 151 53 267.5t161.5 185.5t258.5 69q244 0 362 -133t118 -367v-104h-709q20 -236 244 -236q76 0 135 20.5t117 82.5l143 -162q-90 -78 -177 -109t-212 -31q-246 0 -370 134.5t-124 382.5zM262 1135l221 325h172l228 -325h-166l-150 172l-139 -172h-166zM342 608 h469q-6 101 -65.5 155t-172.5 54q-108 0 -166 -61t-65 -148z" />
<glyph unicode="&#xeb;" horiz-adv-x="1144" d="M98 494q0 151 53 267.5t161.5 185.5t258.5 69q244 0 362 -133t118 -367v-104h-709q20 -236 244 -236q76 0 135 20.5t117 82.5l143 -162q-90 -78 -177 -109t-212 -31q-246 0 -370 134.5t-124 382.5zM311 1159v197h193v-197h-193zM342 608h469q-6 101 -65.5 155t-172.5 54 q-108 0 -166 -61t-65 -148zM662 1159v197h192v-197h-192z" />
<glyph unicode="&#xec;" horiz-adv-x="516" d="M-12 1395h243l191 -275h-178zM139 0v993h238v-993h-238z" />
<glyph unicode="&#xed;" horiz-adv-x="516" d="M115 1120l190 277h244l-256 -277h-178zM139 0v993h238v-993h-238z" />
<glyph unicode="&#xee;" horiz-adv-x="516" d="M-49 1120l221 326h172l227 -326h-165l-150 172l-139 -172h-166zM139 0v993h238v-993h-238z" />
<glyph unicode="&#xef;" horiz-adv-x="516" d="M-10 1145v196h192v-196h-192zM139 0v993h238v-993h-238zM340 1145v196h192v-196h-192z" />
<glyph unicode="&#xf0;" horiz-adv-x="1181" d="M98 467q0 233 125.5 367.5t349.5 134.5q86 0 181 -31q-76 141 -133 184l-146 -108l-96 119l119 92q-89 59 -144 82l127 137q107 -51 172 -96l150 110l90 -123l-111 -82q152 -141 226.5 -332t74.5 -413q0 -243 -132.5 -385.5t-358.5 -142.5q-238 0 -366 129t-128 358z M336 461q0 -139 66.5 -210t189.5 -71q118 0 187 84.5t69 233.5q0 141 -63 209.5t-195 68.5q-129 0 -191.5 -82t-62.5 -233z" />
<glyph unicode="&#xf1;" horiz-adv-x="1114" d="M139 0v993h201l12 -73q52 53 115.5 73.5t157.5 20.5q172 0 265 -86.5t93 -251.5v-676h-235v631q0 182 -185 182q-81 0 -134.5 -44.5t-53.5 -127.5v-641h-236zM244 1217q11 87 65 147.5t135 60.5q39 0 73 -12.5t51 -25.5t44 -37q19 -18 27 -24.5t23.5 -14.5t29.5 -8 q63 0 76 120l123 -69q-13 -87 -67 -147t-134 -60q-27 0 -49 6t-45 22.5t-30 22.5t-31 29q-50 47 -89 47q-33 0 -54.5 -35.5t-29.5 -93.5z" />
<glyph unicode="&#xf2;" horiz-adv-x="1185" d="M98 496q0 241 133.5 380.5t360.5 139.5t361 -140t134 -380t-134 -379.5t-361 -139.5t-360.5 139.5t-133.5 379.5zM338 496q0 -145 64.5 -227.5t189.5 -82.5t189.5 82.5t64.5 227.5t-64.5 227t-189.5 82t-189.5 -82t-64.5 -227zM373 1409h243l191 -274h-178z" />
<glyph unicode="&#xf3;" horiz-adv-x="1185" d="M98 496q0 241 133.5 380.5t360.5 139.5t361 -140t134 -380t-134 -379.5t-361 -139.5t-360.5 139.5t-133.5 379.5zM338 496q0 -145 64.5 -227.5t189.5 -82.5t189.5 82.5t64.5 227.5t-64.5 227t-189.5 82t-189.5 -82t-64.5 -227zM373 1135l190 276h244l-256 -276h-178z" />
<glyph unicode="&#xf4;" horiz-adv-x="1185" d="M98 496q0 241 133.5 380.5t360.5 139.5t361 -140t134 -380t-134 -379.5t-361 -139.5t-360.5 139.5t-133.5 379.5zM283 1135l221 325h172l227 -325h-166l-149 172l-139 -172h-166zM338 496q0 -145 64.5 -227.5t189.5 -82.5t189.5 82.5t64.5 227.5t-64.5 227t-189.5 82 t-189.5 -82t-64.5 -227z" />
<glyph unicode="&#xf5;" horiz-adv-x="1185" d="M98 496q0 241 133.5 380.5t360.5 139.5t361 -140t134 -380t-134 -379.5t-361 -139.5t-360.5 139.5t-133.5 379.5zM272 1217q11 87 65.5 147.5t135.5 60.5q39 0 73 -12.5t51 -25.5t44 -37q19 -18 27 -24.5t23.5 -14.5t29.5 -8q63 0 76 120l123 -69q-13 -87 -67 -147 t-134 -60q-35 0 -68 15t-46 26.5t-42 38.5q-50 47 -88 47q-33 0 -54.5 -35.5t-29.5 -93.5zM338 496q0 -145 64.5 -227.5t189.5 -82.5t189.5 82.5t64.5 227.5t-64.5 227t-189.5 82t-189.5 -82t-64.5 -227z" />
<glyph unicode="&#xf6;" horiz-adv-x="1185" d="M98 496q0 241 133.5 380.5t360.5 139.5t361 -140t134 -380t-134 -379.5t-361 -139.5t-360.5 139.5t-133.5 379.5zM324 1159v197h192v-197h-192zM338 496q0 -145 64.5 -227.5t189.5 -82.5t189.5 82.5t64.5 227.5t-64.5 227t-189.5 82t-189.5 -82t-64.5 -227zM674 1159v197 h192v-197h-192z" />
<glyph unicode="&#xf7;" horiz-adv-x="1241" d="M129 410v168h987v-168h-987zM500 37v227h241v-227h-241zM500 723v225h241v-225h-241z" />
<glyph unicode="&#xf8;" horiz-adv-x="1185" d="M98 496q0 241 133.5 380.5t360.5 139.5q136 0 246 -55l43 55h200l-116 -154q122 -137 122 -366q0 -240 -134 -379.5t-361 -139.5q-136 0 -248 56l-41 -56h-201l115 154q-119 138 -119 365zM334 496q0 -97 28 -170l347 462q-52 25 -117 25q-125 0 -191.5 -84t-66.5 -233z M471 203q55 -25 121 -25q125 0 191.5 84.5t66.5 233.5q0 99 -31 172z" />
<glyph unicode="&#xf9;" horiz-adv-x="1110" d="M131 317v676h238v-633q0 -99 47.5 -138.5t132.5 -39.5q83 0 135.5 43t52.5 125v643h238v-993h-199l-16 76q-110 -99 -258 -99q-163 0 -267 89t-104 251zM336 1409h244l190 -274h-178z" />
<glyph unicode="&#xfa;" horiz-adv-x="1110" d="M131 317v676h238v-633q0 -99 47.5 -138.5t132.5 -39.5q83 0 135.5 43t52.5 125v643h238v-993h-199l-16 76q-110 -99 -258 -99q-163 0 -267 89t-104 251zM336 1135l190 276h244l-256 -276h-178z" />
<glyph unicode="&#xfb;" horiz-adv-x="1110" d="M131 317v676h238v-633q0 -99 47.5 -138.5t132.5 -39.5q83 0 135.5 43t52.5 125v643h238v-993h-199l-16 76q-110 -99 -258 -99q-163 0 -267 89t-104 251zM244 1135l221 325h172l227 -325h-166l-149 172l-139 -172h-166z" />
<glyph unicode="&#xfc;" horiz-adv-x="1110" d="M131 317v676h238v-633q0 -99 47.5 -138.5t132.5 -39.5q83 0 135.5 43t52.5 125v643h238v-993h-199l-16 76q-110 -99 -258 -99q-163 0 -267 89t-104 251zM274 1159v197h193v-197h-193zM625 1159v197h192v-197h-192z" />
<glyph unicode="&#xfd;" horiz-adv-x="1048" d="M27 993h252l262 -661l227 661h254l-444 -1196q-81 -216 -291 -219q-30 0 -87 6.5t-89 16.5l47 223q53 -35 114 -35q57 0 93 82l63 160zM328 1135l190 276h244l-256 -276h-178z" />
<glyph unicode="&#xfe;" horiz-adv-x="1163" d="M139 -406v1838h238v-457q37 20 102 29.5t111 9.5q241 0 358 -136.5t117 -385.5q0 -236 -131.5 -374t-343.5 -138q-121 0 -213 51v-437h-238zM377 373q0 -86 54.5 -140.5t148.5 -54.5q117 0 182 81t65 230q0 160 -59.5 243t-189.5 83q-109 0 -201 -47v-395z" />
<glyph unicode="&#xff;" horiz-adv-x="1048" d="M27 993h252l262 -661l227 661h254l-444 -1196q-81 -216 -291 -219q-30 0 -87 6.5t-89 16.5l47 223q53 -35 114 -35q57 0 93 82l63 160zM264 1159v197h193v-197h-193zM614 1159v197h193v-197h-193z" />
<glyph unicode="&#x152;" horiz-adv-x="2117" d="M102 686q0 211 70 366.5t216.5 244.5t356.5 89q132 0 228 -27t166 -89v96h876v-213h-626v-350h579v-217h-579v-375h626v-211h-876v104q-150 -124 -394 -124q-158 0 -282 53.5t-202 149t-118.5 223t-40.5 280.5zM358 686q0 -145 41.5 -253.5t130 -173t215.5 -64.5 q192 0 290 134.5t98 356.5q0 109 -22 195.5t-67 152.5t-121 101.5t-178 35.5q-100 0 -175.5 -35.5t-121 -101t-68 -152.5t-22.5 -196z" />
<glyph unicode="&#x153;" horiz-adv-x="1888" d="M98 496q0 240 133.5 379t360.5 139q232 0 371 -158q59 74 150 116t204 42q236 0 356.5 -134t120.5 -366v-102h-707q5 -111 66.5 -172.5t169.5 -61.5q78 0 139.5 20t118.5 81l143 -162q-90 -83 -175.5 -110t-219.5 -27q-235 0 -368 157q-141 -157 -369 -157 q-227 0 -360.5 138t-133.5 378zM336 496q0 -149 65.5 -233.5t190.5 -84.5q126 0 193 84.5t67 233.5v14q-3 142 -70 222.5t-190 80.5q-125 0 -190.5 -84t-65.5 -233zM1085 608h469q-22 207 -237 207q-107 0 -168 -60t-64 -147z" />
<glyph unicode="&#x178;" horiz-adv-x="1275" d="M29 1366h280l328 -545l328 545h282l-485 -786v-580h-250v582zM366 1511v197h193v-197h-193zM717 1511v197h192v-197h-192z" />
<glyph unicode="&#x2c6;" horiz-adv-x="661" d="M20 1135l222 325h172l227 -325h-166l-149 172l-140 -172h-166z" />
<glyph unicode="&#x2dc;" horiz-adv-x="659" d="M6 1217q11 87 65.5 147.5t135.5 60.5q39 0 73 -12.5t51 -25.5t44 -37q19 -18 27 -24.5t23.5 -14.5t29.5 -8q62 0 75 120l123 -69q-13 -87 -66.5 -147t-133.5 -60q-35 0 -68 15t-46 26.5t-42 38.5q-50 47 -88 47q-33 0 -54.5 -35.5t-29.5 -93.5z" />
<glyph unicode="&#x2000;" horiz-adv-x="945" />
<glyph unicode="&#x2001;" horiz-adv-x="1890" />
<glyph unicode="&#x2002;" horiz-adv-x="945" />
<glyph unicode="&#x2003;" horiz-adv-x="1890" />
<glyph unicode="&#x2004;" horiz-adv-x="630" />
<glyph unicode="&#x2005;" horiz-adv-x="472" />
<glyph unicode="&#x2006;" horiz-adv-x="315" />
<glyph unicode="&#x2007;" horiz-adv-x="315" />
<glyph unicode="&#x2008;" horiz-adv-x="236" />
<glyph unicode="&#x2009;" horiz-adv-x="378" />
<glyph unicode="&#x200a;" horiz-adv-x="105" />
<glyph unicode="&#x2010;" horiz-adv-x="673" d="M78 510v186h518v-186h-518z" />
<glyph unicode="&#x2011;" horiz-adv-x="673" d="M78 510v186h518v-186h-518z" />
<glyph unicode="&#x2012;" horiz-adv-x="673" d="M78 510v186h518v-186h-518z" />
<glyph unicode="&#x2013;" horiz-adv-x="1157" d="M94 506v190h969v-190h-969z" />
<glyph unicode="&#x2014;" horiz-adv-x="1765" d="M94 506v190h1577v-190h-1577z" />
<glyph unicode="&#x2018;" horiz-adv-x="374" d="M61 887v211l62 268h129l-45 -231h106v-248h-252z" />
<glyph unicode="&#x2019;" horiz-adv-x="374" d="M61 1118v248h252v-211l-61 -268h-129l45 231h-107z" />
<glyph unicode="&#x201a;" horiz-adv-x="374" d="M61 0v248h252v-211l-61 -268h-129l45 231h-107z" />
<glyph unicode="&#x201c;" horiz-adv-x="743" d="M61 887v211l62 268h129l-45 -231h106v-248h-252zM430 887v211l62 268h129l-46 -231h107v-248h-252z" />
<glyph unicode="&#x201d;" horiz-adv-x="743" d="M61 1118v248h252v-211l-61 -268h-129l45 231h-107zM430 1118v248h252v-211l-61 -268h-129l45 231h-107z" />
<glyph unicode="&#x201e;" horiz-adv-x="759" d="M61 0v248h252v-211l-61 -268h-129l45 231h-107zM446 0v248h252v-211l-61 -268h-129l45 231h-107z" />
<glyph unicode="&#x2022;" horiz-adv-x="739" d="M158 608q0 87 61 147t150 60q90 0 151.5 -60t61.5 -147t-61.5 -147t-151.5 -60q-89 0 -150 60t-61 147z" />
<glyph unicode="&#x2026;" horiz-adv-x="1236" d="M82 0v248h262v-248h-262zM487 0v248h263v-248h-263zM893 0v248h262v-248h-262z" />
<glyph unicode="&#x202f;" horiz-adv-x="378" />
<glyph unicode="&#x2039;" horiz-adv-x="575" d="M61 485l267 375h196l-241 -377l239 -379h-194z" />
<glyph unicode="&#x203a;" horiz-adv-x="575" d="M51 860h197l266 -375l-266 -381h-195l240 379z" />
<glyph unicode="&#x205f;" horiz-adv-x="472" />
<glyph unicode="&#x20ac;" horiz-adv-x="1327" d="M88 430v176h102v76q0 2 -1 29t1 30h-102v177h123q97 468 577 468q163 0 262.5 -36.5t219.5 -132.5l-142 -173q-88 83 -162.5 109.5t-170.5 26.5q-139 0 -221.5 -64.5t-116.5 -197.5h524l-68 -177h-481v-61v-74h434l-65 -176h-340q26 -122 112 -185t222 -63 q101 0 172 28.5t168 119.5l141 -160q-74 -65 -132.5 -102t-147.5 -62.5t-201 -25.5q-247 0 -397.5 117t-184.5 333h-125z" />
<glyph unicode="&#x2122;" horiz-adv-x="1028" d="M104 1288v78h328v-78h-119v-387h-90v387h-119zM516 901v465h129l98 -299l99 299h127v-465h-86l4 352l-119 -352h-51l-119 359l4 -359h-86z" />
<glyph unicode="&#x25fc;" horiz-adv-x="993" d="M0 0v993h993v-993h-993z" />
</font>
</defs>
</svg>
